<svg width="60" height="60" viewBox="0 0 60 60" fill="none" xmlns="http://www.w3.org/2000/svg">
<path d="M10.3385 52.6596C4.00488 47.1592 0 39.0472 0 30C0 13.4314 13.4314 0 30 0C46.5686 0 60 13.4314 60 30C60 39.0539 55.9893 47.171 49.6475 52.6716L10.3385 52.6596Z" fill="#FE6A16"/>
<path d="M59.7526 33.8708L38.948 13.0663L16.8652 30L23.9663 37.1011L23.0348 37.6137L38.0892 52.668L49.6474 52.6716C55.0705 47.9679 58.7889 41.3508 59.7526 33.8708Z" fill="#F24500"/>
<path d="M30.0001 47.8653C33.0544 47.8653 35.7618 44.757 37.4396 42.4693L35.6973 41.848C34.466 41.4089 33.6334 40.1583 33.6334 38.7479V34.5H26.4301V38.7479C26.4301 40.1583 25.5975 41.4089 24.3662 41.848L22.574 42.4871C24.2526 44.7647 26.9537 47.8653 30.0001 47.8653Z" fill="#FFBEAA"/>
<path d="M35.697 41.848C34.4658 41.4089 33.6331 40.1583 33.6331 38.7479V34.5H29.9583V47.8641C29.9722 47.8642 29.986 47.8653 30 47.8653C33.0542 47.8653 35.7616 44.757 37.4394 42.4693L35.697 41.848Z" fill="#FAA68E"/>
<path d="M46.8934 48.295C45.5851 46.236 43.6939 44.6996 41.5084 43.9203L39.3266 43.1423L37.4394 43.0843C35.7617 45.3719 33.0629 46.8385 30.0087 46.8385C26.9624 46.8385 24.0726 45.3172 22.3939 43.0398L20.6881 43.1597L18.5549 43.9205C16.3693 44.6998 14.4781 46.2362 13.1699 48.2951L10.3354 52.6569C15.6013 57.2311 22.4774 60 30.0001 60C37.5147 60 44.384 57.2371 49.6476 52.6716L46.8934 48.295Z" fill="white"/>
<path d="M49.6476 52.6716L46.8934 48.295C45.5851 46.236 43.6939 44.6997 41.5084 43.9204L39.3266 43.1424L37.4394 43.0844C35.7617 45.372 33.0629 46.8386 30.0086 46.8386C29.9918 46.8386 29.9751 46.8379 29.9583 46.8377V59.9995C29.9722 59.9995 29.986 60 30 60C37.5147 60 44.384 57.2371 49.6476 52.6716Z" fill="#E9EDF5"/>
<path d="M30.0024 48.0753C33.7972 48.0753 37.1731 45.9292 39.3277 43.1427L37.4394 42.4694C35.7617 44.757 33.0543 46.2422 30 46.2422C26.9536 46.2422 24.2524 44.7647 22.5737 42.4872L20.6897 43.159C22.8449 45.9362 26.2149 48.0753 30.0024 48.0753Z" fill="#E9EDF5"/>
<path d="M37.4394 42.4694C35.7616 44.757 33.0542 46.2422 30 46.2422C29.986 46.2422 29.9722 46.2416 29.9583 46.2416V48.0746C29.973 48.0747 29.9875 48.0754 30.0023 48.0754C33.7972 48.0754 37.173 45.9293 39.3276 43.1428L37.4394 42.4694Z" fill="#CDD2E1"/>
<path d="M23.2269 27.519C23.5816 25.3579 22.1172 23.3184 19.9561 22.9637C17.795 22.609 15.7555 24.0734 15.4008 26.2345C15.0461 28.3956 16.5105 30.4351 18.6716 30.7898C20.8327 31.1445 22.8722 29.6801 23.2269 27.519Z" fill="#FFBEAA"/>
<path d="M44.6163 27.5149C44.971 25.3538 43.5066 23.3143 41.3455 22.9596C39.1844 22.6049 37.1449 24.0693 36.7902 26.2304C36.4355 28.3915 37.8999 30.431 40.061 30.7857C42.2221 31.1404 44.2616 29.676 44.6163 27.5149Z" fill="#FAA68E"/>
<path d="M30 40.02C23.7697 40.02 18.719 34.9693 18.719 28.7389V24.8435C18.719 18.6131 23.7697 13.5624 30 13.5624C36.2304 13.5624 41.2811 18.6131 41.2811 24.8435V28.7389C41.2811 34.9693 36.2304 40.02 30 40.02Z" fill="#FFDECF"/>
<path d="M30 13.5626C29.986 13.5626 29.9722 13.563 29.9583 13.5631V40.0195C29.9722 40.0195 29.986 40.02 30 40.02C36.2304 40.02 41.281 34.9693 41.281 28.7389V24.8435C41.281 18.6132 36.2304 13.5626 30 13.5626Z" fill="#FFCDBE"/>
<path d="M42.434 21.699C42.434 14.8173 36.8434 9.24118 29.956 9.26509C23.0839 9.28888 17.5659 14.9619 17.5659 21.834V25.9226C17.5659 26.7136 18.2072 27.3547 18.9981 27.3547C19.1683 19.5485 24.0269 14.7913 30 14.7913C35.973 14.7913 40.8316 19.5485 41.0018 27.3547C41.7928 27.3547 42.4339 26.7135 42.4339 25.9226V21.699H42.434Z" fill="#707789"/>
<path d="M29.9583 9.26508V14.7918C29.9722 14.7918 29.986 14.7912 30 14.7912C35.973 14.7912 40.8316 19.5484 41.0019 27.3546C41.7929 27.3546 42.434 26.7134 42.434 25.9225V21.699C42.434 14.818 36.8445 9.24247 29.9583 9.26508Z" fill="#555A66"/>
</svg>
