<svg width="948" height="655" viewBox="0 0 948 655" fill="none" xmlns="http://www.w3.org/2000/svg">
<path d="M785.947 53.8472V288.893" stroke="#ECF6FF" stroke-width="22"/>
<path d="M782.962 45.4197V289.653" stroke="#DCEEFF" stroke-width="17"/>
<path d="M850.874 44.3694V290.247" stroke="#B6D4FF" stroke-width="20"/>
<path d="M723.04 46.3787V288.054" stroke="#ECF6FF" stroke-width="22"/>
<path fill-rule="evenodd" clip-rule="evenodd" d="M715.242 290.247H848.584V44.3689H715.242V290.247ZM723.383 280.735H840.444V53.8812H723.383V280.735Z" fill="#DCEEFF"/>
<path fill-rule="evenodd" clip-rule="evenodd" d="M689.354 302.366H854.517V290.247H689.354V302.366Z" fill="#CCE3FF"/>
<path fill-rule="evenodd" clip-rule="evenodd" d="M816.11 302.366H857.022V290.247H816.11V302.366Z" fill="#B6D4FF"/>
<path d="M725.366 130.322H848.584" stroke="#DCEEFF" stroke-width="17"/>
<path d="M725.366 206.696H848.584" stroke="#DCEEFF" stroke-width="17"/>
<path fill-rule="evenodd" clip-rule="evenodd" d="M809.461 276.135C808.884 281.803 806.427 286.801 802.838 290.247H779.367C775.778 286.801 773.321 281.803 772.74 276.135H809.461Z" fill="#B6D4FF"/>
<path fill-rule="evenodd" clip-rule="evenodd" d="M809.461 264.353C808.369 275.066 800.565 283.377 791.101 283.377C781.637 283.377 773.834 275.066 772.741 264.353H809.461Z" fill="#B6D4FF"/>
<path fill-rule="evenodd" clip-rule="evenodd" d="M740.566 281.359L744.551 235.987H757.011L760.996 281.359C761.413 286.113 758.22 290.247 754.13 290.247H747.433C743.342 290.247 740.149 286.113 740.566 281.359Z" fill="#CCE3FF"/>
<path d="M180.554 53.8472V288.893" stroke="#ECF6FF" stroke-width="22"/>
<path d="M183.539 45.4197V289.653" stroke="#DCEEFF" stroke-width="17"/>
<path d="M115.627 44.3694V290.247" stroke="#B6D4FF" stroke-width="20"/>
<path d="M243.461 46.3787V288.054" stroke="#ECF6FF" stroke-width="22"/>
<path fill-rule="evenodd" clip-rule="evenodd" d="M251.26 290.247H117.917V44.3689H251.26V290.247ZM243.119 280.735H126.057V53.8812H243.119V280.735Z" fill="#DCEEFF"/>
<path fill-rule="evenodd" clip-rule="evenodd" d="M277.147 302.366H111.984V290.247H277.147V302.366Z" fill="#CCE3FF"/>
<path fill-rule="evenodd" clip-rule="evenodd" d="M150.391 302.366H109.48V290.247H150.391V302.366Z" fill="#B6D4FF"/>
<path d="M241.136 130.322H117.917" stroke="#DCEEFF" stroke-width="17"/>
<path d="M241.136 206.696H117.917" stroke="#DCEEFF" stroke-width="17"/>
<path fill-rule="evenodd" clip-rule="evenodd" d="M157.04 276.135C157.618 281.803 160.074 286.801 163.663 290.247H187.134C190.723 286.801 193.18 281.803 193.761 276.135H157.04Z" fill="#B6D4FF"/>
<path fill-rule="evenodd" clip-rule="evenodd" d="M157.04 264.353C158.133 275.066 165.936 283.377 175.4 283.377C184.864 283.377 192.668 275.066 193.76 264.353H157.04Z" fill="#B6D4FF"/>
<path fill-rule="evenodd" clip-rule="evenodd" d="M225.935 281.359L221.95 235.987H209.49L205.505 281.359C205.088 286.113 208.281 290.247 212.372 290.247H219.069C223.159 290.247 226.353 286.113 225.935 281.359Z" fill="#CCE3FF"/>
<path fill-rule="evenodd" clip-rule="evenodd" d="M248.895 364.288V365.005C248.895 370.993 244.919 375.844 240.019 375.844H170.49C159.765 375.844 151.512 363.821 152.992 350.348L160.841 275.282C161.521 269.065 165.71 264.439 170.66 264.439H191.267C196.213 264.439 200.401 269.065 201.085 275.282L208.935 350.348C208.995 350.884 209.037 351.421 209.063 351.952L209.105 351.944C209.105 351.944 210.557 364.288 224.053 364.288H248.895Z" fill="#DCEEFF"/>
<path fill-rule="evenodd" clip-rule="evenodd" d="M174.876 460.401C174.876 464.23 172.219 467.334 168.942 467.334C165.665 467.334 163.009 464.23 163.009 460.401C163.009 456.573 165.665 453.469 168.942 453.469C172.219 453.469 174.876 456.573 174.876 460.401Z" fill="#B6D4FF"/>
<path fill-rule="evenodd" clip-rule="evenodd" d="M229.016 461.791H170.382C168.136 461.791 166.299 459.644 166.299 457.02C166.299 454.396 168.136 452.249 170.382 452.249H229.016C231.262 452.249 233.099 454.396 233.099 457.02C233.099 459.644 231.262 461.791 229.016 461.791Z" fill="#CCE3FF"/>
<path fill-rule="evenodd" clip-rule="evenodd" d="M196.69 459.522H202.708V375.555H196.69V459.522Z" fill="#CCE3FF"/>
<path fill-rule="evenodd" clip-rule="evenodd" d="M220.317 375.555L199.699 386.526L179.081 375.555H220.317Z" fill="#CCE3FF"/>
<path fill-rule="evenodd" clip-rule="evenodd" d="M200.155 461.791H192.547C190.301 461.791 188.463 459.644 188.463 457.02C188.463 454.396 190.301 452.249 192.547 452.249H200.155C202.401 452.249 204.238 454.396 204.238 457.02C204.238 459.644 202.401 461.791 200.155 461.791Z" fill="#B6D4FF"/>
<path fill-rule="evenodd" clip-rule="evenodd" d="M195.164 460.401C195.164 464.23 192.508 467.334 189.231 467.334C185.954 467.334 183.298 464.23 183.298 460.401C183.298 456.573 185.954 453.469 189.231 453.469C192.508 453.469 195.164 456.573 195.164 460.401Z" fill="#B6D4FF"/>
<path fill-rule="evenodd" clip-rule="evenodd" d="M236.782 460.401C236.782 464.23 234.125 467.334 230.848 467.334C227.571 467.334 224.915 464.23 224.915 460.401C224.915 456.573 227.571 453.469 230.848 453.469C234.125 453.469 236.782 456.573 236.782 460.401Z" fill="#B6D4FF"/>
<path fill-rule="evenodd" clip-rule="evenodd" d="M115.193 369.202C115.193 377.137 111.068 383.57 105.979 383.57C100.891 383.57 96.7657 377.137 96.7657 369.202C96.7657 361.267 100.891 354.835 105.979 354.835C111.068 354.835 115.193 361.267 115.193 369.202Z" fill="#CCE3FF"/>
<path d="M106.048 444.666V369.933" stroke="#DCEEFF" stroke-width="9"/>
<path fill-rule="evenodd" clip-rule="evenodd" d="M96.1255 390.308C100.476 395.397 101.358 402.615 98.095 406.432C94.8318 410.248 88.6594 409.217 84.3084 404.129C79.9576 399.04 79.0759 391.821 82.3389 388.005C85.6023 384.188 91.7745 385.219 96.1255 390.308Z" fill="#CCE3FF"/>
<path fill-rule="evenodd" clip-rule="evenodd" d="M127.192 400.763C130.7 404.866 129.752 412.628 125.074 418.099C120.396 423.57 113.76 424.679 110.252 420.575" fill="#CCE3FF"/>
<path d="M122.465 407.991L106.321 426.927" stroke="#DCEEFF" stroke-width="9"/>
<path d="M117.8 389.883L106.002 403.519" stroke="#DCEEFF" stroke-width="9"/>
<path d="M93.7514 419.815L106.077 434.393" stroke="#DCEEFF" stroke-width="9"/>
<path d="M89.5027 396.481L105.979 415.98" stroke="#DCEEFF" stroke-width="9"/>
<path fill-rule="evenodd" clip-rule="evenodd" d="M110.989 470.332H101.107C93.5179 470.332 87.3084 463.069 87.3084 454.193V439.007H124.788V454.193C124.788 463.069 118.578 470.332 110.989 470.332Z" fill="#ECF6FF"/>
<path d="M124.788 447.448H87.3086" stroke="#DCEEFF" stroke-width="9"/>
<path d="M124.788 455.914H87.3086" stroke="#DCEEFF" stroke-width="9"/>
<path fill-rule="evenodd" clip-rule="evenodd" d="M448.617 76.2614C448.617 93.1584 436.894 106.856 422.433 106.856C407.972 106.856 396.249 93.1584 396.249 76.2614C396.249 59.364 407.972 45.6665 422.433 45.6665C436.894 45.6665 448.617 59.364 448.617 76.2614Z" fill="#CCE3FF"/>
<path fill-rule="evenodd" clip-rule="evenodd" d="M443.483 76.2614C443.483 93.1584 431.759 106.856 417.299 106.856C402.838 106.856 391.115 93.1584 391.115 76.2614C391.115 59.364 402.838 45.6665 417.299 45.6665C431.759 45.6665 443.483 59.364 443.483 76.2614Z" fill="#DCEEFF"/>
<path fill-rule="evenodd" clip-rule="evenodd" d="M437.141 76.2592C437.141 88.2018 429.416 98.0327 419.49 99.3069C418.77 99.3998 418.041 99.4461 417.301 99.4461C406.34 99.4461 397.457 89.0665 397.457 76.2592C397.457 63.4567 406.34 53.0767 417.301 53.0767C418.041 53.0767 418.77 53.1234 419.49 53.2163C429.416 54.4905 437.141 64.3214 437.141 76.2592Z" fill="#CCE3FF"/>
<path fill-rule="evenodd" clip-rule="evenodd" d="M437.141 76.2592C437.141 88.2018 429.416 98.0327 419.49 99.3069C409.56 98.0327 401.835 88.2018 401.835 76.2592C401.835 64.3214 409.56 54.4905 419.49 53.2163C429.416 54.4905 437.141 64.3214 437.141 76.2592Z" fill="#ECF6FF"/>
<path d="M418.159 63.3684L424.589 79.7526" stroke="#CCE3FF" stroke-width="8"/>
<path d="M425.201 72.8838L411.118 90.7704" stroke="#CCE3FF" stroke-width="8"/>
<path d="M178.741 211.866C164.789 214.14 170.635 232.917 174.556 243.055C179.159 254.955 175.127 262.934 175.127 262.934L153.56 253.987C161.475 242.224 152.734 235.674 154.886 221.649C156.816 209.069 167.294 203.393 173.915 203.661C177.22 203.794 179.924 204.789 182.065 206.064C182.146 206.112 182.224 206.164 182.298 206.219C186.209 201.526 191.623 198.721 197.88 198.721C210.748 198.721 222.309 210.584 222.309 226.335C222.309 242.086 211.878 254.855 199.01 254.855C186.142 254.855 175.711 242.086 175.711 226.335C175.711 220.951 176.797 216.022 178.741 211.866Z" fill="#19141E"/>
<path fill-rule="evenodd" clip-rule="evenodd" d="M201.286 255.608C201.286 255.608 196.501 255.773 194.462 254.472L201.032 259.291L201.286 255.608Z" fill="#F395BA"/>
<path d="M219.123 234.537C218.406 241.023 216.544 250.164 211.949 253.734C209.511 255.628 205.07 255.862 201.285 255.607L200.419 268.167L188.068 262.226C188.068 262.226 189.256 248.365 189.77 243.051C187.287 240.422 183.058 239.203 183.05 234.737C183.05 233.189 183.824 230.513 186.68 230.504C190.514 230.5 189.966 235.869 189.966 235.869C190.441 236.085 190.917 236.073 191.392 235.875C195.188 235.69 205.746 233.833 212.924 219.501C213.762 224.325 215.503 230.338 219.123 234.537Z" fill="#F395BA"/>
<path fill-rule="evenodd" clip-rule="evenodd" d="M211.687 235.857L214.425 243.614L211.249 243.54L211.687 235.857Z" fill="#EB5757"/>
<path fill-rule="evenodd" clip-rule="evenodd" d="M208.772 236.194C208.704 237.743 207.924 238.95 207.03 238.89C206.136 238.83 205.466 237.525 205.535 235.976C205.603 234.426 206.383 233.219 207.277 233.279C208.171 233.339 208.84 234.645 208.772 236.194Z" fill="#0D0B6D"/>
<path fill-rule="evenodd" clip-rule="evenodd" d="M217.167 235.946C217.098 237.496 216.318 238.703 215.424 238.643C214.53 238.583 213.861 237.278 213.929 235.728C213.998 234.179 214.777 232.971 215.671 233.031C216.565 233.092 217.235 234.397 217.167 235.946Z" fill="#0D0B6D"/>
<path d="M210.469 247.255C210.469 247.255 208.4 248.036 206.325 245.341" stroke="#1C295E" stroke-width="3"/>
<path opacity="0.402786" fill-rule="evenodd" clip-rule="evenodd" d="M201.278 255.608C201.278 255.608 196.494 255.773 194.454 254.471L201.024 259.291L201.278 255.608Z" fill="black"/>
<path fill-rule="evenodd" clip-rule="evenodd" d="M182.052 326.133L179.496 326.089C179.496 326.089 179.499 326.042 179.503 325.943C180.383 326.016 181.235 326.076 182.052 326.133Z" fill="#C83820"/>
<path d="M234.152 358.508L225.711 359.744L212.117 334.901L211.621 326.643L190.911 326.284L182.071 326.133H182.052C181.235 326.076 180.383 326.016 179.503 325.943C168.369 325.035 152.943 322.505 151.884 315.501C149.964 302.815 164.491 278.197 166.208 275.344C166.315 275.167 166.37 275.071 166.37 275.071C168.805 271.007 171.255 267.847 173.542 266.165C177.99 262.892 182.16 262.174 186.123 262.187L187.184 253.198L203.351 255.805L202.47 263.277C207.218 263.809 210.448 264.893 213.471 268.136C223.177 278.548 223.891 317.542 223.891 317.542L234.152 358.508Z" fill="#CE3D29"/>
<path fill-rule="evenodd" clip-rule="evenodd" d="M190.911 326.284V326.457C190.911 326.457 187.203 326.466 182.071 326.133L190.911 326.284Z" fill="#C83820"/>
<path opacity="0.201149" d="M211.323 326.543C212.51 308.927 220.727 305.202 214.806 285.447" stroke="black" stroke-width="3"/>
<path fill-rule="evenodd" clip-rule="evenodd" d="M225.301 348.336L194.427 344.178C193.416 344.041 192.75 342.88 193.028 341.736L205.226 291.376C205.447 290.465 206.2 289.877 207.004 289.985L237.878 294.143C238.889 294.279 239.555 295.441 239.278 296.585L227.079 346.944C226.858 347.855 226.105 348.444 225.301 348.336Z" fill="#18181C"/>
<path d="M197.885 329.516C197.944 329.534 198.004 329.553 198.064 329.573C200.209 330.257 202.401 330.671 205.451 330.201C207.412 329.902 209.098 329.51 209.079 329.144C209.025 328.22 208.073 328.013 208.073 328.013L206.242 328.116L204.48 327.994C204.48 327.994 212.575 326.205 212.575 325.928C212.55 324.952 211.221 324.557 211.221 324.557C211.221 324.557 214.005 324.039 213.973 323.522C213.897 322.206 212.654 322.106 212.654 322.106C212.654 322.106 212.999 321.758 212.964 321.437C212.828 320.139 210.848 319.925 209.905 319.766C209.905 319.766 206.697 319.715 205.742 319.437C203.229 318.704 201.734 318.049 200.795 317.502L207.064 291.623C207.285 290.713 208.038 290.124 208.842 290.232L239.716 294.39C240.727 294.526 241.393 295.688 241.115 296.832L228.917 347.192C228.696 348.102 227.944 348.691 227.139 348.583L196.265 344.425C195.254 344.288 194.588 343.127 194.865 341.983L197.885 329.516Z" fill="#FCBDA4"/>
<path fill-rule="evenodd" clip-rule="evenodd" d="M212.575 325.928C212.55 324.952 211.221 324.557 211.221 324.557C211.221 324.557 214.005 324.039 213.973 323.522C213.897 322.206 212.654 322.106 212.654 322.106C212.654 322.106 212.999 321.759 212.964 321.437C212.838 320.235 211.13 319.962 210.13 319.803C210.05 319.79 209.974 319.778 209.905 319.766C209.905 319.766 206.697 319.715 205.742 319.437C200.977 318.047 199.87 316.939 199.285 316.314C199.267 316.295 199.25 316.276 199.233 316.258C199.185 316.206 199.14 316.158 199.095 316.115C199.128 316.073 199.165 316.003 199.204 315.931C199.259 315.828 199.317 315.72 199.371 315.675L200.185 312.189C199.589 312.264 199.006 312.288 198.429 312.311C197.619 312.344 196.819 312.376 196.008 312.551C193.796 313.027 192.487 313.627 192.487 313.627L189.665 314.754L187.618 323.603C188.393 324.409 190.25 325.998 191.509 326.8C193.941 328.348 195.012 328.663 196.656 329.146C196.932 329.227 197.224 329.313 197.542 329.41C197.578 329.421 197.614 329.433 197.651 329.444C197.785 329.484 197.922 329.526 198.064 329.573C200.209 330.257 202.401 330.671 205.45 330.201C207.412 329.902 209.098 329.51 209.079 329.144C209.025 328.22 208.073 328.013 208.073 328.013L206.242 328.116L204.48 327.994C204.48 327.994 212.575 326.205 212.575 325.928ZM238.652 365.304C238.308 364.514 235.945 361.198 234.005 358.529L225.926 359.712C225.001 366.088 228.845 375.199 228.845 375.199C228.845 375.199 226.845 373.774 226.448 375.02C226.27 375.575 225.869 380.006 233.358 380.304C234.154 380.336 236.066 378.446 236.066 378.446C236.066 378.446 234.672 381.558 236.807 382.169C236.807 382.169 240.249 376.143 240.302 374.803C240.354 373.462 239.25 366.675 238.652 365.304Z" fill="#F395BA"/>
<path opacity="0.148065" d="M230.374 363.039C230.374 363.039 231.425 367.678 235.031 369.123C236.293 369.629 235.978 375.595 239.068 374.882" stroke="black" stroke-width="3"/>
<path fill-rule="evenodd" clip-rule="evenodd" d="M210.201 294.924C209.958 295.816 209.439 296.42 209.042 296.272C208.645 296.125 208.521 295.282 208.764 294.389C209.007 293.496 209.526 292.892 209.923 293.04C210.32 293.188 210.444 294.031 210.201 294.924Z" fill="#020101"/>
<path opacity="0.200498" d="M179.102 288.94L171.31 304.017L190.685 312.975" stroke="black" stroke-width="3"/>
<path fill-rule="evenodd" clip-rule="evenodd" d="M294.185 407.131L290.37 398.358L281.189 399.974L293.677 423.895L321.07 402.652C311.642 400.195 294.185 407.131 294.185 407.131ZM251.289 453.372L252.244 443.632L243.854 439.08L242.614 466.977L275.737 466.91C269.057 458.815 251.289 453.372 251.289 453.372Z" fill="#0D0B6D"/>
<path fill-rule="evenodd" clip-rule="evenodd" d="M291.336 399.602L282.031 401.873L287.389 411.916L295.104 406.421L291.336 399.602ZM252.253 445.619L243.452 441.532L243.182 453.318L252.178 453.705L252.253 445.619Z" fill="#F395BA"/>
<path d="M265.554 390.298L260.999 448.071H239.9L240.837 364.188L200.565 364.512C189.077 364.512 177.965 352.984 178.762 339.586L180.014 325.945L241.514 304.715C252.9 301.707 256.847 305.681 264.228 321.034L296.818 399.091L278.915 413.071L265.554 390.298Z" fill="#2F2F3D"/>
<path opacity="0.150484" fill-rule="evenodd" clip-rule="evenodd" d="M246.652 330.912L200.565 364.513L240.837 364.188L239.9 448.072H260.998L268.232 356.332C270.016 339.64 261.076 330.912 246.652 330.912Z" fill="#18181C"/>
<path fill-rule="evenodd" clip-rule="evenodd" d="M860.314 440.753C860.314 440.753 843.291 484.695 841.258 532.471C841.258 532.471 850.786 484.056 860.314 440.753Z" fill="#DCEEFF"/>
<path fill-rule="evenodd" clip-rule="evenodd" d="M829.856 474.521C829.856 474.521 842.108 474.894 843.974 522.671C843.974 522.671 838.745 486.612 829.856 474.521Z" fill="#DCEEFF"/>
<path fill-rule="evenodd" clip-rule="evenodd" d="M842.368 426.433C842.368 426.433 849.52 476.981 842.48 528.417C842.48 528.417 842.898 474.696 842.368 426.433Z" fill="#DCEEFF"/>
<path fill-rule="evenodd" clip-rule="evenodd" d="M852.016 541.943H834.326C834.194 541.943 834.061 541.94 833.929 541.935C825.863 541.582 821.376 529.65 825.944 521.041L829.996 513.405H856.346L860.398 521.041C864.966 529.65 860.479 541.582 852.413 541.935C852.281 541.94 852.149 541.943 852.016 541.943Z" fill="#ECF6FF"/>
<path d="M824.116 530.968H862.226" stroke="#B6D4FF" stroke-width="9"/>
<path d="M825.001 523.588H861.465" stroke="#B6D4FF" stroke-width="9"/>
<path fill-rule="evenodd" clip-rule="evenodd" d="M776.932 468.239C777.848 475.491 774.734 481.676 774.734 481.676C774.734 481.676 770.135 476.104 769.219 468.851C768.303 461.6 771.417 455.414 771.417 455.414C771.417 455.414 776.016 460.987 776.932 468.239Z" fill="#E9F6FF"/>
<path fill-rule="evenodd" clip-rule="evenodd" d="M775.592 472.976C779.689 479.5 779.54 486.159 779.54 486.159C779.54 486.159 772.75 482.241 768.653 475.717C764.556 469.193 764.704 462.534 764.704 462.534C764.704 462.534 771.495 466.452 775.592 472.976Z" fill="#E9F6FF"/>
<path fill-rule="evenodd" clip-rule="evenodd" d="M780.735 469.027C779.647 476.265 774.916 481.767 774.916 481.767C774.916 481.767 771.95 475.536 773.038 468.299C774.126 461.062 778.857 455.56 778.857 455.56C778.857 455.56 781.823 461.79 780.735 469.027Z" fill="#E9F6FF"/>
<path fill-rule="evenodd" clip-rule="evenodd" d="M784.147 474.27C780.719 481.032 774.343 485.367 774.343 485.367C774.343 485.367 773.526 478.738 776.955 471.976C780.383 465.214 786.759 460.879 786.759 460.879C786.759 460.879 787.575 467.508 784.147 474.27Z" fill="#E9F6FF"/>
<path fill-rule="evenodd" clip-rule="evenodd" d="M807.976 495.849C807.976 510.178 793.559 521.795 775.774 521.795C757.989 521.795 743.572 510.178 743.572 495.849C743.572 481.518 757.989 469.902 775.774 469.902C793.559 469.902 807.976 481.518 807.976 495.849Z" fill="#CCE3FF"/>
<path fill-rule="evenodd" clip-rule="evenodd" d="M795.72 542.102H759.092C753.471 542.102 748.914 536.772 748.914 530.197V528.146C748.914 521.571 753.471 516.241 759.092 516.241H795.72C801.341 516.241 805.898 521.571 805.898 528.146V530.197C805.898 536.772 801.341 542.102 795.72 542.102Z" fill="#DCEEFF"/>
<path d="M757.373 477.538L751.437 472.158" stroke="#B6D4FF" stroke-width="9"/>
<path d="M748.914 505.377L743.572 509.656" stroke="#B6D4FF" stroke-width="9"/>
<path d="M764.44 503.043L773.659 504.792" stroke="#B6D4FF" stroke-width="9"/>
<path d="M788.015 476.663L793.581 468.663" stroke="#B6D4FF" stroke-width="9"/>
<path d="M798.182 485.367L804.266 480.835" stroke="#B6D4FF" stroke-width="9"/>
<path d="M799.369 508.778L805.157 513.117" stroke="#B6D4FF" stroke-width="9"/>
<path d="M767.117 487.159L764.363 479.713" stroke="white" stroke-width="9"/>
<path d="M793.462 495.28L786.844 498.944" stroke="white" stroke-width="9"/>
<path d="M761.449 491.021L755.148 486.146" stroke="white" stroke-width="9"/>
<path d="M748.914 526.573L760.31 531.77L771.707 526.573L783.103 531.77L794.501 526.573L805.898 531.77" stroke="#B6D4FF" stroke-width="9"/>
<path fill-rule="evenodd" clip-rule="evenodd" d="M488.603 316.48H602.606V118.989H488.603V316.48Z" fill="#DCEEFF"/>
<path fill-rule="evenodd" clip-rule="evenodd" d="M488.603 316.48H602.606V118.989H488.603V316.48Z" stroke="#DCEEFF" stroke-width="9"/>
<path fill-rule="evenodd" clip-rule="evenodd" d="M382.779 316.48H596.436V118.989H382.779V316.48Z" fill="white"/>
<path fill-rule="evenodd" clip-rule="evenodd" d="M382.779 316.48H596.436V118.989H382.779V316.48Z" stroke="#DCEEFF" stroke-width="9"/>
<path fill-rule="evenodd" clip-rule="evenodd" d="M402.445 294.995H576.77V140.474H402.445V294.995Z" fill="white"/>
<path fill-rule="evenodd" clip-rule="evenodd" d="M402.445 294.995H576.769V140.474H402.445V294.995Z" stroke="#DCEEFF" stroke-width="9"/>
<path fill-rule="evenodd" clip-rule="evenodd" d="M402.307 297.642H576.889V137.57H402.307V297.642Z" fill="#B6D4FF"/>
<path fill-rule="evenodd" clip-rule="evenodd" d="M363.986 417.211V417.906C363.986 423.707 359.575 428.406 354.138 428.406H277.003C265.104 428.406 255.948 416.758 257.59 403.708L266.299 330.989C267.053 324.966 271.7 320.485 277.191 320.485H300.052C305.54 320.485 310.187 324.966 310.945 330.989L319.654 403.708C319.72 404.227 319.767 404.746 319.795 405.261L319.842 405.253C319.842 405.253 321.453 417.211 336.426 417.211H363.986Z" fill="#DCEEFF"/>
<path fill-rule="evenodd" clip-rule="evenodd" d="M281.937 510.426C281.937 514.11 279.019 517.097 275.419 517.097C271.819 517.097 268.901 514.11 268.901 510.426C268.901 506.742 271.819 503.754 275.419 503.754C279.019 503.754 281.937 506.742 281.937 510.426Z" fill="#B6D4FF"/>
<path fill-rule="evenodd" clip-rule="evenodd" d="M341.826 511.996H276.875C274.387 511.996 272.352 509.876 272.352 507.286C272.352 504.697 274.387 502.577 276.875 502.577H341.826C344.314 502.577 346.349 504.697 346.349 507.286C346.349 509.876 344.314 511.996 341.826 511.996Z" fill="#CCE3FF"/>
<path fill-rule="evenodd" clip-rule="evenodd" d="M306.092 509.641H312.61V428.406H306.092V509.641Z" fill="#CCE3FF"/>
<path fill-rule="evenodd" clip-rule="evenodd" d="M332.164 428.406L309.351 439.002L286.538 428.406H332.164Z" fill="#CCE3FF"/>
<path fill-rule="evenodd" clip-rule="evenodd" d="M309.962 511.996H301.456C298.944 511.996 296.89 509.876 296.89 507.286C296.89 504.697 298.944 502.577 301.456 502.577H309.962C312.472 502.577 314.527 504.697 314.527 507.286C314.527 509.876 312.472 511.996 309.962 511.996Z" fill="#B6D4FF"/>
<path fill-rule="evenodd" clip-rule="evenodd" d="M304.174 510.426C304.174 514.11 301.256 517.097 297.657 517.097C294.056 517.097 291.139 514.11 291.139 510.426C291.139 506.742 294.056 503.754 297.657 503.754C301.256 503.754 304.174 506.742 304.174 510.426Z" fill="#B6D4FF"/>
<path fill-rule="evenodd" clip-rule="evenodd" d="M350.184 510.426C350.184 514.11 347.266 517.097 343.666 517.097C340.066 517.097 337.148 514.11 337.148 510.426C337.148 506.742 340.066 503.754 343.666 503.754C347.266 503.754 350.184 506.742 350.184 510.426Z" fill="#B6D4FF"/>
<path d="M315.748 320.293L315.397 306.156C315.397 306.156 330.123 307.524 333.274 305.615C333.274 305.615 336.385 282.342 332.439 269.161L301.362 264.92L299.092 286.039C298.045 282.437 289.934 278.037 287.675 283.195C282.781 294.371 300.281 301.897 300.281 301.897L298.504 320.463" fill="#F395BA"/>
<path d="M300.186 287.284C297.223 282.539 293.386 281.225 292.327 280.943C291.036 274.187 289.52 256.7 307.594 253.926C329.173 250.614 332.439 269.161 332.439 269.161L304.642 268.763V285.985L300.186 287.284Z" fill="#FCBDA4"/>
<path opacity="0.402158" fill-rule="evenodd" clip-rule="evenodd" d="M315.397 306.156L305.467 303.672L315.349 311.46L315.397 306.156Z" fill="black"/>
<path fill-rule="evenodd" clip-rule="evenodd" d="M323.588 283.054L327.02 292.84L322.907 292.902L323.588 283.054Z" fill="#EB5757"/>
<path fill-rule="evenodd" clip-rule="evenodd" d="M319.676 285.835C319.88 287.153 319.13 288.415 318.001 288.653C316.871 288.891 315.789 288.016 315.585 286.699C315.381 285.381 316.131 284.119 317.26 283.881C318.39 283.643 319.471 284.517 319.676 285.835Z" fill="#0D0B6D"/>
<path fill-rule="evenodd" clip-rule="evenodd" d="M330.468 285.835C330.673 287.153 329.922 288.415 328.793 288.653C327.663 288.891 326.582 288.016 326.377 286.699C326.173 285.381 326.923 284.119 328.053 283.881C329.183 283.643 330.264 284.517 330.468 285.835Z" fill="#0D0B6D"/>
<path fill-rule="evenodd" clip-rule="evenodd" d="M319.321 295.673C319.321 295.673 320.759 298.392 323.606 298.161L319.321 295.673Z" fill="white"/>
<path d="M319.321 295.673C319.321 295.673 320.759 298.392 323.606 298.161" stroke="#252535" stroke-width="4"/>
<path d="M341.888 350.722L334.315 354.836L332.441 387.101H280.182L279.305 354.548L262.781 341.903C262.781 341.903 270.574 325.913 283.907 319.549C287.38 317.894 291.75 317.014 296.116 316.594C304.871 315.751 313.599 316.73 315.017 316.906L315.218 316.93C315.465 317.006 315.713 317.082 315.952 317.158C315.956 317.158 315.961 317.162 315.964 317.162C316.672 317.386 317.34 317.602 317.976 317.814C326.822 320.776 329.62 323.174 334.575 330.274C339.286 337.022 341.888 350.722 341.888 350.722Z" fill="#35BBCA"/>
<path opacity="0.200219" d="M279.305 354.547L283.496 357.449L293.573 345.477" stroke="black" stroke-width="5"/>
<path fill-rule="evenodd" clip-rule="evenodd" d="M320.538 377.678C320.538 377.678 322.189 378.106 322.22 379.162C322.22 379.461 312.164 381.396 312.164 381.396L314.353 381.528L316.629 381.416C316.629 381.416 317.811 381.64 317.878 382.639C317.901 383.035 315.807 383.459 313.371 383.783C309.582 384.29 306.859 383.843 304.195 383.103C303.971 383.039 303.755 382.983 303.547 382.927L305.712 368.764C306.439 369.439 307.814 370.639 313.732 372.142C314.919 372.441 318.903 372.497 318.903 372.497C320.074 372.669 322.534 372.901 322.704 374.304C322.747 374.652 322.318 375.028 322.318 375.028C322.318 375.028 323.863 375.136 323.957 376.559C323.997 377.119 320.538 377.678 320.538 377.678Z" fill="#18181C"/>
<path fill-rule="evenodd" clip-rule="evenodd" d="M337.678 397.403H301.12L309.318 346.069H345.876L337.678 397.403Z" fill="#18181C"/>
<path fill-rule="evenodd" clip-rule="evenodd" d="M339.642 397.403H303.085L311.283 346.069H347.841L339.642 397.403Z" fill="#5E93D1"/>
<path fill-rule="evenodd" clip-rule="evenodd" d="M296.116 316.594C297.405 318.661 301.464 323.814 310.176 324.338C320.581 324.957 318.22 318.433 317.976 317.814C317.961 317.782 317.953 317.766 317.953 317.766C317.953 317.766 317.178 317.502 315.964 317.162C315.962 317.162 315.961 317.161 315.959 317.16C315.956 317.159 315.954 317.158 315.952 317.158C315.666 317.078 315.352 316.994 315.017 316.906C313.599 316.73 304.871 315.751 296.116 316.594ZM294.73 366.74L297.267 365.857C297.267 365.857 298.894 365.21 301.641 364.694C302.656 364.504 303.507 364.469 304.398 364.434H304.398C305.021 364.409 305.663 364.383 306.396 364.302L305.791 368.256C305.677 368.34 305.574 368.44 305.476 368.548C305.532 368.595 305.587 368.647 305.648 368.704C305.669 368.723 305.69 368.743 305.712 368.764C306.439 369.439 307.814 370.639 313.733 372.142C314.919 372.441 318.903 372.497 318.903 372.497C318.99 372.51 319.084 372.523 319.184 372.537L319.184 372.537C320.427 372.71 322.547 373.005 322.704 374.304C322.747 374.652 322.318 375.028 322.318 375.028C322.318 375.028 323.863 375.136 323.957 376.559C323.997 377.119 320.538 377.678 320.538 377.678C320.538 377.678 322.189 378.106 322.22 379.162C322.22 379.461 312.164 381.396 312.164 381.396L314.353 381.528L316.629 381.416C316.629 381.416 317.811 381.64 317.878 382.639C317.901 383.035 315.807 383.459 313.371 383.783C309.582 384.29 306.859 383.843 304.195 383.103C304.032 383.057 303.873 383.014 303.718 382.973C303.661 382.958 303.603 382.942 303.547 382.927C303.153 382.822 302.79 382.729 302.447 382.642L302.446 382.641C300.404 382.119 299.074 381.779 296.053 380.105C295.726 379.924 295.367 379.706 294.995 379.466C285.939 380.34 258.489 382.491 255.737 376.738C250.297 365.36 264.616 343.341 264.616 343.341L280.466 354.618L275.429 363.322L294.73 366.74ZM331.131 395.639H339.548L341.437 383.816L345.307 400.638C347.696 403.426 350.453 406.716 350.87 407.527C351.626 408.995 353.025 416.268 352.958 417.705C352.891 419.141 348.535 425.598 348.535 425.598C345.832 424.942 347.597 421.608 347.597 421.608C347.597 421.608 345.177 423.634 344.17 423.6C334.691 423.28 335.199 418.532 335.424 417.938C335.927 416.602 338.457 418.129 338.457 418.129C338.457 418.129 334.063 409.31 334.632 402.57C333.648 400.679 332.437 398.305 331.131 395.639Z" fill="#F395BA"/>
<path opacity="0.199382" d="M340.486 406.863C340.486 406.863 341.816 411.833 346.381 413.382C347.977 413.924 347.578 420.317 351.491 419.552" stroke="black" stroke-width="3"/>
<path fill-rule="evenodd" clip-rule="evenodd" d="M314.697 350.21C314.533 351.06 314.049 351.679 313.614 351.593C313.181 351.506 312.961 350.747 313.124 349.897C313.288 349.047 313.772 348.428 314.207 348.515C314.641 348.601 314.86 349.36 314.697 350.21Z" fill="#020101"/>
<path fill-rule="evenodd" clip-rule="evenodd" d="M396.359 504.891L396.469 494.579L384.303 487.881L382.537 517.361H424.688C417.516 508.532 396.359 504.891 396.359 504.891ZM328.858 504.483L328.975 492.217L315.836 491.536L314.64 503.804L311.585 517.263H342.136C338.295 505.829 328.858 504.483 328.858 504.483Z" fill="#0D0B6D"/>
<path fill-rule="evenodd" clip-rule="evenodd" d="M328.974 492.217L316.09 487.986L314.64 503.804L328.858 504.482L328.974 492.217ZM396.468 494.578L384.302 490.584L383.321 504.25L396.359 504.891L396.468 494.578Z" fill="#F395BA"/>
<path fill-rule="evenodd" clip-rule="evenodd" d="M314.902 386.114H279.253V395.797C279.253 407.831 288.903 417.586 300.807 417.586H311.38H316.523L312.773 498.932H334.934L343.175 417.586H381.671L380.633 498.932H403.173L413.819 415.493C415.725 399.891 403.801 386.114 388.392 386.114H327.634H314.902Z" fill="#19141E"/>
<path opacity="0.101632" fill-rule="evenodd" clip-rule="evenodd" d="M279.253 386.114H327.634C337.628 386.114 345.443 394.829 344.462 404.884L334.935 498.932H312.773L316.523 417.586H300.807C288.903 417.586 279.253 407.831 279.253 395.797V386.114Z" fill="white"/>
<path fill-rule="evenodd" clip-rule="evenodd" d="M223.494 438.451V439.217C223.494 445.608 219.237 450.785 213.991 450.785H139.547C128.064 450.785 119.227 437.953 120.812 423.575L129.216 343.46C129.944 336.824 134.429 331.887 139.729 331.887H161.792C167.088 331.887 171.573 336.824 172.305 343.46L180.71 423.575C180.774 424.147 180.819 424.719 180.846 425.287L180.891 425.277C180.891 425.277 182.446 438.451 196.897 438.451H223.494Z" fill="#DCEEFF"/>
<path fill-rule="evenodd" clip-rule="evenodd" d="M144.309 541.148C144.309 545.207 141.492 548.498 138.019 548.498C134.544 548.498 131.728 545.207 131.728 541.148C131.728 537.089 134.544 533.798 138.019 533.798C141.492 533.798 144.309 537.089 144.309 541.148Z" fill="#B6D4FF"/>
<path fill-rule="evenodd" clip-rule="evenodd" d="M202.108 542.877H139.424C137.023 542.877 135.059 540.543 135.059 537.689C135.059 534.836 137.023 532.501 139.424 532.501H202.108C204.509 532.501 206.473 534.836 206.473 537.689C206.473 540.543 204.509 542.877 202.108 542.877Z" fill="#CCE3FF"/>
<path fill-rule="evenodd" clip-rule="evenodd" d="M167.621 540.283H173.911V450.785H167.621V540.283Z" fill="#CCE3FF"/>
<path fill-rule="evenodd" clip-rule="evenodd" d="M192.782 450.785L170.766 462.459L148.749 450.785H192.782Z" fill="#CCE3FF"/>
<path fill-rule="evenodd" clip-rule="evenodd" d="M171.355 542.877H163.146C160.723 542.877 158.74 540.543 158.74 537.689C158.74 534.836 160.723 532.501 163.146 532.501H171.355C173.778 532.501 175.761 534.836 175.761 537.689C175.761 540.543 173.778 542.877 171.355 542.877Z" fill="#B6D4FF"/>
<path fill-rule="evenodd" clip-rule="evenodd" d="M165.77 541.148C165.77 545.207 162.954 548.498 159.48 548.498C156.006 548.498 153.19 545.207 153.19 541.148C153.19 537.089 156.006 533.798 159.48 533.798C162.954 533.798 165.77 537.089 165.77 541.148Z" fill="#B6D4FF"/>
<path fill-rule="evenodd" clip-rule="evenodd" d="M210.173 541.148C210.173 545.207 207.357 548.498 203.883 548.498C200.408 548.498 197.592 545.207 197.592 541.148C197.592 537.089 200.408 533.798 203.883 533.798C207.357 533.798 210.173 537.089 210.173 541.148Z" fill="#B6D4FF"/>
<path d="M612.493 213.042C612.486 213.337 612.483 213.633 612.483 213.93C612.482 214.144 612.482 214.352 612.486 214.566L612.482 214.566L612.473 221.404L612.409 271.653L670.285 271.754L670.358 214.666L670.288 214.666C670.335 213.885 670.36 213.097 670.361 212.302C670.37 204.637 668.195 197.564 664.521 191.887C671.217 189.878 676.171 182.786 676.181 174.336C676.194 164.313 669.249 156.176 660.668 156.161C652.088 156.146 645.121 164.259 645.109 174.281C645.107 175.84 645.273 177.354 645.588 178.798C644.241 178.571 642.865 178.453 641.466 178.451C625.484 178.422 612.509 193.533 612.485 212.201C612.484 212.482 612.487 212.763 612.493 213.042Z" fill="#19141E"/>
<path d="M641.66 212.205C641.183 212.38 640.691 212.53 640.185 212.653C639.775 212.755 639.359 212.836 638.932 212.898C638.246 213.005 637.538 213.055 636.82 213.053C632.266 213.046 628.292 210.898 626.164 207.712C626.052 208.22 625.924 208.719 625.779 209.209C625.701 209.459 625.622 209.718 625.531 209.966C624.961 211.644 624.201 213.198 623.285 214.584C622.008 216.513 620.425 218.12 618.628 219.292C619.435 226.036 621.414 235.106 626.069 238.724C628.631 240.714 633.289 240.959 637.256 240.691L638.168 253.858C638.168 253.858 644.608 250.576 648.295 248.145C648.932 247.728 649.483 247.334 649.906 246.985C649.836 246.209 649.677 244.405 649.475 242.151V242.142C649.11 238.084 648.613 232.566 648.287 228.93C650.461 225.081 656.381 224.215 656.388 218.801C656.388 217.178 655.577 214.371 652.58 214.367C648.559 214.358 649.13 219.989 649.13 219.989C646.852 221.025 644.138 216.994 641.66 212.205Z" fill="#F395BA"/>
<path fill-rule="evenodd" clip-rule="evenodd" d="M626.344 221.679L623.472 229.813L626.804 229.735L626.344 221.679Z" fill="#405FD3"/>
<path fill-rule="evenodd" clip-rule="evenodd" d="M629.402 222.031C629.474 223.656 630.292 224.922 631.23 224.859C632.168 224.796 632.87 223.428 632.798 221.803C632.727 220.178 631.909 218.911 630.971 218.975C630.033 219.038 629.331 220.406 629.402 222.031Z" fill="#0D0B6D"/>
<path fill-rule="evenodd" clip-rule="evenodd" d="M620.596 221.772C620.668 223.396 621.486 224.663 622.424 224.6C623.361 224.537 624.064 223.168 623.992 221.543C623.92 219.918 623.103 218.652 622.165 218.715C621.227 218.778 620.525 220.147 620.596 221.772Z" fill="#0D0B6D"/>
<path d="M627.622 233.631C627.622 233.631 629.793 234.45 631.969 231.624" stroke="#1C295E" stroke-width="3"/>
<path opacity="0.401344" fill-rule="evenodd" clip-rule="evenodd" d="M637.258 240.69C637.258 240.69 642.276 240.863 644.416 239.498L637.524 244.553L637.258 240.69Z" fill="black"/>
<path fill-rule="evenodd" clip-rule="evenodd" d="M623.38 549.384L622.448 539.882L630.636 535.441L631.485 562.658L599.52 562.593C606.039 554.694 623.38 549.384 623.38 549.384ZM670.971 537.286L680.031 537.515L679.939 549.612C679.939 549.612 688.68 551.382 691.708 562.658H668.983L669.968 549.072L670.971 537.286Z" fill="#0D0B6D"/>
<path fill-rule="evenodd" clip-rule="evenodd" d="M669.988 537.958L678.826 534.331L680.009 549.072L670.038 549.612L669.988 537.958ZM622.235 541.496L630.824 537.508L631.088 549.008L622.308 549.385L622.235 541.496Z" fill="#F395BA"/>
<path d="M681.977 539.929C681.572 525.189 678.956 432.077 676.267 376.68C674.405 338.284 660.464 317.144 657.848 313.491H624.632C624.571 313.982 620.1 350.95 619.282 428.305C618.547 497.58 619.305 535.445 619.399 539.898L619.399 539.901L618.338 539.899L618.332 545.863L635.532 545.895L635.539 539.931L634.946 539.93L634.946 539.929L643.68 418.703L646.296 382.421L666.155 539.898L666.155 539.899L665.296 539.898L665.596 545.862L683.404 545.895L683.104 539.932L681.977 539.93L681.977 539.929Z" fill="#2F2F3D"/>
<path opacity="0.398065" fill-rule="evenodd" clip-rule="evenodd" d="M646.296 382.422L642.722 346.929L643.681 418.702L646.296 382.422Z" fill="#0A0A0F"/>
<path fill-rule="evenodd" clip-rule="evenodd" d="M655.608 313.804L658.291 313.759C658.291 313.759 658.287 313.709 658.283 313.605C657.359 313.682 656.466 313.745 655.608 313.804Z" fill="#C83820"/>
<path d="M600.955 347.755L609.809 349.051L624.07 322.999L624.591 314.339L646.316 313.963L655.589 313.804H655.608C656.466 313.745 657.359 313.682 658.283 313.605C669.963 312.653 686.145 310 687.255 302.655C689.27 289.352 674.03 263.536 672.229 260.543C672.117 260.357 672.059 260.257 672.059 260.257C669.505 255.995 666.935 252.681 664.536 250.917C659.87 247.485 655.496 246.732 651.338 246.746L650.225 237.32L633.266 240.053L634.19 247.889C629.209 248.446 625.821 249.584 622.65 252.984C612.468 263.903 611.719 304.795 611.719 304.795L600.955 347.755Z" fill="#FE7A15"/>
<path fill-rule="evenodd" clip-rule="evenodd" d="M646.316 313.963V314.144C646.316 314.144 650.205 314.153 655.589 313.804L646.316 313.963Z" fill="#C83820"/>
<path opacity="0.201149" d="M624.903 314.234C623.657 295.761 615.038 291.855 621.249 271.138" stroke="black" stroke-width="3"/>
<path fill-rule="evenodd" clip-rule="evenodd" d="M610.239 337.088L642.627 332.727C643.688 332.584 644.386 331.366 644.095 330.166L631.298 277.355C631.067 276.401 630.277 275.783 629.433 275.896L597.046 280.257C595.986 280.4 595.287 281.618 595.578 282.818L608.374 335.629C608.606 336.584 609.396 337.201 610.239 337.088Z" fill="#18181C"/>
<path d="M638.999 317.352C638.937 317.371 638.875 317.391 638.812 317.412C636.562 318.129 634.262 318.563 631.063 318.071C629.005 317.756 627.236 317.346 627.256 316.962C627.313 315.993 628.312 315.776 628.312 315.776L630.233 315.884L632.082 315.757C632.082 315.757 623.589 313.88 623.589 313.59C623.616 312.566 625.01 312.152 625.01 312.152C625.01 312.152 622.089 311.609 622.123 311.066C622.202 309.686 623.506 309.582 623.506 309.582C623.506 309.582 623.144 309.217 623.181 308.88C623.324 307.519 625.401 307.294 626.39 307.128C626.39 307.128 629.755 307.074 630.757 306.783C633.393 306.014 634.962 305.327 635.946 304.754L629.37 277.615C629.139 276.66 628.349 276.043 627.505 276.156L595.118 280.517C594.057 280.659 593.359 281.877 593.65 283.077L606.446 335.888C606.678 336.843 607.467 337.461 608.311 337.347L640.698 332.987C641.759 332.844 642.458 331.626 642.167 330.426L638.999 317.352Z" fill="#F8D90F"/>
<path fill-rule="evenodd" clip-rule="evenodd" d="M623.589 313.59C623.616 312.567 625.01 312.152 625.01 312.152C625.01 312.152 622.089 311.609 622.123 311.066C622.202 309.687 623.506 309.582 623.506 309.582C623.506 309.582 623.144 309.217 623.181 308.88C623.313 307.62 625.105 307.334 626.154 307.166C626.238 307.153 626.317 307.14 626.39 307.128C626.39 307.128 629.755 307.074 630.758 306.783C635.755 305.325 636.917 304.163 637.531 303.508C637.549 303.488 637.568 303.468 637.585 303.449C637.636 303.395 637.683 303.344 637.73 303.299C637.696 303.255 637.656 303.182 637.615 303.106C637.558 302.999 637.497 302.885 637.44 302.837L636.587 299.182C637.212 299.261 637.823 299.285 638.429 299.31C639.279 299.344 640.118 299.378 640.968 299.561C643.289 300.061 644.662 300.69 644.662 300.69L647.622 301.872L649.769 311.151C648.956 311.997 647.009 313.663 645.687 314.504C643.136 316.127 642.013 316.458 640.289 316.964C639.999 317.049 639.692 317.14 639.359 317.242C639.321 317.253 639.283 317.265 639.245 317.276C639.105 317.319 638.96 317.363 638.812 317.412C636.562 318.129 634.262 318.563 631.063 318.071C629.005 317.757 627.236 317.346 627.256 316.962C627.313 315.993 628.312 315.776 628.312 315.776L630.233 315.885L632.082 315.757C632.082 315.757 623.589 313.881 623.589 313.59ZM596.233 354.883C596.595 354.054 599.073 350.576 601.109 347.778L609.584 349.019C610.554 355.704 606.522 365.259 606.522 365.259C606.522 365.259 608.619 363.765 609.037 365.072C609.223 365.654 609.643 370.3 601.787 370.613C600.953 370.646 598.946 368.664 598.946 368.664C598.946 368.664 600.409 371.927 598.169 372.569C598.169 372.569 594.559 366.249 594.503 364.844C594.448 363.437 595.607 356.32 596.233 354.883Z" fill="#F395BA"/>
<path opacity="0.148065" d="M604.918 352.507C604.918 352.507 603.816 357.372 600.032 358.887C598.709 359.417 599.039 365.674 595.797 364.926" stroke="black" stroke-width="3"/>
<path fill-rule="evenodd" clip-rule="evenodd" d="M626.08 281.076C626.335 282.012 626.879 282.645 627.295 282.49C627.712 282.336 627.843 281.451 627.588 280.515C627.333 279.579 626.788 278.946 626.372 279.1C625.955 279.255 625.825 280.14 626.08 281.076Z" fill="#020101"/>
<path opacity="0.200498" d="M658.703 274.801L666.878 290.612L646.552 300.006" stroke="black" stroke-width="3"/>
<path fill-rule="evenodd" clip-rule="evenodd" d="M506.02 364.825H551.09L557.176 293.757H512.107L506.02 364.825Z" fill="#DCEEFF"/>
<path fill-rule="evenodd" clip-rule="evenodd" d="M506.02 364.825H551.09L557.176 293.757H512.107L506.02 364.825Z" stroke="#DCEEFF" stroke-width="5"/>
<path fill-rule="evenodd" clip-rule="evenodd" d="M503.588 364.825H549.496L555.582 293.757H509.674L503.588 364.825Z" fill="white"/>
<path fill-rule="evenodd" clip-rule="evenodd" d="M503.588 364.825H549.496L555.582 293.757H509.674L503.588 364.825Z" stroke="#DCEEFF" stroke-width="5"/>
<path fill-rule="evenodd" clip-rule="evenodd" d="M512.38 355.441H542.311L546.79 303.141H516.859L512.38 355.441Z" fill="#DCEEFF"/>
<path fill-rule="evenodd" clip-rule="evenodd" d="M477.088 351.116H475.061C465.606 351.116 457.942 342.157 457.942 331.106H494.207C494.207 342.157 486.542 351.116 477.088 351.116Z" fill="#ECF6FF"/>
<path fill-rule="evenodd" clip-rule="evenodd" d="M458.509 351.116C458.509 353.505 460.166 355.441 462.209 355.441H495.502V346.791H462.209C460.166 346.791 458.509 348.727 458.509 351.116Z" fill="#DCEEFF"/>
<path fill-rule="evenodd" clip-rule="evenodd" d="M480.901 351.116C480.901 352.499 481.86 353.62 483.043 353.62H495.413C495.462 353.62 495.502 353.573 495.502 353.516V348.716C495.502 348.658 495.462 348.612 495.413 348.612H483.043C481.86 348.612 480.901 349.733 480.901 351.116Z" fill="#ECF6FF"/>
<path fill-rule="evenodd" clip-rule="evenodd" d="M453.862 355.441V364.092H490.201C492.245 364.092 493.902 362.155 493.902 359.766C493.902 357.378 492.245 355.441 490.201 355.441H453.862Z" fill="#DCEEFF"/>
<path fill-rule="evenodd" clip-rule="evenodd" d="M453.862 357.287V362.247H468.804C469.975 362.247 470.925 361.136 470.925 359.766C470.925 358.397 469.975 357.287 468.804 357.287H453.862Z" fill="#ECF6FF"/>
<path fill-rule="evenodd" clip-rule="evenodd" d="M453.862 519.771H553.313V400.132H453.862V519.771Z" fill="#CCE3FF"/>
<path fill-rule="evenodd" clip-rule="evenodd" d="M546.91 519.77H561.092V403.539H546.91V519.77Z" fill="#DCEEFF"/>
<path fill-rule="evenodd" clip-rule="evenodd" d="M441.579 405.385H561.092V374.405H441.579V405.385Z" fill="#DCEEFF"/>
<path fill-rule="evenodd" clip-rule="evenodd" d="M427.525 374.405H576.665V363.787H427.525V374.405Z" fill="#CCE3FF"/>
<path fill-rule="evenodd" clip-rule="evenodd" d="M561.092 519.771H568.011V374.405H561.092V519.771Z" fill="#B6D4FF"/>
<path fill-rule="evenodd" clip-rule="evenodd" d="M455.761 519.77H460.265V405.501H455.761V519.77Z" fill="#B6D4FF"/>
<path fill-rule="evenodd" clip-rule="evenodd" d="M566.608 374.405H580.939V363.787H566.608V374.405Z" fill="#B6D4FF"/>
<path fill-rule="evenodd" clip-rule="evenodd" d="M441.579 519.771H455.761V399.99H441.579V519.771Z" fill="#DCEEFF"/>
<path fill-rule="evenodd" clip-rule="evenodd" d="M437.611 519.771H455.761V490.479H437.611V519.771Z" fill="#DCEEFF"/>
<path fill-rule="evenodd" clip-rule="evenodd" d="M546.91 519.771H565.209V490.479H546.91V519.771Z" fill="#DCEEFF"/>
<path fill-rule="evenodd" clip-rule="evenodd" d="M485.452 515.254C485.452 515.254 469.126 504.065 488.8 471.516C488.8 471.516 498.927 485.339 502.826 468.961C502.826 468.961 513.864 489.414 506.698 501.767" fill="#ECF6FF"/>
<path fill-rule="evenodd" clip-rule="evenodd" d="M521.646 516.39C521.646 516.39 536.345 502.603 524.443 474.852C524.443 474.852 507.381 496.145 503.069 456.682C503.069 456.682 490.61 486.476 498.437 500.776" fill="#ECF6FF"/>
<path fill-rule="evenodd" clip-rule="evenodd" d="M481.589 519.77H526.06V508.994H481.589V519.77Z" fill="#DCEEFF"/>
<path fill-rule="evenodd" clip-rule="evenodd" d="M523.883 502.893L520.833 492.776L484.437 508.986L487.487 519.105L523.883 502.893Z" fill="#DCEEFF"/>
<path fill-rule="evenodd" clip-rule="evenodd" d="M521.667 519.568L524.86 508.289L489.265 493.403L486.072 504.683L521.667 519.568Z" fill="#DCEEFF"/>
<path fill-rule="evenodd" clip-rule="evenodd" d="M564.144 519.771H572.094V490.479H564.144V519.771Z" fill="#B6D4FF"/>
<path fill-rule="evenodd" clip-rule="evenodd" d="M470.458 517.383H481.692V429.105H470.458V517.383Z" stroke="#B6D4FF" stroke-width="5"/>
<path fill-rule="evenodd" clip-rule="evenodd" d="M481.692 517.383H492.926V429.105H481.692V517.383Z" stroke="#B6D4FF" stroke-width="5"/>
<path fill-rule="evenodd" clip-rule="evenodd" d="M492.926 517.383H504.16V429.105H492.926V517.383Z" stroke="#B6D4FF" stroke-width="5"/>
<path fill-rule="evenodd" clip-rule="evenodd" d="M504.16 517.383H515.395V429.105H504.16V517.383Z" stroke="#B6D4FF" stroke-width="5"/>
<path fill-rule="evenodd" clip-rule="evenodd" d="M515.395 517.383H526.629V429.105H515.395V517.383Z" stroke="#B6D4FF" stroke-width="5"/>
<path fill-rule="evenodd" clip-rule="evenodd" d="M526.629 517.383H537.863V429.105H526.629V517.383Z" stroke="#B6D4FF" stroke-width="5"/>
<path d="M159.14 317.544C159.215 318.061 159.254 318.592 159.254 319.134C159.254 319.148 159.254 319.162 159.254 319.176C163.265 324.211 165.382 331.236 164.501 338.537C162.951 351.376 152.693 360.398 141.705 358.587L122.444 355.412C111.456 353.601 103.735 341.615 105.285 328.776C106.377 319.731 111.791 312.58 118.738 309.778C116.848 306.453 115.948 302.343 116.46 298.104C117.398 290.332 122.793 284.513 129.193 283.684C128.67 281.669 128.504 279.496 128.771 277.284H128.771C129.756 269.121 136.278 263.385 143.264 264.537C145.04 264.829 146.682 265.54 148.127 266.572C152.169 263.852 156.962 262.278 162.103 262.278C176.533 262.278 188.231 274.689 188.231 289.999C188.231 305.309 176.533 317.72 162.103 317.72C161.101 317.72 160.112 317.661 159.14 317.544Z" fill="#F8D90F"/>
<path fill-rule="evenodd" clip-rule="evenodd" d="M166.084 323.195C166.084 323.195 161.299 323.36 159.26 322.058L165.829 326.878L166.084 323.195Z" fill="#CF3E83"/>
<path d="M154.454 310.521C151.957 307.973 147.854 306.724 147.849 302.322C147.846 300.775 148.621 298.097 151.477 298.093C155.099 298.086 154.813 302.873 154.77 303.406L154.765 303.433L154.767 303.433C154.766 303.447 154.765 303.454 154.765 303.454C155.177 303.641 155.59 303.657 156.001 303.529C158.937 303.568 166.396 302.527 170.554 291.683C171.43 292.76 172.418 293.706 173.49 294.503C176.583 296.796 180.395 297.861 184.296 297.331C184.056 302.808 182.681 316.71 176.748 321.321C174.309 323.216 169.868 323.45 166.084 323.195L165.216 335.752C165.216 335.752 153.66 329.866 153.183 328.261C156.672 327.227 159.254 323.533 159.254 319.135C159.254 315.29 157.281 311.983 154.454 310.521Z" fill="#F395BA"/>
<path fill-rule="evenodd" clip-rule="evenodd" d="M176.485 303.444L179.223 311.201L176.046 311.126L176.485 303.444Z" fill="#EB5757"/>
<path fill-rule="evenodd" clip-rule="evenodd" d="M173.57 303.78C173.501 305.33 172.722 306.537 171.828 306.477C170.934 306.417 170.264 305.112 170.333 303.563C170.401 302.013 171.181 300.806 172.075 300.866C172.969 300.926 173.638 302.231 173.57 303.78Z" fill="#0D0B6D"/>
<path fill-rule="evenodd" clip-rule="evenodd" d="M181.965 303.533C181.896 305.083 181.117 306.29 180.223 306.23C179.329 306.17 178.659 304.865 178.727 303.315C178.796 301.766 179.575 300.558 180.469 300.618C181.363 300.678 182.033 301.984 181.965 303.533Z" fill="#0D0B6D"/>
<path d="M175.267 314.842C175.267 314.842 173.197 315.622 171.123 312.927" stroke="#1C295E" stroke-width="3"/>
<path opacity="0.401762" fill-rule="evenodd" clip-rule="evenodd" d="M166.076 323.195C166.076 323.195 161.291 323.36 159.252 322.058L165.822 326.877L166.076 323.195Z" fill="black"/>
<path fill-rule="evenodd" clip-rule="evenodd" d="M192.8 527.324L185.949 528.638C185.949 528.638 181.557 535.915 181.428 537.104C181.299 538.294 183.003 549.582 184.086 550.47C184.326 550.668 184.627 551.996 185.065 553.932C186.492 560.232 189.374 572.965 196.383 574.062C201.757 574.903 201.096 569.95 200.229 563.467C200.05 562.128 199.862 560.723 199.717 559.29C198.336 545.642 192.8 527.324 192.8 527.324ZM270.518 544.061L246.57 532.26C246.57 532.26 241.987 546.09 251.835 546.809C251.835 546.809 265.595 561.501 274.914 557.186C281.113 554.316 278.814 552.124 274.354 547.874C273.186 546.761 271.869 545.506 270.518 544.061Z" fill="#0D0B6D"/>
<path d="M216.756 412.63C223.242 411.874 230.009 416.326 231.958 424.861C240.614 462.761 253.446 520.458 255.146 528.816L270.519 544.061C270.519 544.061 268.885 546.924 264.8 547.402C260.716 547.879 246.482 533.017 246.482 533.017L246.598 532.92L215.429 457.336C206.254 491.835 196.193 529.545 194.77 534.386C196.548 542.632 198.732 555.568 195.05 556.05C189.632 556.76 184.974 535.519 184.974 535.519L185.028 535.468L193.855 445.432L175.52 439.197L183.425 420.216L203.601 410.937C208.354 408.751 213.131 409.74 216.756 412.63Z" fill="#F395BA"/>
<path opacity="0.20266" d="M215.427 457.342C215.427 457.342 223.988 430.888 222.773 422.197C221.559 413.505 213.179 411.554 213.179 411.554" stroke="black" stroke-width="3"/>
<path d="M146.556 391.985C146.556 391.985 129.896 412.175 134.878 429.292C140.219 447.641 191.465 445.161 191.465 445.161C191.465 445.161 201.458 417.373 227.479 415.603L178.385 392.582L146.556 391.985Z" fill="#2F2F3D"/>
<path fill-rule="evenodd" clip-rule="evenodd" d="M171.823 336.292C169.597 331.892 166.616 329.431 166.616 329.431L152.997 328.663C152.997 328.663 154.157 332.156 155.385 336.648C157.812 345.529 163.571 347.525 168.589 347.515C173.276 347.506 174.869 342.312 171.823 336.292ZM205.375 362.092C205.13 359.295 205.035 355.95 205.795 354.751C207.191 352.552 214.09 345.905 214.09 345.905L214.458 351.452L216.091 344.94C216.091 344.94 217.899 345.566 219.65 346.636C220.912 347.408 222.122 348.454 222.881 349.111C223.062 349.267 223.217 349.401 223.341 349.505C224.269 350.275 221.572 362.129 219.65 364.263C218.33 365.727 214.438 366.862 212.129 367.43C207.718 375.753 195.962 396.55 189.468 394.834C182.721 393.052 176.461 365.494 176.461 365.494L187.841 359.017L192.796 376.861L205.375 362.092ZM128.045 422.484L130.815 430.761C130.815 430.761 131.235 432.892 131.471 435.41L131.502 435.747C131.716 438.072 131.86 439.632 133.223 443.24C134.217 445.873 130.999 445.086 130.086 443.615C129.749 443.072 129.472 441.927 129.184 440.737C128.667 438.601 128.114 436.32 127.12 437.11C125.57 438.34 125.103 444.599 125.45 450.51C125.504 451.438 124.953 452.196 124.558 452.463C123.918 452.895 122.985 449.238 122.985 449.238C122.985 449.238 122.649 450.523 121.63 449.986C121.269 449.797 120.195 447.308 120.195 447.308C120.195 447.308 119.363 446.082 118.925 444.712C118.153 442.295 117.522 437.808 117.671 436.49C118.022 433.382 118.812 428.138 119.851 425.233C119.238 417.767 116.887 387.794 118.184 382.1C119.668 375.585 122.577 366.757 122.577 366.757L133.737 374.426L128.952 386.361L128.045 422.484Z" fill="#F395BA"/>
<path fill-rule="evenodd" clip-rule="evenodd" d="M219.864 346.804C218.836 346.116 217.858 345.601 217.379 345.731C216.54 345.96 218.075 348.53 219.195 350.222L219.182 350.287C217.375 351.136 215.007 352.396 214.626 353.318C214.36 353.962 215.399 354.173 216.685 354.201C215.501 354.864 214.468 355.582 214.228 356.164C213.92 356.91 215.361 357.074 216.912 357.048C215.543 357.778 214.26 358.607 213.988 359.265C213.642 360.104 215.509 360.207 217.255 360.13L216.806 362.422C216.669 363.124 216.121 363.612 215.505 363.58L208.806 363.238C208.009 363.197 207.439 362.323 207.617 361.414L212.363 337.177C212.5 336.474 213.048 335.986 213.664 336.018L220.362 336.36C221.159 336.401 221.729 337.276 221.552 338.185L219.864 346.804Z" fill="#020101"/>
<path d="M221.229 347.787C219.808 346.704 218.072 345.543 217.379 345.731C216.533 345.962 218.103 348.576 219.224 350.267C217.412 351.117 215.01 352.389 214.626 353.318C214.36 353.962 215.399 354.173 216.685 354.201C215.501 354.864 214.468 355.582 214.228 356.164C213.92 356.91 215.361 357.074 216.912 357.048C215.543 357.778 214.26 358.607 213.988 359.265C213.53 360.376 216.952 360.196 218.834 360.019L218.348 362.5C218.211 363.203 217.664 363.691 217.047 363.659L210.349 363.317C209.552 363.276 208.981 362.401 209.159 361.492L213.905 337.255C214.043 336.553 214.59 336.065 215.206 336.097L221.905 336.439C222.702 336.48 223.272 337.355 223.094 338.263L221.229 347.787Z" fill="#0191B4"/>
<path fill-rule="evenodd" clip-rule="evenodd" d="M215.632 339.308C215.476 340.102 215.076 340.666 214.737 340.567C214.399 340.468 214.251 339.744 214.407 338.95C214.563 338.155 214.964 337.591 215.302 337.69C215.641 337.789 215.789 338.513 215.632 339.308Z" fill="#020101"/>
<path fill-rule="evenodd" clip-rule="evenodd" d="M214.849 343.418C214.693 344.212 214.292 344.776 213.954 344.677C213.615 344.578 213.468 343.854 213.623 343.06C213.78 342.265 214.18 341.702 214.519 341.801C214.857 341.9 215.005 342.624 214.849 343.418Z" fill="#020101"/>
<path d="M157.485 328.916L152.996 328.663C152.996 328.663 154.157 332.156 155.385 336.648C157.812 345.529 163.571 347.525 168.589 347.515C173.276 347.506 174.869 342.312 171.823 336.292C169.862 332.416 167.316 330.045 166.737 329.535C172.655 330.002 176.341 330.87 179.754 334.611C186.252 341.732 191.513 354.86 193.677 367.83L181.802 374.022L177.573 393.118L146.497 392.564C146.497 392.564 146.769 389.067 146.098 384.012C145.226 377.402 142.074 372.468 142.074 372.468L138.949 378.02L119.51 364.63C125.874 351.07 134.751 337.088 140.669 332.639C144.85 329.495 148.679 328.706 152.419 328.663C154.12 328.643 155.828 328.778 157.485 328.916Z" fill="#5E93D1"/>
<path opacity="0.202962" d="M177.712 393.45C178.899 375.834 186.745 371.677 180.825 351.921" stroke="black" stroke-width="3"/>
<path opacity="0.202055" d="M166.616 329.431C166.616 329.431 169.597 331.892 171.823 336.292C174.869 342.312 173.276 347.506 168.589 347.515C163.571 347.525 157.812 345.529 155.385 336.648C154.157 332.156 152.997 328.663 152.997 328.663" stroke="black" stroke-width="3"/>
<path opacity="0.202962" d="M150.056 360.136L142.845 372.902" stroke="black" stroke-width="3"/>
</svg>
