<svg width="90" height="90" viewBox="0 0 100 100" fill="none" xmlns="http://www.w3.org/2000/svg">
<path d="M87.1094 7.8125H78.125V3.125C78.125 1.39922 76.726 0 75 0C73.274 0 71.875 1.39922 71.875 3.125V7.8125H28.125V3.125C28.125 1.39922 26.726 0 25 0C23.274 0 21.875 1.39922 21.875 3.125V7.8125H12.8906C5.78262 7.8125 0 13.5951 0 20.7031V87.1094C0 94.2174 5.78262 100 12.8906 100H87.1094C94.2174 100 100 94.2174 100 87.1094V20.7031C100 13.5951 94.2174 7.8125 87.1094 7.8125ZM12.8906 14.0625H21.875V17.1875C21.875 18.9133 23.274 20.3125 25 20.3125C26.726 20.3125 28.125 18.9133 28.125 17.1875V14.0625H71.875V17.1875C71.875 18.9133 73.274 20.3125 75 20.3125C76.726 20.3125 78.125 18.9133 78.125 17.1875V14.0625H87.1094C90.7711 14.0625 93.75 17.0414 93.75 20.7031V28.125H6.25V20.7031C6.25 17.0414 9.22891 14.0625 12.8906 14.0625ZM87.1094 93.75H12.8906C9.22891 93.75 6.25 90.7711 6.25 87.1094V34.375H93.75V87.1094C93.75 90.7711 90.7711 93.75 87.1094 93.75Z" fill="#0191B4"/>
</svg>
