<svg width="130" height="130" viewBox="0 0 150 150" fill="none" xmlns="http://www.w3.org/2000/svg">
<g clip-path="url(#clip0)">
<path d="M10.5781 117.611C9.36435 117.611 8.38086 118.594 8.38086 119.808V144.239C8.38086 147.416 10.9648 150 14.1412 150H135.857C139.034 150 141.619 147.416 141.619 144.239V14.0723C141.619 10.8956 139.034 8.31135 135.858 8.31135H128.96V5.74787C128.96 2.57853 126.381 -0.000177002 123.212 -0.000177002H121.21C118.041 -0.000177002 115.462 2.57824 115.462 5.74758V8.31105H105.354V5.74758C105.354 2.57824 102.776 -0.000177002 99.6066 -0.000177002H97.6045C94.4352 -0.000177002 91.8567 2.57824 91.8567 5.74758V8.31105H81.7487V5.74758C81.7487 2.57824 79.1703 -0.000469971 76.001 -0.000469971H73.9988C70.8295 -0.000469971 68.2511 2.57795 68.2511 5.74728V8.31076H58.1431V5.74728C58.1431 2.57795 55.5646 -0.000762939 52.3953 -0.000762939H50.3932C47.2235 -0.000177002 44.6454 2.57824 44.6454 5.74758V8.31105H34.5377V5.74758C34.5377 2.57824 31.959 -0.000469971 28.7896 -0.000469971H26.7878C23.6185 -0.000469971 21.0397 2.57795 21.0397 5.74728V8.31076H14.1418C10.9651 8.31076 8.38086 10.895 8.38086 14.0717V109.553C8.38086 110.767 9.36435 111.751 10.5781 111.751C11.7919 111.751 12.7754 110.767 12.7754 109.553V33.5239H17.2713C18.4851 33.5239 19.4686 32.5402 19.4686 31.3267C19.4686 30.1132 18.4851 29.1294 17.2713 29.1294H12.7754V14.0723C12.7754 13.3188 13.3886 12.7059 14.1418 12.7059H21.0395V18.2594C21.0395 21.4287 23.6182 24.0071 26.7875 24.0071H28.7894C31.9587 24.0071 34.5374 21.4287 34.5374 18.2594V12.7059H44.6451V18.2594C44.6451 21.4287 47.2235 24.0071 50.3929 24.0071H52.395C55.5644 24.0071 58.1428 21.4287 58.1428 18.2594V12.7059H68.2508V18.2594C68.2508 21.4287 70.8292 24.0071 73.9985 24.0071H76.0007C79.17 24.0071 81.7484 21.4287 81.7484 18.2594V12.7059H91.8564V18.2594C91.8564 21.4287 94.4349 24.0071 97.6042 24.0071H99.6063C102.776 24.0071 105.354 21.4287 105.354 18.2594V12.7059H115.462V18.2594C115.462 21.4287 118.041 24.0071 121.21 24.0071H123.212C126.381 24.0071 128.96 21.4287 128.96 18.2594V12.7059H135.857C136.611 12.7059 137.224 13.3188 137.224 14.0723V29.1297H27.5252C26.3114 29.1297 25.3279 30.1135 25.3279 31.327C25.3279 32.5404 26.3114 33.5242 27.5252 33.5242H137.224V144.239C137.224 144.992 136.611 145.606 135.857 145.606H14.1415C13.3886 145.606 12.7757 144.993 12.7757 144.24V119.808C12.7754 118.594 11.7919 117.611 10.5781 117.611ZM30.1432 18.2594C30.1432 19.0056 29.5361 19.6126 28.7896 19.6126H26.7878C26.0413 19.6126 25.4343 19.0056 25.4343 18.2594V5.74758C25.4343 5.00139 26.0413 4.39435 26.7878 4.39435H28.7896C29.5361 4.39435 30.1432 5.00139 30.1432 5.74787V18.2594ZM53.7485 18.2594C53.7485 19.0056 53.1415 19.6126 52.3953 19.6126H50.3932C49.647 19.6126 49.0399 19.0056 49.0399 18.2594V5.74758C49.0399 5.00139 49.647 4.39435 50.3932 4.39435H52.3953C53.1415 4.39435 53.7485 5.00139 53.7485 5.74787V18.2594ZM77.3542 18.2594C77.3542 19.0056 76.7472 19.6126 76.001 19.6126H73.9988C73.2526 19.6126 72.6456 19.0056 72.6456 18.2594V5.74758C72.6456 5.00139 73.2526 4.39435 73.9988 4.39435H76.001C76.7472 4.39435 77.3542 5.00139 77.3542 5.74787V18.2594ZM100.96 18.2594C100.96 19.0056 100.353 19.6126 99.6066 19.6126H97.6045C96.8583 19.6126 96.2513 19.0056 96.2513 18.2594V5.74758C96.2513 5.00139 96.8583 4.39435 97.6045 4.39435H99.6066C100.353 4.39435 100.96 5.00139 100.96 5.74787V18.2594ZM124.566 18.2594C124.566 19.0056 123.959 19.6126 123.212 19.6126H121.21C120.464 19.6126 119.857 19.0056 119.857 18.2594V5.74758C119.857 5.00139 120.464 4.39435 121.21 4.39435H123.212C123.959 4.39435 124.566 5.00139 124.566 5.74787V18.2594Z" fill="#0191B4"/>
<path d="M103.103 82.9339C103.961 83.792 105.352 83.7923 106.21 82.9339L113.4 75.7441C114.998 74.1457 114.998 71.5447 113.4 69.9463L104.176 60.7225C102.578 59.1243 99.977 59.1237 98.3779 60.7225L67.8928 91.2079L51.6758 74.9909C50.0779 73.3928 47.477 73.3928 45.8779 74.9909L36.5993 84.2695C35.825 85.0439 35.3984 86.0733 35.3984 87.1685C35.3984 88.2636 35.825 89.2931 36.5993 90.0674L64.9388 118.407C65.7131 119.181 66.7426 119.607 67.838 119.607C68.9328 119.607 69.9626 119.181 70.7369 118.407L98.7925 90.351C99.6506 89.4929 99.6506 88.1016 98.7925 87.2438C97.9341 86.3856 96.5431 86.3856 95.685 87.2438L67.838 115.091L39.9154 87.1682L48.7772 78.3062L66.1511 95.6801C66.616 96.1456 67.2345 96.4023 67.8928 96.4023C68.5499 96.4023 69.1681 96.1465 69.6339 95.6813L101.277 64.038L110.084 72.8449L103.103 79.8261C102.245 80.6845 102.245 82.0758 103.103 82.9339Z" fill="#0191B4"/>
</g>
<defs>
<clipPath id="clip0">
<rect width="150" height="150" fill="white"/>
</clipPath>
</defs>
</svg>
