<svg width="20" height="18" viewBox="0 0 20 18" fill="none" xmlns="http://www.w3.org/2000/svg">
<path d="M19.6103 5.11849C19.8442 5.03536 20.0003 4.81392 20 4.56572C19.9997 4.31751 19.843 4.09646 19.609 4.01388L10.195 0.692357C10.0688 0.647826 9.93121 0.647826 9.80508 0.692357L0.391016 4.01388C0.156954 4.09642 0.000312968 4.31751 4.68243e-07 4.56572C-0.000312032 4.81392 0.155821 5.03536 0.389688 5.11849L4.11895 6.44427V10.2664C4.11895 10.8972 4.77703 11.4307 6.07492 11.852C7.20621 12.2192 8.6002 12.4214 10 12.4214C11.3999 12.4214 12.7938 12.2192 13.9252 11.852C15.223 11.4307 15.8811 10.8973 15.8811 10.2664V6.44427L17.4209 5.89689V11.1931C16.7361 11.4352 16.2441 12.0887 16.2441 12.8553C16.2441 13.6219 16.7361 14.2754 17.4209 14.5175V16.7552C17.4209 17.0788 17.6832 17.3411 18.0068 17.3411C18.3304 17.3411 18.5927 17.0788 18.5927 16.7552V14.5175C19.2775 14.2754 19.7695 13.6219 19.7695 12.8553C19.7695 12.0888 19.2775 11.4352 18.5927 11.1931V5.48025L19.6103 5.11849ZM18.0068 13.4461C17.681 13.4461 17.4159 13.1811 17.4159 12.8553C17.4159 12.5295 17.681 12.2645 18.0068 12.2645C18.3325 12.2645 18.5976 12.5295 18.5976 12.8553C18.5976 13.1811 18.3325 13.4461 18.0068 13.4461ZM10 1.86622L17.6589 4.56853L10 7.2913L2.34106 4.56849L10 1.86622ZM14.7092 10.1781C14.5969 10.2913 14.1949 10.5624 13.2875 10.8213C12.3195 11.0974 11.152 11.2495 10 11.2495C8.84805 11.2495 7.68055 11.0974 6.7125 10.8213C5.80512 10.5624 5.40309 10.2913 5.29078 10.1781V6.86087L9.80371 8.46525C9.86719 8.48783 9.93359 8.49911 9.99996 8.49911C10.0664 8.49911 10.1327 8.48783 10.1962 8.46525L14.7091 6.86087V10.1781H14.7092Z" fill="#0191B4"/>
</svg>
