<svg width="20" height="20" viewBox="0 0 20 20" fill="none" xmlns="http://www.w3.org/2000/svg">
<path d="M9.99175 1.66667C5.39175 1.66667 1.66675 5.4 1.66675 10C1.66675 14.6 5.39175 18.3333 9.99175 18.3333C14.6001 18.3333 18.3334 14.6 18.3334 10C18.3334 5.4 14.6001 1.66667 9.99175 1.66667ZM10.0001 16.6667C6.31675 16.6667 3.33341 13.6833 3.33341 10C3.33341 6.31667 6.31675 3.33333 10.0001 3.33333C13.6834 3.33333 16.6667 6.31667 16.6667 10C16.6667 13.6833 13.6834 16.6667 10.0001 16.6667ZM9.81675 5.83333H9.76675C9.43342 5.83333 9.16675 6.1 9.16675 6.43333V10.3667C9.16675 10.6583 9.31675 10.9333 9.57508 11.0833L13.0334 13.1583C13.3167 13.325 13.6834 13.2417 13.8501 12.9583C14.0251 12.675 13.9334 12.3 13.6417 12.1333L10.4167 10.2167V6.43333C10.4167 6.1 10.1501 5.83333 9.81675 5.83333Z" fill="#4BA1B0"/>
</svg>
