<svg width="90" height="90" viewBox="0 0 100 100" fill="none" xmlns="http://www.w3.org/2000/svg">
<path d="M50 0C22.365 0 0 22.3627 0 50C0 77.635 22.3627 100 50 100C77.6348 100 100 77.6373 100 50C100 22.3652 77.6373 0 50 0ZM50 93.3334C26.1061 93.3334 6.6666 73.8941 6.6666 50C6.6666 26.1059 26.1061 6.6666 50 6.6666C73.8939 6.6666 93.3334 26.1061 93.3334 50C93.3334 73.8939 73.8939 93.3334 50 93.3334Z" fill="#0191B4"/>
<path d="M60.3074 49.0016H49.4109V30.4359C49.4109 28.5951 47.9186 27.1025 46.0775 27.1025C44.2365 27.1025 42.7441 28.5949 42.7441 30.4359V52.3348C42.7441 54.1756 44.2365 55.6682 46.0775 55.6682H60.3072C62.1481 55.6682 63.6407 54.1758 63.6407 52.3348C63.6407 50.4938 62.1483 49.0016 60.3074 49.0016Z" fill="#0191B4"/>
</svg>
