<svg width="90" height="90" viewBox="0 0 100 100" fill="none" xmlns="http://www.w3.org/2000/svg">
<path d="M50 100C36.6445 100 24.0883 94.7992 14.6445 85.3555C5.20078 75.9117 0 63.3555 0 50C0 36.6445 5.20098 24.0885 14.6445 14.6445C24.0881 5.20059 36.6445 0 50 0C63.3555 0 75.9117 5.20078 85.3555 14.6445C94.7992 24.0883 100 36.6445 100 50C100 63.3555 94.799 75.9115 85.3555 85.3555C75.9119 94.7994 63.3555 100 50 100ZM50 6.25C25.8762 6.25 6.25 25.8762 6.25 50C6.25 74.1238 25.8762 93.75 50 93.75C74.1238 93.75 93.75 74.1238 93.75 50C93.75 25.8762 74.1238 6.25 50 6.25Z" fill="#0191B4"/>
<path d="M50 46.875C45.6922 46.875 42.1875 43.3703 42.1875 39.0625C42.1875 34.7547 45.6922 31.25 50 31.25C54.3078 31.25 57.8125 34.7547 57.8125 39.0625C57.8125 40.7883 59.2115 42.1875 60.9375 42.1875C62.6635 42.1875 64.0625 40.7883 64.0625 39.0625C64.0625 32.3826 59.3793 26.7797 53.125 25.3543V21.875C53.125 20.1492 51.726 18.75 50 18.75C48.274 18.75 46.875 20.1492 46.875 21.875V25.3543C40.6207 26.7797 35.9375 32.3826 35.9375 39.0625C35.9375 46.8166 42.2459 53.125 50 53.125C54.3078 53.125 57.8125 56.6297 57.8125 60.9375C57.8125 65.2453 54.3078 68.75 50 68.75C45.6922 68.75 42.1875 65.2453 42.1875 60.9375C42.1875 59.2117 40.7885 57.8125 39.0625 57.8125C37.3365 57.8125 35.9375 59.2117 35.9375 60.9375C35.9375 67.6174 40.6207 73.2203 46.875 74.6457V78.125C46.875 79.8508 48.274 81.25 50 81.25C51.726 81.25 53.125 79.8508 53.125 78.125V74.6457C59.3793 73.2203 64.0625 67.6174 64.0625 60.9375C64.0625 53.1834 57.7541 46.875 50 46.875Z" fill="#0191B4"/>
</svg>
