<svg width="812" height="447" viewBox="0 0 812 447" fill="none" xmlns="http://www.w3.org/2000/svg">
<path fill-rule="evenodd" clip-rule="evenodd" d="M509.613 147.321C509.613 155.543 498.627 162.209 485.075 162.209C471.523 162.209 460.536 155.543 460.536 147.321C460.536 139.098 471.523 132.432 485.075 132.432C498.627 132.432 509.613 139.098 509.613 147.321Z" fill="#D2E9FC"/>
<path fill-rule="evenodd" clip-rule="evenodd" d="M485.958 131.478C486.656 135.639 484.282 139.189 484.282 139.189C484.282 139.189 480.778 135.991 480.08 131.83C479.382 127.668 481.755 124.119 481.755 124.119C481.755 124.119 485.259 127.317 485.958 131.478Z" fill="#CCE3FF"/>
<path fill-rule="evenodd" clip-rule="evenodd" d="M484.936 134.196C488.058 137.94 487.945 141.761 487.945 141.761C487.945 141.761 482.77 139.513 479.648 135.769C476.526 132.026 476.64 128.205 476.64 128.205C476.64 128.205 481.814 130.453 484.936 134.196Z" fill="#CCE3FF"/>
<path fill-rule="evenodd" clip-rule="evenodd" d="M488.856 131.93C488.026 136.083 484.421 139.241 484.421 139.241C484.421 139.241 482.161 135.665 482.99 131.513C483.819 127.36 487.424 124.203 487.424 124.203C487.424 124.203 489.685 127.778 488.856 131.93Z" fill="#CCE3FF"/>
<path fill-rule="evenodd" clip-rule="evenodd" d="M491.455 134.939C488.842 138.819 483.984 141.306 483.984 141.306C483.984 141.306 483.361 137.503 485.974 133.623C488.587 129.743 493.445 127.255 493.445 127.255C493.445 127.255 494.068 131.059 491.455 134.939Z" fill="#CCE3FF"/>
<path fill-rule="evenodd" clip-rule="evenodd" d="M498.314 173.861H471.835C467.156 173.861 463.363 170.539 463.363 166.441C463.363 162.344 467.156 159.022 471.835 159.022H498.314C502.993 159.022 506.786 162.344 506.786 166.441C506.786 170.539 502.993 173.861 498.314 173.861Z" fill="#CCE3FF"/>
<path d="M471.053 136.814L466.53 133.727" stroke="#B6D4FF" stroke-width="9"/>
<path d="M464.608 152.788L460.537 155.243" stroke="#B6D4FF" stroke-width="9"/>
<path d="M476.438 151.449L483.464 152.453" stroke="#B6D4FF" stroke-width="9"/>
<path d="M494.402 136.312L498.644 131.722" stroke="#B6D4FF" stroke-width="9"/>
<path d="M502.149 141.306L506.786 138.706" stroke="#B6D4FF" stroke-width="9"/>
<path d="M503.054 154.74L507.464 157.23" stroke="#B6D4FF" stroke-width="9"/>
<path d="M478.478 142.335L476.379 138.062" stroke="#B6D4FF" stroke-width="9"/>
<path d="M498.553 146.994L493.51 149.097" stroke="#B6D4FF" stroke-width="9"/>
<path d="M474.16 144.551L469.358 141.753" stroke="#B6D4FF" stroke-width="9"/>
<path d="M535.895 42.7485V179.382" stroke="#B6D4FF" stroke-width="20"/>
<path d="M352.714 43.8652V178.163" stroke="#ECF6FF" stroke-width="22"/>
<path d="M445.314 47.1592V178.63" stroke="#ECF6FF" stroke-width="22"/>
<path fill-rule="evenodd" clip-rule="evenodd" d="M342.643 179.382H532.633V42.7485H342.643V179.382ZM349.363 173.496H525.912V48.6343H349.363V173.496Z" fill="#DCEEFF"/>
<path d="M439.132 43.3325V179.052" stroke="#DCEEFF" stroke-width="22"/>
<path d="M342.643 111.065H532.632" stroke="#DCEEFF" stroke-width="22"/>
<path fill-rule="evenodd" clip-rule="evenodd" d="M353.753 53.7694H525.936V48.5798H353.753V53.7694Z" fill="#CCE3FF"/>
<path fill-rule="evenodd" clip-rule="evenodd" d="M353.753 62.9501H525.936V57.7605H353.753V62.9501Z" fill="#CCE3FF"/>
<path fill-rule="evenodd" clip-rule="evenodd" d="M353.753 72.131H525.936V66.9414H353.753V72.131Z" fill="#CCE3FF"/>
<path fill-rule="evenodd" clip-rule="evenodd" d="M353.753 81.3117H525.936V76.1221H353.753V81.3117Z" fill="#CCE3FF"/>
<path fill-rule="evenodd" clip-rule="evenodd" d="M353.753 90.4926H525.936V85.303H353.753V90.4926Z" fill="#CCE3FF"/>
<path fill-rule="evenodd" clip-rule="evenodd" d="M595.765 334.452H600.962V243.3H595.765V334.452Z" fill="#DCEEFF"/>
<path fill-rule="evenodd" clip-rule="evenodd" d="M590.568 334.452H595.765V243.3H590.568V334.452Z" fill="#B6D4FF"/>
<path fill-rule="evenodd" clip-rule="evenodd" d="M636.58 334.452H641.777V243.3H636.58V334.452Z" fill="#DCEEFF"/>
<path fill-rule="evenodd" clip-rule="evenodd" d="M631.383 334.452H636.58V243.3H631.383V334.452Z" fill="#B6D4FF"/>
<path fill-rule="evenodd" clip-rule="evenodd" d="M595.765 281.597H636.58V243.3H595.765V281.597Z" fill="#DCEEFF"/>
<path fill-rule="evenodd" clip-rule="evenodd" d="M576.65 243.3H713.05V237.237H576.65V243.3Z" fill="#B6D4FF"/>
<path fill-rule="evenodd" clip-rule="evenodd" d="M702.868 243.3H757.793V237.237H702.868V243.3Z" fill="#DCEEFF"/>
<path fill-rule="evenodd" clip-rule="evenodd" d="M738.568 334.452H744.125V243.3H738.568V334.452Z" fill="#DCEEFF"/>
<path fill-rule="evenodd" clip-rule="evenodd" d="M733.011 334.452H738.568V243.3H733.011V334.452Z" fill="#B6D4FF"/>
<path fill-rule="evenodd" clip-rule="evenodd" d="M694.756 334.452H700.313V243.3H694.756V334.452Z" fill="#DCEEFF"/>
<path fill-rule="evenodd" clip-rule="evenodd" d="M694.756 289.581H738.567V243.327H694.756V289.581Z" fill="#DCEEFF"/>
<path fill-rule="evenodd" clip-rule="evenodd" d="M652.893 289.559H689.2V243.305H652.893V289.559Z" fill="#B6D4FF"/>
<path fill-rule="evenodd" clip-rule="evenodd" d="M689.199 334.452H694.756V243.3H689.199V334.452Z" fill="#B6D4FF"/>
<path fill-rule="evenodd" clip-rule="evenodd" d="M689.199 251.405H744.124V243.3H689.199V251.405Z" fill="#B6D4FF"/>
<path fill-rule="evenodd" clip-rule="evenodd" d="M590.568 251.405H641.777V243.3H590.568V251.405Z" fill="#B6D4FF"/>
<path fill-rule="evenodd" clip-rule="evenodd" d="M658.758 263.74H683.335V247.71H658.758V263.74Z" fill="#DCEEFF"/>
<path fill-rule="evenodd" clip-rule="evenodd" d="M658.758 284.06H683.335V268.029H658.758V284.06Z" fill="#DCEEFF"/>
<path fill-rule="evenodd" clip-rule="evenodd" d="M674.896 255.725C674.896 257.624 673.172 259.163 671.046 259.163C668.92 259.163 667.197 257.624 667.197 255.725C667.197 253.827 668.92 252.287 671.046 252.287C673.172 252.287 674.896 253.827 674.896 255.725Z" fill="#B6D4FF"/>
<path fill-rule="evenodd" clip-rule="evenodd" d="M674.896 276.045C674.896 277.943 673.172 279.483 671.046 279.483C668.92 279.483 667.197 277.943 667.197 276.045C667.197 274.146 668.92 272.607 671.046 272.607C673.172 272.607 674.896 274.146 674.896 276.045Z" fill="#B6D4FF"/>
<path fill-rule="evenodd" clip-rule="evenodd" d="M183.782 141.669C183.782 151.136 177.21 158.81 169.103 158.81C160.997 158.81 154.425 151.136 154.425 141.669C154.425 132.203 160.997 124.529 169.103 124.529C177.21 124.529 183.782 132.203 183.782 141.669Z" fill="#CCE3FF"/>
<path d="M169.213 231.698V142.541" stroke="#DCEEFF" stroke-width="9"/>
<path fill-rule="evenodd" clip-rule="evenodd" d="M153.405 166.848C160.336 172.919 161.741 181.531 156.543 186.084C151.344 190.637 141.511 189.407 134.579 183.337C127.647 177.266 126.243 168.653 131.441 164.1C136.64 159.547 146.473 160.778 153.405 166.848Z" fill="#CCE3FF"/>
<path fill-rule="evenodd" clip-rule="evenodd" d="M202.898 179.321C208.487 184.216 206.977 193.476 199.524 200.003C192.072 206.53 181.499 207.853 175.91 202.958" fill="#CCE3FF"/>
<path d="M195.368 187.944L169.648 210.535" stroke="#DCEEFF" stroke-width="9"/>
<path d="M187.936 166.341L169.14 182.609" stroke="#DCEEFF" stroke-width="9"/>
<path d="M149.623 202.051L169.259 219.442" stroke="#DCEEFF" stroke-width="9"/>
<path d="M142.854 174.213L169.103 197.476" stroke="#DCEEFF" stroke-width="9"/>
<path fill-rule="evenodd" clip-rule="evenodd" d="M177.085 262.317H161.343C149.251 262.317 139.359 253.653 139.359 243.064V224.947H199.068V243.064C199.068 253.653 189.176 262.317 177.085 262.317Z" fill="#ECF6FF"/>
<path d="M199.067 235.016H139.358" stroke="#DCEEFF" stroke-width="9"/>
<path d="M199.067 245.117H139.358" stroke="#DCEEFF" stroke-width="9"/>
<path fill-rule="evenodd" clip-rule="evenodd" d="M370.546 304.302H210.851V271.176H370.546V304.302Z" fill="#B6D4FF"/>
<path fill-rule="evenodd" clip-rule="evenodd" d="M325.744 278.186H210.612C204.62 278.186 199.619 274.179 199.088 268.951L195.487 233.51C194.885 227.582 200.217 222.478 207.012 222.478H322.144C328.137 222.478 333.138 226.486 333.669 231.714L337.269 267.155C337.871 273.082 332.539 278.186 325.744 278.186Z" fill="#B6D4FF"/>
<path fill-rule="evenodd" clip-rule="evenodd" d="M420.507 320.397H375.697C369.069 320.397 363.862 315.427 364.432 309.643L368.141 271.962C368.645 266.841 373.539 262.909 379.407 262.909H424.216C430.845 262.909 436.052 267.88 435.482 273.663L431.773 311.344C431.268 316.465 426.376 320.397 420.507 320.397Z" fill="#B6D4FF"/>
<path fill-rule="evenodd" clip-rule="evenodd" d="M360.384 278.186H232.479C226.486 278.186 221.485 274.179 220.954 268.951L217.354 233.51C216.751 227.582 222.083 222.478 228.878 222.478H356.783C362.776 222.478 367.777 226.486 368.308 231.714L371.909 267.155C372.511 273.082 367.179 278.186 360.384 278.186Z" fill="#DCEEFF"/>
<path fill-rule="evenodd" clip-rule="evenodd" d="M415.776 320.396H220.467V303.049H415.776V320.396Z" fill="#CCE3FF"/>
<path fill-rule="evenodd" clip-rule="evenodd" d="M389.111 303.049H251.698C244.873 303.049 239.341 298.204 239.341 292.227C239.341 286.25 244.873 281.405 251.698 281.405H389.111C395.936 281.405 401.468 286.25 401.468 292.227C401.468 298.204 395.936 303.049 389.111 303.049Z" fill="#DCEEFF"/>
<path fill-rule="evenodd" clip-rule="evenodd" d="M183.351 334.452H178.664L180.645 320.397H189.293L183.351 334.452Z" fill="#B6D4FF"/>
<path fill-rule="evenodd" clip-rule="evenodd" d="M223.633 334.452H218.946L220.927 320.397H229.575L223.633 334.452Z" fill="#B6D4FF"/>
<path fill-rule="evenodd" clip-rule="evenodd" d="M415.036 334.452H419.723L417.742 320.397H409.094L415.036 334.452Z" fill="#B6D4FF"/>
<path fill-rule="evenodd" clip-rule="evenodd" d="M374.754 334.452H379.441L377.461 320.397H368.812L374.754 334.452Z" fill="#B6D4FF"/>
<path fill-rule="evenodd" clip-rule="evenodd" d="M420.507 320.397H413.793C407.164 320.397 401.957 315.427 402.527 309.643L406.236 271.962C406.74 266.841 411.633 262.909 417.502 262.909H424.216C430.845 262.909 436.052 267.88 435.482 273.663L431.773 311.344C431.268 316.465 426.376 320.397 420.507 320.397Z" fill="#CCE3FF"/>
<path fill-rule="evenodd" clip-rule="evenodd" d="M227.017 320.397H176.548C170.679 320.397 165.786 316.465 165.282 311.344L161.573 273.663C161.003 267.88 166.21 262.909 172.838 262.909H223.307C229.176 262.909 234.069 266.841 234.573 271.962L238.282 309.643C238.852 315.427 233.645 320.397 227.017 320.397Z" fill="#B6D4FF"/>
<path fill-rule="evenodd" clip-rule="evenodd" d="M227.017 320.397H220.302C214.433 320.397 209.54 316.465 209.036 311.344L205.327 273.663C204.758 267.88 209.964 262.909 216.593 262.909H223.307C229.176 262.909 234.069 266.841 234.573 271.962L238.282 309.643C238.852 315.427 233.645 320.397 227.017 320.397Z" fill="#CCE3FF"/>
<path fill-rule="evenodd" clip-rule="evenodd" d="M657.938 134.853H685.24L688.927 102.596H661.625L657.938 134.853Z" fill="#DCEEFF"/>
<path fill-rule="evenodd" clip-rule="evenodd" d="M657.938 134.853H685.24L688.927 102.596H661.625L657.938 134.853Z" stroke="#DCEEFF" stroke-width="5"/>
<path fill-rule="evenodd" clip-rule="evenodd" d="M656.464 134.853H684.274L687.961 102.596H660.151L656.464 134.853Z" fill="white"/>
<path fill-rule="evenodd" clip-rule="evenodd" d="M656.464 134.853H684.274L687.961 102.596H660.151L656.464 134.853Z" stroke="#DCEEFF" stroke-width="5"/>
<path fill-rule="evenodd" clip-rule="evenodd" d="M661.791 130.594H679.922L682.635 106.855H664.504L661.791 130.594Z" fill="#DCEEFF"/>
<path fill-rule="evenodd" clip-rule="evenodd" d="M730.044 112.19L727.489 134.539H693.94L696.495 112.19H730.044Z" fill="#DCEEFF"/>
<path fill-rule="evenodd" clip-rule="evenodd" d="M730.044 112.19L727.489 134.539H693.94L696.495 112.19H730.044Z" stroke="#DCEEFF" stroke-width="5"/>
<path fill-rule="evenodd" clip-rule="evenodd" d="M729.292 112.19L726.737 134.539H692.564L695.12 112.19H729.292Z" fill="white"/>
<path fill-rule="evenodd" clip-rule="evenodd" d="M729.292 112.19L726.737 134.539H692.564L695.12 112.19H729.292Z" stroke="#DCEEFF" stroke-width="5"/>
<path fill-rule="evenodd" clip-rule="evenodd" d="M722.088 116.574L720.535 130.154H699.771L701.323 116.574H722.088Z" fill="#CCE3FF"/>
<path fill-rule="evenodd" clip-rule="evenodd" d="M616.632 126.186C616.632 127.896 618.216 129.283 620.17 129.283H651.994V123.088H620.17C618.216 123.088 616.632 124.475 616.632 126.186Z" fill="#CCE3FF"/>
<path fill-rule="evenodd" clip-rule="evenodd" d="M638.037 126.186C638.037 127.176 638.954 127.979 640.085 127.979H651.908C651.956 127.979 651.994 127.946 651.994 127.904V124.466C651.994 124.425 651.956 124.392 651.908 124.392H640.085C638.954 124.392 638.037 125.195 638.037 126.186Z" fill="#DCEEFF"/>
<path fill-rule="evenodd" clip-rule="evenodd" d="M612.19 129.283V135.479H646.926C648.88 135.479 650.463 134.092 650.463 132.381C650.463 130.67 648.88 129.283 646.926 129.283H612.19Z" fill="#CCE3FF"/>
<path fill-rule="evenodd" clip-rule="evenodd" d="M612.19 130.605V134.157H626.472C627.592 134.157 628.5 133.362 628.5 132.381C628.5 131.4 627.592 130.605 626.472 130.605H612.19Z" fill="#DCEEFF"/>
<path fill-rule="evenodd" clip-rule="evenodd" d="M600.914 139.595H720.655V135.189H600.914V139.595Z" fill="#DCEEFF"/>
<path fill-rule="evenodd" clip-rule="evenodd" d="M720.656 139.595H740.354V135.189H720.656V139.595Z" fill="#CCE3FF"/>
<path fill-rule="evenodd" clip-rule="evenodd" d="M630.098 139.595L639.449 152.443V139.595H630.098Z" fill="#B6D4FF"/>
<path fill-rule="evenodd" clip-rule="evenodd" d="M624.924 139.595L634.275 152.443H639.449L630.099 139.595H624.924Z" fill="#CCE3FF"/>
<path fill-rule="evenodd" clip-rule="evenodd" d="M698.681 139.595L708.032 152.443V139.595H698.681Z" fill="#B6D4FF"/>
<path fill-rule="evenodd" clip-rule="evenodd" d="M693.506 139.595L702.857 152.443H708.032L698.681 139.595H693.506Z" fill="#CCE3FF"/>
<path fill-rule="evenodd" clip-rule="evenodd" d="M169.311 335.507H164.057V309.4H169.311V335.507Z" fill="#DCEEFF"/>
<path fill-rule="evenodd" clip-rule="evenodd" d="M125.551 335.507H120.297V309.4H125.551V335.507Z" fill="#DCEEFF"/>
<path fill-rule="evenodd" clip-rule="evenodd" d="M150.789 335.507H145.535V309.4H150.789V335.507Z" fill="#B6D4FF"/>
<path fill-rule="evenodd" clip-rule="evenodd" d="M107.029 335.507H101.775V309.4H107.029V335.507Z" fill="#B6D4FF"/>
<path fill-rule="evenodd" clip-rule="evenodd" d="M150.708 314.032H101.694V261.616H150.708V314.032Z" fill="#B6D4FF"/>
<path fill-rule="evenodd" clip-rule="evenodd" d="M169.311 314.032H120.297V261.616H169.311V314.032Z" fill="#DCEEFF"/>
<path fill-rule="evenodd" clip-rule="evenodd" d="M164.764 307.247H124.845V268.401H164.764V307.247Z" fill="#ECF6FF"/>
<path fill-rule="evenodd" clip-rule="evenodd" d="M137.925 268.401C137.925 271.163 139.389 273.403 141.194 273.403H148.414C150.219 273.403 151.683 271.163 151.683 268.401H137.925Z" fill="#CCE3FF"/>
<path fill-rule="evenodd" clip-rule="evenodd" d="M122.973 261.711H112.779V239.346H122.973V261.711Z" fill="#CCE3FF"/>
<path fill-rule="evenodd" clip-rule="evenodd" d="M116.242 261.711H132.518L126.374 227.978H110.099L116.242 261.711Z" fill="#DCEEFF"/>
<path fill-rule="evenodd" clip-rule="evenodd" d="M119.608 261.711H135.883L129.739 227.978H113.464L119.608 261.711Z" fill="#ECF6FF"/>
<path fill-rule="evenodd" clip-rule="evenodd" d="M121.655 256.506H131.941L127.694 233.183H117.407L121.655 256.506Z" fill="#CCE3FF"/>
<path fill-rule="evenodd" clip-rule="evenodd" d="M145.62 261.711H138.411V245.894H145.62V261.711Z" fill="#CCE3FF"/>
<path fill-rule="evenodd" clip-rule="evenodd" d="M141.454 261.711H152.964L148.619 237.854H137.109L141.454 261.711Z" fill="#DCEEFF"/>
<path fill-rule="evenodd" clip-rule="evenodd" d="M143.834 261.711H155.344L150.999 237.854H139.489L143.834 261.711Z" fill="#ECF6FF"/>
<path fill-rule="evenodd" clip-rule="evenodd" d="M145.593 256.824H151.805L149.24 242.74H143.028L145.593 256.824Z" fill="#DCEEFF"/>
<path fill-rule="evenodd" clip-rule="evenodd" d="M510.705 287.468V288.013C510.705 292.561 514.747 296.245 519.728 296.245H590.403C601.304 296.245 609.694 287.114 608.189 276.882L600.21 219.872C599.519 215.151 595.262 211.637 590.23 211.637H569.283C564.255 211.637 559.998 215.151 559.303 219.872L551.324 276.882C551.263 277.289 551.22 277.696 551.194 278.1L551.151 278.094C551.151 278.094 549.675 287.468 535.956 287.468H510.705Z" fill="#DCEEFF"/>
<path fill-rule="evenodd" clip-rule="evenodd" d="M585.881 360.547C585.881 363.435 588.555 365.777 591.853 365.777C595.152 365.777 597.825 363.435 597.825 360.547C597.825 357.658 595.152 355.316 591.853 355.316C588.555 355.316 585.881 357.658 585.881 360.547Z" fill="#B6D4FF"/>
<path fill-rule="evenodd" clip-rule="evenodd" d="M531.009 361.777H590.519C592.799 361.777 594.664 360.116 594.664 358.085C594.664 356.055 592.799 354.393 590.519 354.393H531.009C528.729 354.393 526.864 356.055 526.864 358.085C526.864 360.116 528.729 361.777 531.009 361.777Z" fill="#CCE3FF"/>
<path fill-rule="evenodd" clip-rule="evenodd" d="M563.75 359.931H557.778V296.245H563.75V359.931Z" fill="#CCE3FF"/>
<path fill-rule="evenodd" clip-rule="evenodd" d="M539.862 296.245L560.764 304.552L581.666 296.245H539.862Z" fill="#CCE3FF"/>
<path fill-rule="evenodd" clip-rule="evenodd" d="M560.204 361.777H567.998C570.298 361.777 572.181 360.116 572.181 358.085C572.181 356.055 570.298 354.393 567.998 354.393H560.204C557.904 354.393 556.021 356.055 556.021 358.085C556.021 360.116 557.904 361.777 560.204 361.777Z" fill="#B6D4FF"/>
<path fill-rule="evenodd" clip-rule="evenodd" d="M565.507 360.547C565.507 363.435 568.181 365.777 571.479 365.777C574.778 365.777 577.451 363.435 577.451 360.547C577.451 357.658 574.778 355.316 571.479 355.316C568.181 355.316 565.507 357.658 565.507 360.547Z" fill="#B6D4FF"/>
<path fill-rule="evenodd" clip-rule="evenodd" d="M523.351 360.547C523.351 363.435 526.025 365.777 529.323 365.777C532.622 365.777 535.295 363.435 535.295 360.547C535.295 357.658 532.622 355.316 529.323 355.316C526.025 355.316 523.351 357.658 523.351 360.547Z" fill="#B6D4FF"/>
<path fill-rule="evenodd" clip-rule="evenodd" d="M542.591 180.986L578.839 181.79L578.867 181.282L579.298 173.498L579.627 167.575C579.733 165.677 577.916 164.126 575.749 164.266L546.601 166.136C544.774 166.251 543.339 167.542 543.248 169.139L543.092 171.937L542.66 179.772L542.591 180.986Z" fill="#2437A8"/>
<path fill-rule="evenodd" clip-rule="evenodd" d="M542.66 179.772C547.902 180.387 554.017 180.871 560.554 181.148C567.235 181.432 573.5 181.462 578.867 181.282L579.298 173.498C573.978 172.864 567.738 172.363 561.055 172.082C554.517 171.806 548.381 171.77 543.092 171.937L542.66 179.772Z" fill="#5E93D1"/>
<path d="M558.323 210.546L558.621 201.566C558.621 201.566 546.143 202.435 543.473 201.222C543.473 201.222 540.211 186.524 544.102 178.384L544.181 178.067L570.513 175.92L572.275 188.255C573.162 185.967 580.198 183.705 582.111 186.981C586.258 194.08 571.43 198.86 571.43 198.86L572.936 210.654" fill="#F395BA"/>
<path opacity="0.398112" fill-rule="evenodd" clip-rule="evenodd" d="M558.621 201.566L567.035 199.988L558.661 204.935L558.621 201.566Z" fill="black"/>
<path fill-rule="evenodd" clip-rule="evenodd" d="M551.679 186.892L548.772 193.108L552.257 193.147L551.679 186.892Z" fill="#EB5757"/>
<path fill-rule="evenodd" clip-rule="evenodd" d="M554.995 188.659C554.822 189.496 555.458 190.297 556.415 190.448C557.372 190.6 558.288 190.044 558.462 189.207C558.635 188.37 557.999 187.569 557.042 187.417C556.085 187.266 555.168 187.821 554.995 188.659Z" fill="#0D0B6D"/>
<path fill-rule="evenodd" clip-rule="evenodd" d="M545.85 188.659C545.677 189.496 546.312 190.297 547.269 190.448C548.227 190.6 549.143 190.044 549.316 189.207C549.49 188.37 548.854 187.569 547.897 187.417C546.939 187.266 546.023 187.821 545.85 188.659Z" fill="#0D0B6D"/>
<path fill-rule="evenodd" clip-rule="evenodd" d="M555.295 194.907C555.295 194.907 554.077 196.634 551.665 196.488L555.295 194.907Z" fill="white"/>
<path d="M555.295 194.907C555.295 194.907 554.077 196.634 551.665 196.488" stroke="#252535" stroke-width="4"/>
<path fill-rule="evenodd" clip-rule="evenodd" d="M542.7 182.955L543.115 181.088C543.83 178.606 565.328 179.553 565.328 179.553L565.035 182.893L565.397 184.489C582.793 184.925 596.291 183.596 596.419 181.301C596.557 178.797 580.725 176.091 561.056 175.258C541.386 174.424 525.329 175.778 525.19 178.282C525.097 179.956 532.143 181.72 542.7 182.955L542.7 182.955Z" fill="#2437A8"/>
<path fill-rule="evenodd" clip-rule="evenodd" d="M569.287 192.111C569.314 192.059 569.341 192.005 569.37 191.951C572.116 186.813 576.93 185.744 578.26 185.543C578.487 183.88 578.66 182.551 578.66 182.551C578.872 180.278 565.328 179.553 565.328 179.553C565.328 179.553 564.006 190.258 564.841 191.171C565.361 191.741 567.189 192.004 569.287 192.111Z" fill="#19141E"/>
<path fill-rule="evenodd" clip-rule="evenodd" d="M481.044 356.207L480.943 348.123L492.091 342.872L493.709 365.983H455.088C461.659 359.062 481.044 356.207 481.044 356.207ZM542.891 355.887L542.785 346.271L554.823 345.737L555.918 355.356L558.718 365.907H530.725C534.244 356.943 542.891 355.887 542.891 355.887Z" fill="#0D0B6D"/>
<path fill-rule="evenodd" clip-rule="evenodd" d="M542.785 346.271L554.59 342.954L555.918 355.356L542.891 355.887L542.785 346.271ZM480.944 348.123L492.091 344.991L492.989 355.705L481.044 356.207L480.944 348.123Z" fill="#F395BA"/>
<path fill-rule="evenodd" clip-rule="evenodd" d="M555.678 263.089H588.341V270.681C588.341 280.115 579.499 287.762 568.592 287.762H558.905H554.192L557.629 351.536H537.323L529.773 287.762H494.502L495.452 351.536H474.8L465.046 286.122C463.299 273.89 474.225 263.089 488.343 263.089H544.013H555.678Z" fill="#19141E"/>
<path opacity="0.101632" fill-rule="evenodd" clip-rule="evenodd" d="M588.341 263.089H544.013C534.855 263.089 527.696 269.922 528.594 277.805L537.323 351.536H557.629L554.192 287.762H568.592C579.499 287.762 588.341 280.115 588.341 270.681V263.089Z" fill="white"/>
<path d="M530.952 235.343L537.89 238.568L539.608 263.863H587.49L588.293 238.342L603.433 228.429C603.433 228.429 596.293 215.893 584.077 210.904C580.894 209.606 576.891 208.917 572.89 208.588C564.869 207.926 556.872 208.694 555.572 208.832L555.389 208.851C555.162 208.91 554.935 208.97 554.715 209.029C554.712 209.029 554.708 209.033 554.704 209.033C554.056 209.208 553.444 209.377 552.861 209.543C544.756 211.866 542.193 213.746 537.652 219.312C533.336 224.603 530.952 235.343 530.952 235.343Z" fill="#FE7A15"/>
<path opacity="0.200219" d="M588.293 238.341L584.453 240.617L575.22 231.231" stroke="black" stroke-width="5"/>
<path fill-rule="evenodd" clip-rule="evenodd" d="M550.514 256.476C550.514 256.476 549.001 256.811 548.973 257.639C548.973 257.874 558.186 259.391 558.186 259.391L556.18 259.494L554.096 259.406C554.096 259.406 553.012 259.582 552.951 260.365C552.929 260.676 554.848 261.008 557.08 261.262C560.552 261.66 563.047 261.309 565.488 260.729C565.693 260.679 565.891 260.635 566.082 260.591L564.098 249.487C563.432 250.017 562.172 250.957 556.749 252.135C555.662 252.37 552.011 252.414 552.011 252.414C550.938 252.549 548.684 252.731 548.529 253.831C548.49 254.104 548.883 254.398 548.883 254.398C548.883 254.398 547.468 254.483 547.381 255.598C547.345 256.037 550.514 256.476 550.514 256.476Z" fill="#18181C"/>
<path fill-rule="evenodd" clip-rule="evenodd" d="M534.81 271.939H568.305L560.794 231.695H527.298L534.81 271.939Z" fill="#18181C"/>
<path fill-rule="evenodd" clip-rule="evenodd" d="M533.01 271.939H566.506L558.994 231.695H525.498L533.01 271.939Z" fill="#5E93D1"/>
<path fill-rule="evenodd" clip-rule="evenodd" d="M572.89 208.588C571.71 210.208 567.99 214.248 560.008 214.658C550.474 215.144 552.638 210.029 552.861 209.543C552.875 209.518 552.883 209.506 552.883 209.506C552.883 209.506 553.592 209.299 554.705 209.033C554.706 209.033 554.708 209.032 554.71 209.031C554.712 209.03 554.714 209.029 554.716 209.029C554.978 208.967 555.266 208.901 555.572 208.832C556.872 208.694 564.869 207.926 572.89 208.588ZM574.16 247.9L571.836 247.209C571.836 247.209 570.345 246.701 567.828 246.297C566.898 246.147 566.119 246.12 565.302 246.092C564.732 246.073 564.143 246.053 563.471 245.989L564.026 249.089C564.13 249.155 564.224 249.233 564.314 249.318C564.263 249.355 564.212 249.396 564.157 249.44L564.098 249.487C563.432 250.017 562.172 250.957 556.749 252.135C555.662 252.37 552.011 252.414 552.011 252.414C551.932 252.424 551.846 252.434 551.754 252.445C550.615 252.581 548.673 252.812 548.529 253.831C548.49 254.103 548.883 254.398 548.883 254.398C548.883 254.398 547.468 254.483 547.381 255.598C547.345 256.037 550.514 256.476 550.514 256.476C550.514 256.476 549.001 256.811 548.973 257.639C548.973 257.874 558.186 259.391 558.186 259.391L556.18 259.494L554.096 259.406C554.096 259.406 553.012 259.582 552.951 260.365C552.93 260.676 554.849 261.008 557.081 261.262C560.552 261.66 563.047 261.309 565.488 260.729C565.637 260.692 565.783 260.659 565.925 260.627L566.082 260.591C566.443 260.508 566.776 260.436 567.09 260.367L567.09 260.367C568.961 259.957 570.18 259.69 572.948 258.378C573.247 258.236 573.576 258.065 573.917 257.877C582.215 258.563 607.366 260.249 609.887 255.739C614.872 246.819 601.752 229.556 601.752 229.556L587.23 238.397L591.845 245.221L574.16 247.9ZM540.808 270.557H533.096L531.366 261.288L527.82 274.475C525.631 276.661 523.104 279.241 522.722 279.876C522.03 281.028 520.748 286.729 520.81 287.856C520.871 288.982 524.862 294.043 524.862 294.043C527.338 293.53 525.721 290.916 525.721 290.916C525.721 290.916 527.939 292.504 528.861 292.477C537.546 292.226 537.081 288.504 536.875 288.038C536.414 286.991 534.096 288.188 534.096 288.188C534.096 288.188 538.122 281.274 537.6 275.991C538.502 274.508 539.611 272.647 540.808 270.557Z" fill="#F395BA"/>
<path opacity="0.199382" d="M532.236 279.356C532.236 279.356 531.018 283.252 526.835 284.467C525.373 284.891 525.738 289.903 522.154 289.304" stroke="black" stroke-width="3"/>
<path fill-rule="evenodd" clip-rule="evenodd" d="M555.865 234.941C556.015 235.608 556.459 236.093 556.857 236.025C557.254 235.957 557.456 235.362 557.306 234.696C557.156 234.03 556.712 233.544 556.314 233.612C555.917 233.68 555.716 234.275 555.865 234.941Z" fill="#020101"/>
<path d="M298.449 176.695C285.112 178.324 290.7 191.777 294.448 199.041C298.848 207.567 294.994 213.284 294.994 213.284L274.378 206.873C281.945 198.446 273.589 193.753 275.646 183.705C277.491 174.691 287.507 170.625 293.835 170.816C296.994 170.912 299.579 171.624 301.626 172.538C301.704 172.573 301.778 172.61 301.849 172.649C305.587 169.287 310.762 167.277 316.743 167.277C329.043 167.277 340.094 175.776 340.094 187.062C340.094 198.347 330.123 207.495 317.823 207.495C305.523 207.495 295.552 198.347 295.552 187.062C295.552 183.205 296.591 179.673 298.449 176.695Z" fill="#19141E"/>
<path fill-rule="evenodd" clip-rule="evenodd" d="M319.999 208.035C319.999 208.035 315.425 208.153 313.476 207.221L319.756 210.674L319.999 208.035Z" fill="#CF3E83"/>
<path d="M337.049 192.938C336.363 197.585 334.584 204.134 330.192 206.693C327.861 208.049 323.616 208.217 319.998 208.034L319.17 217.033L307.364 212.776C307.364 212.776 308.499 202.845 308.991 199.038C306.618 197.155 302.575 196.281 302.568 193.081C302.568 191.972 303.307 190.055 306.038 190.048C309.702 190.045 309.178 193.893 309.178 193.893C309.633 194.047 310.088 194.038 310.542 193.896C314.17 193.764 324.262 192.434 331.124 182.165C331.924 185.622 333.589 189.93 337.049 192.938Z" fill="#F395BA"/>
<path fill-rule="evenodd" clip-rule="evenodd" d="M329.941 193.884L332.558 199.442L329.522 199.388L329.941 193.884Z" fill="#EB5757"/>
<path fill-rule="evenodd" clip-rule="evenodd" d="M327.154 194.125C327.089 195.236 326.344 196.1 325.489 196.057C324.635 196.014 323.995 195.079 324.06 193.969C324.126 192.859 324.871 191.994 325.725 192.037C326.58 192.08 327.22 193.015 327.154 194.125Z" fill="#0D0B6D"/>
<path fill-rule="evenodd" clip-rule="evenodd" d="M335.179 193.948C335.113 195.058 334.368 195.923 333.513 195.88C332.659 195.837 332.019 194.902 332.084 193.792C332.15 192.682 332.895 191.817 333.749 191.86C334.604 191.903 335.244 192.838 335.179 193.948Z" fill="#0D0B6D"/>
<path d="M328.777 202.05C328.777 202.05 326.798 202.61 324.815 200.679" stroke="#1C295E" stroke-width="3"/>
<path opacity="0.402786" fill-rule="evenodd" clip-rule="evenodd" d="M319.991 208.035C319.991 208.035 315.418 208.153 313.468 207.221L319.748 210.674L319.991 208.035Z" fill="black"/>
<path fill-rule="evenodd" clip-rule="evenodd" d="M408.799 316.597L405.152 310.311L396.376 311.469L408.314 328.607L434.498 313.387C425.486 311.627 408.799 316.597 408.799 316.597ZM367.795 349.727L368.708 342.748L360.688 339.487L359.503 359.474L391.165 359.426C384.78 353.626 367.795 349.727 367.795 349.727Z" fill="#0D0B6D"/>
<path fill-rule="evenodd" clip-rule="evenodd" d="M406.076 311.202L397.181 312.829L402.302 320.025L409.677 316.088L406.076 311.202ZM368.717 344.172L360.304 341.243L360.046 349.688L368.645 349.965L368.717 344.172Z" fill="#F395BA"/>
<path d="M381.431 304.536L377.077 345.929H356.909L357.805 285.829L319.31 286.061C308.328 286.061 297.707 277.802 298.468 268.202L299.666 258.429L358.452 243.218C369.335 241.063 373.108 243.91 380.164 254.91L411.316 310.836L394.203 320.852L381.431 304.536Z" fill="#2F2F3D"/>
<path opacity="0.150484" fill-rule="evenodd" clip-rule="evenodd" d="M363.364 261.988L319.31 286.061L357.805 285.829L356.91 345.929H377.077L383.991 280.201C385.697 268.241 377.151 261.988 363.364 261.988Z" fill="#18181C"/>
<path fill-rule="evenodd" clip-rule="evenodd" d="M301.614 258.563L299.17 258.532C299.17 258.532 299.173 258.498 299.177 258.427C300.018 258.479 300.832 258.523 301.614 258.563Z" fill="#C83820"/>
<path d="M351.414 281.759L343.346 282.645L330.352 264.845L329.877 258.929L310.081 258.672L301.631 258.563H301.614C300.832 258.523 300.018 258.48 299.177 258.427C288.534 257.777 273.788 255.964 272.777 250.946C270.941 241.857 284.827 224.219 286.468 222.175C286.571 222.048 286.624 221.979 286.624 221.979C288.951 219.068 291.293 216.803 293.479 215.598C297.73 213.253 301.716 212.739 305.504 212.748L306.519 206.308L321.972 208.176L321.131 213.529C325.669 213.91 328.756 214.687 331.646 217.01C340.924 224.47 341.606 252.408 341.606 252.408L351.414 281.759Z" fill="#0191B4"/>
<path fill-rule="evenodd" clip-rule="evenodd" d="M310.081 258.672V258.796C310.081 258.796 306.537 258.802 301.631 258.563L310.081 258.672Z" fill="#C83820"/>
<path opacity="0.201149" d="M329.593 258.857C330.728 246.236 338.582 243.567 332.923 229.413" stroke="black" stroke-width="3"/>
<path fill-rule="evenodd" clip-rule="evenodd" d="M342.955 274.471L313.443 271.492C312.476 271.394 311.84 270.562 312.105 269.743L323.765 233.661C323.976 233.009 324.696 232.587 325.465 232.664L354.976 235.643C355.943 235.741 356.579 236.573 356.314 237.393L344.654 273.474C344.443 274.127 343.723 274.549 342.955 274.471Z" fill="#18181C"/>
<path d="M316.748 260.987C316.804 261 316.861 261.014 316.918 261.028C318.969 261.518 321.064 261.815 323.979 261.478C325.854 261.263 327.466 260.983 327.448 260.721C327.396 260.059 326.486 259.91 326.486 259.91L324.735 259.984L323.051 259.897C323.051 259.897 330.789 258.615 330.789 258.417C330.765 257.718 329.495 257.434 329.495 257.434C329.495 257.434 332.156 257.063 332.125 256.692C332.053 255.75 330.865 255.678 330.865 255.678C330.865 255.678 331.195 255.429 331.161 255.199C331.031 254.269 329.138 254.116 328.237 254.002C328.237 254.002 325.171 253.965 324.257 253.766C321.856 253.241 320.426 252.772 319.529 252.38L325.522 233.838C325.733 233.186 326.452 232.764 327.221 232.841L356.733 235.821C357.699 235.918 358.336 236.75 358.07 237.57L346.41 273.651C346.199 274.304 345.48 274.726 344.711 274.648L315.199 271.669C314.233 271.571 313.596 270.739 313.861 269.92L316.748 260.987Z" fill="#F8D90F"/>
<path fill-rule="evenodd" clip-rule="evenodd" d="M330.789 258.417C330.765 257.718 329.495 257.434 329.495 257.434C329.495 257.434 332.156 257.063 332.125 256.692C332.053 255.75 330.865 255.678 330.865 255.678C330.865 255.678 331.194 255.429 331.161 255.199C331.041 254.338 329.408 254.142 328.452 254.028C328.375 254.019 328.303 254.01 328.237 254.002C328.237 254.002 325.171 253.965 324.257 253.766C319.703 252.77 318.645 251.976 318.086 251.528C318.069 251.515 318.052 251.501 318.036 251.488C317.99 251.451 317.947 251.417 317.904 251.385C317.935 251.356 317.971 251.306 318.008 251.254C318.061 251.181 318.116 251.103 318.168 251.07L318.946 248.573C318.376 248.627 317.819 248.644 317.267 248.66C316.493 248.684 315.728 248.707 314.953 248.832C312.839 249.174 311.587 249.603 311.587 249.603L308.89 250.411L306.934 256.751C307.674 257.328 309.449 258.467 310.653 259.041C312.978 260.15 314.001 260.376 315.572 260.722C315.836 260.78 316.116 260.842 316.419 260.912C316.454 260.919 316.489 260.927 316.524 260.935C316.651 260.965 316.783 260.995 316.918 261.028C318.969 261.518 321.064 261.815 323.979 261.478C325.854 261.263 327.466 260.983 327.448 260.721C327.396 260.059 326.486 259.91 326.486 259.91L324.735 259.984L323.051 259.897C323.051 259.897 330.789 258.615 330.789 258.417ZM355.716 286.629C355.387 286.063 353.128 283.686 351.274 281.774L343.551 282.622C342.667 287.19 346.341 293.718 346.341 293.718C346.341 293.718 344.43 292.697 344.05 293.59C343.88 293.987 343.497 297.162 350.656 297.375C351.416 297.398 353.244 296.044 353.244 296.044C353.244 296.044 351.911 298.274 353.952 298.712C353.952 298.712 357.242 294.394 357.292 293.434C357.343 292.473 356.287 287.611 355.716 286.629Z" fill="#F395BA"/>
<path opacity="0.148065" d="M347.803 285.006C347.803 285.006 348.808 288.329 352.255 289.365C353.461 289.727 353.16 294.002 356.114 293.491" stroke="black" stroke-width="3"/>
<path fill-rule="evenodd" clip-rule="evenodd" d="M328.521 236.203C328.288 236.842 327.792 237.275 327.413 237.169C327.033 237.064 326.914 236.459 327.147 235.82C327.379 235.18 327.875 234.748 328.254 234.853C328.634 234.959 328.753 235.563 328.521 236.203Z" fill="#020101"/>
<path opacity="0.200498" d="M298.794 231.916L291.345 242.718L309.865 249.136" stroke="black" stroke-width="3"/>
<path fill-rule="evenodd" clip-rule="evenodd" d="M223.613 94.9258H292.612V43.6772H223.613V94.9258Z" fill="#DCEEFF"/>
<path fill-rule="evenodd" clip-rule="evenodd" d="M223.613 94.9258H292.612V43.6772H223.613V94.9258Z" stroke="#DCEEFF" stroke-width="5"/>
<path fill-rule="evenodd" clip-rule="evenodd" d="M219.556 94.9952H288.554V43.7466H219.556V94.9952Z" fill="white"/>
<path fill-rule="evenodd" clip-rule="evenodd" d="M219.556 94.9952H288.554V43.7466H219.556V94.9952Z" stroke="#DCEEFF" stroke-width="5"/>
<path fill-rule="evenodd" clip-rule="evenodd" d="M231.308 84.4068H275.819V54.196H231.308V84.4068Z" fill="#DCEEFF"/>
</svg>
