<svg width="15" height="13" viewBox="0 0 15 13" fill="none" xmlns="http://www.w3.org/2000/svg">
<path d="M0.313213 1.78777C2.3719 3.53126 5.98427 6.59858 7.04599 7.55498C7.18852 7.68406 7.34139 7.74969 7.50009 7.74969C7.65847 7.74969 7.81107 7.68468 7.95328 7.55621C9.01591 6.59888 12.6283 3.53126 14.687 1.78777C14.8152 1.67943 14.8347 1.489 14.7309 1.35655C14.4911 1.05049 14.1334 0.875 13.7501 0.875H1.2501C0.866806 0.875 0.509121 1.05049 0.269267 1.35658C0.165498 1.489 0.185039 1.67943 0.313213 1.78777Z" fill="#0191B4"/>
<path d="M14.8187 2.73259C14.708 2.68102 14.5777 2.69901 14.4855 2.77776C12.2024 4.71317 9.28863 7.19397 8.37188 8.02006C7.85733 8.48453 7.14322 8.48453 6.62748 8.01944C5.65031 7.13901 2.3782 4.35733 0.514512 2.77773C0.421729 2.69898 0.291123 2.68161 0.18126 2.73256C0.0708105 2.78386 0 2.89434 0 3.01609V10.875C0 11.5644 0.560596 12.125 1.25001 12.125H13.75C14.4394 12.125 15 11.5644 15 10.875V3.01609C15 2.89434 14.9292 2.78356 14.8187 2.73259Z" fill="#0191B4"/>
</svg>
