<svg width="93" height="94" viewBox="0 0 93 94" fill="none" xmlns="http://www.w3.org/2000/svg">
<g filter="url(#filter0_ddd)">
<circle cx="46.5206" cy="40.7937" r="20.7024" fill="white"/>
</g>
<path fill-rule="evenodd" clip-rule="evenodd" d="M44.3659 47.9602C43.0473 47.9602 41.794 47.4299 40.8369 46.4673C38.9355 44.5539 38.8574 41.5202 40.6625 39.704L46.5436 33.7878C47.1559 33.1715 47.9824 32.8315 48.8702 32.8315C49.8202 32.8315 50.7231 33.2129 51.4119 33.9057C52.7822 35.284 52.8348 37.4745 51.5281 38.7883L45.6399 44.7036C45.2585 45.0882 44.7449 45.2992 44.1939 45.2992C43.6118 45.2992 43.06 45.0667 42.6412 44.6455C41.8028 43.8006 41.7765 42.4542 42.5831 41.642L48.0175 36.1837C48.328 35.8716 48.8312 35.87 49.1434 36.1806C49.4547 36.4911 49.4563 36.9951 49.1458 37.3065L43.7122 42.7655C43.5211 42.9582 43.5473 43.2982 43.7711 43.5228C43.8873 43.6398 44.0418 43.7067 44.1939 43.7067C44.2815 43.7067 44.4073 43.6852 44.5108 43.5809L50.399 37.6656C51.0894 36.9704 51.0376 35.788 50.2828 35.0284C49.5606 34.3022 48.3352 34.2449 47.6727 34.9105L41.7916 40.8267C40.602 42.0234 40.68 44.0507 41.9668 45.3446C42.6221 46.0047 43.4741 46.3678 44.3659 46.3678C45.1629 46.3678 45.9018 46.0668 46.4449 45.5205L52.3268 39.6044C52.6365 39.2931 53.1405 39.2907 53.4527 39.6012C53.764 39.9118 53.7656 40.415 53.4558 40.7271L47.574 46.6433C46.7299 47.4921 45.5905 47.9602 44.3659 47.9602Z" fill="#231F20"/>
<mask id="mask0" mask-type="alpha" maskUnits="userSpaceOnUse" x="39" y="32" width="15" height="16">
<path fill-rule="evenodd" clip-rule="evenodd" d="M44.3659 47.9602C43.0473 47.9602 41.794 47.4299 40.8369 46.4673C38.9355 44.5539 38.8574 41.5202 40.6625 39.704L46.5436 33.7878C47.1559 33.1715 47.9824 32.8315 48.8702 32.8315C49.8202 32.8315 50.7231 33.2129 51.4119 33.9057C52.7822 35.284 52.8348 37.4745 51.5281 38.7883L45.6399 44.7036C45.2585 45.0882 44.7449 45.2992 44.1939 45.2992C43.6118 45.2992 43.06 45.0667 42.6412 44.6455C41.8028 43.8006 41.7765 42.4542 42.5831 41.642L48.0175 36.1837C48.328 35.8716 48.8312 35.87 49.1434 36.1806C49.4547 36.4911 49.4563 36.9951 49.1458 37.3065L43.7122 42.7655C43.5211 42.9582 43.5473 43.2982 43.7711 43.5228C43.8873 43.6398 44.0418 43.7067 44.1939 43.7067C44.2815 43.7067 44.4073 43.6852 44.5108 43.5809L50.399 37.6656C51.0894 36.9704 51.0376 35.788 50.2828 35.0284C49.5606 34.3022 48.3352 34.2449 47.6727 34.9105L41.7916 40.8267C40.602 42.0234 40.68 44.0507 41.9668 45.3446C42.6221 46.0047 43.4741 46.3678 44.3659 46.3678C45.1629 46.3678 45.9018 46.0668 46.4449 45.5205L52.3268 39.6044C52.6365 39.2931 53.1405 39.2907 53.4527 39.6012C53.764 39.9118 53.7656 40.415 53.4558 40.7271L47.574 46.6433C46.7299 47.4921 45.5905 47.9602 44.3659 47.9602Z" fill="white"/>
</mask>
<g mask="url(#mask0)">
<rect x="36.9658" y="31.2393" width="19.1099" height="19.1099" fill="#707C97"/>
</g>
<defs>
<filter id="filter0_ddd" x="0.818115" y="0.0913086" width="91.4049" height="93.4049" filterUnits="userSpaceOnUse" color-interpolation-filters="sRGB">
<feFlood flood-opacity="0" result="BackgroundImageFix"/>
<feColorMatrix in="SourceAlpha" type="matrix" values="0 0 0 0 0 0 0 0 0 0 0 0 0 0 0 0 0 0 127 0"/>
<feOffset dy="5"/>
<feGaussianBlur stdDeviation="12.5"/>
<feColorMatrix type="matrix" values="0 0 0 0 0.164706 0 0 0 0 0.545098 0 0 0 0 0.94902 0 0 0 0.07 0"/>
<feBlend mode="normal" in2="BackgroundImageFix" result="effect1_dropShadow"/>
<feColorMatrix in="SourceAlpha" type="matrix" values="0 0 0 0 0 0 0 0 0 0 0 0 0 0 0 0 0 0 127 0"/>
<feOffset dy="7"/>
<feGaussianBlur stdDeviation="12.5"/>
<feColorMatrix type="matrix" values="0 0 0 0 0.164706 0 0 0 0 0.545098 0 0 0 0 0.94902 0 0 0 0.03 0"/>
<feBlend mode="normal" in2="effect1_dropShadow" result="effect2_dropShadow"/>
<feColorMatrix in="SourceAlpha" type="matrix" values="0 0 0 0 0 0 0 0 0 0 0 0 0 0 0 0 0 0 127 0"/>
<feOffset dy="10"/>
<feGaussianBlur stdDeviation="7.5"/>
<feColorMatrix type="matrix" values="0 0 0 0 0 0 0 0 0 0 0 0 0 0 0 0 0 0 0.03 0"/>
<feBlend mode="normal" in2="effect2_dropShadow" result="effect3_dropShadow"/>
<feBlend mode="normal" in="SourceGraphic" in2="effect3_dropShadow" result="shape"/>
</filter>
</defs>
</svg>
