<svg width="318" height="168" viewBox="0 0 318 168" fill="none" xmlns="http://www.w3.org/2000/svg">
<path d="M0 16C0 7.16344 7.16344 0 16 0H302C310.837 0 318 7.16344 318 16V168H0V16Z" fill="#BCD1FF"/>
<path d="M0 16C0 7.16344 7.16344 0 16 0H302C310.837 0 318 7.16344 318 16V168H0V16Z" fill="url(#paint0_linear)"/>
<g clip-path="url(#clip0)">
<path d="M209 83.5C209 90.9699 207.378 98.0607 204.468 104.44C199.492 115.346 190.75 124.17 179.906 129.253C177.941 130.173 175.907 130.97 173.813 131.634C171.457 132.386 169.027 132.965 166.532 133.363C166.522 133.365 166.51 133.367 166.499 133.367C165.276 133.563 164.04 133.713 162.79 133.819C162.523 133.841 162.256 133.862 161.988 133.881C161.61 133.905 161.231 133.928 160.849 133.945C160.07 133.982 159.288 134 158.5 134C157.692 134 156.89 133.982 156.093 133.942C155.732 133.926 155.371 133.905 155.01 133.878C154.74 133.86 154.472 133.841 154.204 133.819C152.924 133.712 151.657 133.555 150.406 133.353C149.808 133.256 149.212 133.151 148.623 133.033C146.065 132.526 143.579 131.828 141.178 130.949C139.786 130.442 138.424 129.875 137.092 129.251C136.639 129.038 136.187 128.818 135.74 128.589C134.59 128.008 133.467 127.383 132.37 126.717C126.877 123.391 122.07 119.046 118.207 113.944C115.888 110.881 113.912 107.546 112.333 103.993C109.548 97.7309 108 90.7965 108 83.5C108 55.6093 130.609 33 158.5 33C186.391 33 209 55.6093 209 83.5Z" fill="#FFE152"/>
<path d="M148.623 98.5346V133.033C146.065 132.526 143.579 131.828 141.178 130.949C139.786 130.442 138.424 129.875 137.092 129.251C136.639 129.038 136.188 128.818 135.74 128.589C134.59 128.008 133.467 127.383 132.37 126.717C126.877 123.391 122.07 119.046 118.207 113.944C115.888 110.881 113.912 107.546 112.333 103.993V98.5346C112.333 92.2029 116.633 86.8744 122.472 85.314C122.686 85.2562 122.901 85.2022 123.119 85.1575C123.698 85.0296 124.294 84.9426 124.9 84.8932C125.269 84.8647 125.642 84.8478 126.019 84.8478H134.934C135.929 84.8478 136.9 84.9533 137.837 85.1575C137.89 85.1676 137.944 85.1799 137.997 85.1922C138.154 85.2277 138.313 85.2662 138.467 85.3078C138.471 85.3101 138.475 85.3101 138.479 85.3117C140.021 85.7239 141.454 86.3982 142.73 87.2843C146.291 89.7555 148.623 93.8719 148.623 98.5346Z" fill="#2BA1CF"/>
<path d="M148.623 98.5346V133.033C146.065 132.526 143.579 131.828 141.178 130.949C139.786 130.442 138.424 129.875 137.092 129.251C136.639 129.038 136.187 128.818 135.74 128.589C134.59 128.008 133.467 127.383 132.37 126.717C126.877 123.391 122.07 119.046 118.207 113.944V98.5346C118.207 92.2029 122.507 86.8744 128.346 85.314C128.561 85.2562 128.775 85.2022 128.993 85.1575C129.573 85.0296 130.169 84.9426 130.774 84.8932C131.143 84.8647 131.516 84.8478 131.894 84.8478H134.934C135.929 84.8478 136.9 84.9533 137.837 85.1575C137.89 85.1676 137.944 85.1799 137.997 85.1922C138.154 85.2277 138.313 85.2662 138.467 85.3078C138.471 85.3101 138.475 85.3101 138.479 85.3117C140.021 85.7239 141.454 86.3982 142.73 87.2843C146.291 89.7555 148.623 93.8719 148.623 98.5346Z" fill="#66BAED"/>
<path d="M138.513 85.1567L138.481 85.3116L134.386 104.356C133.993 106.186 132.382 107.513 130.511 107.515C130.5 107.515 130.489 107.515 130.478 107.515C130.466 107.515 130.454 107.515 130.442 107.515C128.57 107.513 126.961 106.186 126.568 104.356L122.473 85.3132L122.44 85.1567H138.513Z" fill="#F2F0EC"/>
<path d="M130.477 90.4514L124.314 93.8758L122.44 85.1568L126.269 82.9021" fill="#D8D5D0"/>
<path d="M130.477 90.4514L136.639 93.8758L138.513 85.1568L134.684 82.9021" fill="#D8D5D0"/>
<path d="M112.079 81.5489V60.9069C112.079 58.8094 112.428 56.7543 113.119 54.7986C115.703 47.4474 122.679 42.5065 130.477 42.5065C131.444 42.5065 132.408 42.5812 133.345 42.7292C137.629 43.3988 141.561 45.5857 144.411 48.8876C147.291 52.2249 148.878 56.4931 148.878 60.9069V81.5489" fill="#CC7A3B"/>
<path d="M119.647 61.7129C119.647 69.0141 123.923 77.4611 126.271 81.5489H112.078V60.9069C112.078 58.8102 112.428 56.7551 113.118 54.7986C115.686 47.4898 122.598 42.5635 130.343 42.5081C124.686 42.6491 119.647 51.7248 119.647 61.7129Z" fill="#A35418"/>
<path d="M135.361 79.5754V85.5689C135.361 87.7627 133.915 89.6175 131.922 90.2332C131.466 90.375 130.98 90.4513 130.478 90.4513C127.781 90.4513 125.595 88.2659 125.595 85.5689V79.5754H135.361Z" fill="#EAB599"/>
<path d="M135.361 85.1891V85.569C135.361 87.7628 133.915 89.6175 131.922 90.2332C130.125 89.6807 128.773 88.1172 128.523 86.2047C128.849 86.2247 129.178 86.2347 129.507 86.2347C130.431 86.2347 131.337 86.1615 132.218 86.0167C133.306 85.8418 134.357 85.562 135.361 85.1891Z" fill="#F6CAAE"/>
<path d="M117.083 69.7539C117.083 72.0147 115.431 73.8895 113.268 74.237C113.033 74.2756 112.789 74.2956 112.541 74.2956C110.033 74.2956 108 72.2628 108 69.7539C108 67.2457 110.033 65.2129 112.541 65.2129C112.789 65.2129 113.033 65.2329 113.268 65.2715C115.431 65.619 117.083 67.493 117.083 69.7539Z" fill="#F6CAAE"/>
<path d="M117.083 69.7539C117.083 72.0147 115.432 73.8895 113.269 74.2371C112.876 72.8092 112.666 71.3058 112.666 69.7539C112.666 68.2027 112.876 66.6993 113.269 65.2715C115.432 65.619 117.083 67.493 117.083 69.7539Z" fill="#EAB599"/>
<path d="M114.164 69.7538C114.164 70.6507 113.438 71.3774 112.541 71.3774C111.645 71.3774 110.918 70.6507 110.918 69.7538C110.918 68.8576 111.645 68.131 112.541 68.131C113.438 68.131 114.164 68.8576 114.164 69.7538Z" fill="#EAB599"/>
<path d="M142.139 63.9552V79.5654C139.726 81.8686 136.632 83.4637 133.19 84.0185C133.163 84.0232 133.134 84.0278 133.107 84.0324C132.251 84.1688 131.374 84.2366 130.478 84.2366C121.147 84.2366 113.582 76.6719 113.582 67.3411V60.9069C113.582 60.0831 113.641 59.2725 113.755 58.4803C117.775 61.3715 123.539 61.0856 127.211 57.615C128.427 56.4661 129.272 55.0983 129.75 53.6473C130.016 56.1879 131.178 58.6607 133.238 60.6079C135.69 62.9227 138.929 64.0392 142.139 63.9552Z" fill="#EAB599"/>
<path d="M142.138 63.9552V79.5654C139.726 81.8686 136.632 83.4637 133.19 84.0185C133.163 84.0232 133.133 84.0278 133.106 84.0324C125.025 82.7694 118.843 75.7758 118.843 67.3411V60.9069C118.843 60.7358 118.846 60.5655 118.853 60.396C121.832 60.7011 124.926 59.7749 127.211 57.6142C128.427 56.4661 129.272 55.0975 129.75 53.6473C130.016 56.1879 131.178 58.6607 133.237 60.6079C135.689 62.9227 138.929 64.0392 142.138 63.9552Z" fill="#F6CAAE"/>
<path d="M139.552 65.9141C139.552 64.3637 138.295 63.1077 136.746 63.1077C135.196 63.1077 133.939 64.3637 133.939 65.9141" fill="#EAB599"/>
<path d="M127.018 65.9141C127.018 64.3637 125.762 63.1077 124.212 63.1077C122.662 63.1077 121.406 64.3637 121.406 65.9141" fill="#EAB599"/>
<path d="M126.129 67.1084C126.129 68.1672 125.271 69.0256 124.212 69.0256C123.153 69.0256 122.295 68.1672 122.295 67.1084C122.295 66.0497 123.153 65.192 124.212 65.192C125.271 65.192 126.129 66.0497 126.129 67.1084Z" fill="#3D4159"/>
<path d="M138.662 67.1084C138.662 68.1672 137.805 69.0256 136.746 69.0256C135.687 69.0256 134.83 68.1672 134.83 67.1084C134.83 66.0497 135.687 65.192 136.746 65.192C137.805 65.192 138.662 66.0497 138.662 67.1084Z" fill="#3D4159"/>
<path d="M132.396 71.9345H128.563C128.106 71.9345 127.736 71.5639 127.736 71.1077C127.736 70.6515 128.106 70.2809 128.563 70.2809H132.396C132.852 70.2809 133.222 70.6515 133.222 71.1077C133.222 71.5639 132.852 71.9345 132.396 71.9345Z" fill="#EAB599"/>
<path d="M130.479 77.1659C129.064 77.1659 127.65 76.8115 126.36 76.1018C125.996 75.9022 125.864 75.4453 126.063 75.0816C126.263 74.7178 126.72 74.5853 127.084 74.7849C129.21 75.9538 131.748 75.9538 133.874 74.7849C134.238 74.5845 134.695 74.7178 134.895 75.0816C135.095 75.4453 134.962 75.9022 134.599 76.1018C133.309 76.8115 131.894 77.1659 130.479 77.1659Z" fill="#EAB599"/>
<path d="M125.739 66.7702C125.739 67.224 125.37 67.5916 124.917 67.5916C124.463 67.5916 124.096 67.224 124.096 66.7702C124.096 66.3163 124.463 65.9487 124.917 65.9487C125.37 65.9487 125.739 66.3163 125.739 66.7702Z" fill="white"/>
<path d="M138.366 66.7702C138.366 67.224 137.998 67.5916 137.545 67.5916C137.091 67.5916 136.724 67.224 136.724 66.7702C136.724 66.3163 137.091 65.9487 137.545 65.9487C137.998 65.9487 138.366 66.3163 138.366 66.7702Z" fill="white"/>
<path d="M141.979 71.7773C141.979 72.9393 141.037 73.8817 139.874 73.8817C138.712 73.8817 137.77 72.9393 137.77 71.7773C137.77 70.6145 138.712 69.6721 139.874 69.6721C141.037 69.6721 141.979 70.6145 141.979 71.7773Z" fill="#EAB599"/>
<path d="M123.187 71.7773C123.187 72.9393 122.246 73.8817 121.083 73.8817C119.921 73.8817 118.979 72.9393 118.979 71.7773C118.979 70.6145 119.921 69.6721 121.083 69.6721C122.246 69.6721 123.187 70.6145 123.187 71.7773Z" fill="#EAB599"/>
<path d="M204.468 98.1184V104.44C199.492 115.346 190.75 124.17 179.906 129.253C177.942 130.173 175.907 130.97 173.813 131.634C171.457 132.386 169.027 132.965 166.533 133.363C166.523 133.365 166.51 133.367 166.5 133.367V98.1184C166.5 90.6054 172.286 84.4416 179.649 83.8483C180.036 83.8151 180.425 83.8013 180.819 83.8013H190.144C191.247 83.8013 192.321 83.9222 193.352 84.1596C199.716 85.6144 204.468 91.3143 204.468 98.1184Z" fill="#BFD5DE"/>
<path d="M204.467 98.1184V104.44C199.492 115.346 190.75 124.17 179.905 129.253C177.941 130.173 175.907 130.97 173.812 131.634V98.1184C173.812 90.2116 180.225 83.8013 188.134 83.8013H190.145C198.057 83.8013 204.467 90.2116 204.467 98.1184Z" fill="#DDE8ED"/>
<path d="M171.467 68.0077C171.467 70.3733 169.739 72.3344 167.477 72.6981C167.23 72.7382 166.975 72.759 166.716 72.759C164.091 72.759 161.964 70.6322 161.964 68.0077C161.964 65.3831 164.091 63.2563 166.716 63.2563C166.975 63.2563 167.23 63.2772 167.477 63.3172C169.739 63.6817 171.467 65.6428 171.467 68.0077Z" fill="#D3A489"/>
<path d="M189.327 88.9664L185.483 95.1325L181.639 88.9664" fill="#F74F4F"/>
<path d="M190.655 112.55L185.483 119.077L180.31 112.55L185.484 93.5282L190.655 112.55Z" fill="#F74F4F"/>
<path d="M171.467 68.0077C171.467 70.3734 169.739 72.3345 167.477 72.6982C167.066 71.204 166.847 69.6313 166.847 68.0077C166.847 66.3849 167.066 64.8122 167.477 63.3173C169.739 63.6817 171.467 65.6428 171.467 68.0077Z" fill="#BF8E75"/>
<path d="M168.414 68.0077C168.414 68.9455 167.653 69.7061 166.716 69.7061C165.778 69.7061 165.018 68.9455 165.018 68.0077C165.018 67.07 165.778 66.3102 166.716 66.3102C167.653 66.3102 168.414 67.07 168.414 68.0077Z" fill="#BF8E75"/>
<path d="M185.481 89.6623L179.035 93.2454L177.074 84.1227L181.079 81.7632" fill="#BFD5DE"/>
<path d="M185.481 89.6623L191.929 93.2454L193.89 84.1227L189.884 81.7632" fill="#BFD5DE"/>
<path d="M199.498 68.0077C199.498 70.3733 201.225 72.3344 203.488 72.6981C203.735 72.7382 203.989 72.759 204.249 72.759C206.873 72.759 209 70.6322 209 68.0077C209 65.3831 206.873 63.2563 204.249 63.2563C203.989 63.2563 203.735 63.2772 203.488 63.3172C201.225 63.6817 199.498 65.6428 199.498 68.0077Z" fill="#D3A489"/>
<path d="M199.498 68.0077C199.498 70.3734 201.225 72.3345 203.488 72.6982C203.899 71.204 204.118 69.6313 204.118 68.0077C204.118 66.3849 203.899 64.8122 203.488 63.3173C201.225 63.6817 199.498 65.6428 199.498 68.0077Z" fill="#BF8E75"/>
<path d="M205.947 68.0077C205.947 68.9455 205.186 69.7061 204.249 69.7061C203.311 69.7061 202.55 68.9455 202.55 68.0077C202.55 67.07 203.311 66.3102 204.249 66.3102C205.186 66.3102 205.947 67.07 205.947 68.0077Z" fill="#BF8E75"/>
<path d="M203.161 65.4825C203.161 74.2794 196.734 81.5774 188.32 82.9321C187.397 83.0839 186.449 83.1602 185.482 83.1602C175.718 83.1602 167.805 75.2464 167.805 65.4825C167.805 60.863 169.409 53.9279 172.31 50.7786C175.54 47.2717 180.338 47.8042 185.482 47.8042C186.449 47.8042 187.396 47.8812 188.32 48.033C196.734 49.3877 203.161 56.685 203.161 65.4825Z" fill="#BF8E75"/>
<path d="M190.592 78.2841V84.5542C190.592 86.8497 189.079 88.79 186.993 89.4342C186.517 89.5821 186.008 89.6623 185.482 89.6623C182.661 89.6623 180.374 87.3752 180.374 84.5542V78.2841H190.592Z" fill="#BF8E75"/>
<path d="M190.592 84.1565V84.5541C190.592 86.8496 189.078 88.7899 186.993 89.4341C185.112 88.8562 183.698 87.2203 183.437 85.2191C183.778 85.2399 184.121 85.2507 184.466 85.2507C185.433 85.2507 186.381 85.1736 187.304 85.0226C188.441 84.8392 189.54 84.5472 190.592 84.1565Z" fill="#D3A489"/>
<path d="M203.161 65.4825C203.161 74.2793 196.734 81.5774 188.319 82.9321C179.906 81.5774 173.479 74.2793 173.479 65.4825C173.479 60.0654 175.916 55.217 179.754 51.9737C182.147 49.9502 185.087 48.5531 188.319 48.0322C196.164 49.2952 202.283 55.7256 203.073 63.7195C203.131 64.2997 203.161 64.8884 203.161 65.4825Z" fill="#D3A489"/>
<path d="M185.483 74.1893C184.002 74.1893 182.523 73.8186 181.173 73.0766C180.792 72.8677 180.653 72.3892 180.863 72.0086C181.072 71.6279 181.55 71.4892 181.931 71.6988C184.155 72.9209 186.811 72.9209 189.035 71.6988C189.415 71.4892 189.894 71.6279 190.103 72.0086C190.312 72.3892 190.174 72.8677 189.793 73.0766C188.444 73.8186 186.963 74.1893 185.483 74.1893Z" fill="#BF8E75"/>
<path d="M181.718 64.4538C181.718 65.5611 180.82 66.4588 179.712 66.4588C178.605 66.4588 177.707 65.5611 177.707 64.4538C177.707 63.3457 178.605 62.448 179.712 62.448C180.82 62.448 181.718 63.3457 181.718 64.4538Z" fill="#3D4159"/>
<path d="M193.258 64.4538C193.258 65.5611 192.36 66.4588 191.253 66.4588C190.145 66.4588 189.247 65.5611 189.247 64.4538C189.247 63.3457 190.145 62.448 191.253 62.448C192.36 62.448 193.258 63.3457 193.258 64.4538Z" fill="#3D4159"/>
<path d="M181.309 64.0994C181.309 64.5741 180.924 64.9594 180.45 64.9594C179.975 64.9594 179.59 64.5741 179.59 64.0994C179.59 63.6255 179.975 63.2402 180.45 63.2402C180.924 63.2402 181.309 63.6255 181.309 64.0994Z" fill="white"/>
<path d="M192.947 64.0994C192.947 64.5741 192.563 64.9594 192.088 64.9594C191.614 64.9594 191.229 64.5741 191.229 64.0994C191.229 63.6255 191.614 63.2402 192.088 63.2402C192.563 63.2402 192.947 63.6255 192.947 64.0994Z" fill="white"/>
<path d="M187.488 69.5026H183.477C182.999 69.5026 182.612 69.115 182.612 68.6373C182.612 68.1595 182.999 67.7727 183.477 67.7727H187.488C187.966 67.7727 188.353 68.1595 188.353 68.6373C188.353 69.115 187.966 69.5026 187.488 69.5026Z" fill="#BF8E75"/>
<path d="M191.303 97.6492H199.01V100.008H191.303V97.6492Z" fill="#BFD5DE"/>
<path d="M184.448 42.7546C189.804 43.1368 194.103 47.4628 194.375 52.9084L194.426 53.931H197.507L199.166 64.964L203.185 63.7203L202.645 52.9092C202.36 47.1885 197.629 42.7053 191.903 42.7269L184.448 42.7546Z" fill="#2A2F4F"/>
<path d="M202.305 38.4872C206.569 42.7515 206.569 49.6658 202.305 53.9302C198.04 58.1945 191.126 58.1945 186.862 53.9302L202.305 38.4872Z" fill="#3D4159"/>
<path d="M186.862 53.9302H173.46L171.8 64.964L167.782 63.7203L168.32 52.9085C168.605 47.1893 173.337 42.7046 179.063 42.7262L198.419 42.7994L200.978 47.405" fill="#3D4159"/>
<path d="M186.517 42.7546C181.162 43.1368 176.862 47.4628 176.59 52.9084L176.539 53.931H173.459L171.799 64.964L167.781 63.7203L168.32 52.9092C168.605 47.1885 173.337 42.7053 179.062 42.7269L186.517 42.7546Z" fill="#2A2F4F"/>
<path d="M179.905 125.467V129.253C173.406 132.298 166.153 134 158.5 134C150.846 134 143.591 132.298 137.092 129.251V125.467C137.092 117.995 142.164 111.71 149.055 109.867C149.307 109.8 149.56 109.737 149.818 109.682C150.502 109.533 151.205 109.43 151.918 109.373C152.355 109.337 152.794 109.319 153.24 109.319H163.756C164.932 109.319 166.077 109.443 167.182 109.682C167.246 109.694 167.31 109.709 167.371 109.723C167.557 109.766 167.742 109.812 167.925 109.861C167.932 109.863 167.934 109.863 167.94 109.865C169.759 110.351 171.451 111.147 172.953 112.192C177.156 115.107 179.905 119.965 179.905 125.467Z" fill="#3D4159"/>
<path d="M167.98 109.682L167.94 109.865L162.79 133.819C162.523 133.841 162.256 133.862 161.988 133.881C161.61 133.905 161.231 133.928 160.849 133.945C160.07 133.982 159.288 134 158.5 134C157.692 134 156.89 133.982 156.093 133.942C155.732 133.926 155.371 133.905 155.01 133.878C154.74 133.86 154.472 133.841 154.204 133.819L149.055 109.867L149.017 109.682H167.98Z" fill="#66BAED"/>
<path d="M162.834 115.146L158.499 122.098L154.164 115.146" fill="#3D4159"/>
<path d="M161.988 133.881C161.61 133.905 161.231 133.928 160.85 133.944C160.071 133.981 159.288 134 158.5 134C157.692 134 156.89 133.981 156.093 133.942C155.732 133.926 155.371 133.905 155.01 133.878L158.5 120.288L161.988 133.881Z" fill="#3D4159"/>
<path d="M158.497 115.929L151.227 119.969L149.016 109.683L153.533 107.022" fill="#2BA1CF"/>
<path d="M158.498 115.929L165.767 119.969L167.979 109.683L163.462 107.022" fill="#2BA1CF"/>
<path d="M168.254 123.564H170.56L166.533 133.363C164.669 133.662 162.773 133.857 160.85 133.945L167.926 109.861L167.98 109.682L172.954 111.306L168.254 123.564Z" fill="#2A2F4F"/>
<path d="M156.093 133.942C154.167 133.854 152.269 133.654 150.406 133.353L146.382 123.564H148.689L143.987 111.306L148.963 109.682L149.017 109.861L156.093 133.942Z" fill="#2A2F4F"/>
<path d="M164.26 103.099V110.169C164.26 112.758 162.553 114.945 160.202 115.672C159.663 115.839 159.09 115.929 158.497 115.929C155.315 115.929 152.737 113.35 152.737 110.169V103.099H164.26Z" fill="#EAB599"/>
<path d="M164.26 109.721V110.169C164.26 112.758 162.553 114.945 160.202 115.673C158.081 115.02 156.486 113.176 156.191 110.919C156.577 110.943 156.964 110.955 157.352 110.955C158.442 110.955 159.511 110.868 160.551 110.698C161.834 110.492 163.073 110.161 164.26 109.721Z" fill="#F6CAAE"/>
<path d="M142.694 91.5109C142.694 94.1778 140.746 96.3893 138.194 96.8001C137.915 96.8447 137.629 96.8686 137.337 96.8686C134.377 96.8686 131.978 94.4706 131.978 91.5109C131.978 88.5511 134.376 86.1523 137.337 86.1523C137.629 86.1523 137.915 86.1762 138.194 86.2217C140.746 86.6324 142.694 88.8439 142.694 91.5109Z" fill="#F6CAAE"/>
<path d="M142.694 91.5109C142.694 94.1778 140.745 96.3893 138.194 96.8C137.731 95.1148 137.483 93.341 137.483 91.5109C137.483 89.68 137.731 87.9069 138.194 86.2217C140.745 86.6324 142.694 88.8439 142.694 91.5109Z" fill="#EAB599"/>
<path d="M139.251 91.5108C139.251 92.568 138.393 93.4257 137.336 93.4257C136.278 93.4257 135.421 92.568 135.421 91.5108C135.421 90.4528 136.278 89.5959 137.336 89.5959C138.393 89.5959 139.251 90.4528 139.251 91.5108Z" fill="#EAB599"/>
<path d="M174.302 91.5109C174.302 94.1778 176.251 96.3893 178.802 96.8001C179.081 96.8447 179.368 96.8686 179.66 96.8686C182.62 96.8686 185.019 94.4706 185.019 91.5109C185.019 88.5511 182.621 86.1523 179.66 86.1523C179.368 86.1523 179.081 86.1762 178.802 86.2217C176.251 86.6324 174.302 88.8439 174.302 91.5109Z" fill="#F6CAAE"/>
<path d="M174.302 91.5109C174.302 94.1778 176.251 96.3893 178.802 96.8C179.265 95.1148 179.513 93.341 179.513 91.5109C179.513 89.68 179.265 87.9069 178.802 86.2217C176.251 86.6324 174.302 88.8439 174.302 91.5109Z" fill="#EAB599"/>
<path d="M178.433 81.0727V88.6636C178.433 98.5839 171.186 106.813 161.697 108.34C161.665 108.345 161.631 108.351 161.6 108.356C160.59 108.518 159.555 108.597 158.498 108.597C147.488 108.597 138.564 99.6727 138.564 88.6644V81.0727C138.564 78.7548 138.96 76.5271 139.69 74.4574C142.417 66.6993 149.809 61.1373 158.498 61.1373H158.499C159.555 61.1373 160.592 61.219 161.603 61.3785C171.138 62.868 178.433 71.1193 178.433 81.0727Z" fill="#EAB599"/>
<path d="M181.575 91.5108C181.575 92.568 180.718 93.4257 179.66 93.4257C178.603 93.4257 177.745 92.568 177.745 91.5108C177.745 90.4528 178.603 89.5959 179.66 89.5959C180.718 89.5959 181.575 90.4528 181.575 91.5108Z" fill="#EAB599"/>
<path d="M178.432 81.0727V88.6636C178.432 98.5831 171.186 106.813 161.697 108.34C161.665 108.345 161.632 108.351 161.599 108.356C152.065 106.866 144.771 98.6155 144.771 88.6636V81.0727C144.771 71.1193 152.066 62.868 161.603 61.3785C171.138 62.868 178.432 71.1193 178.432 81.0727Z" fill="#F6CAAE"/>
<path d="M154.252 87.5023C154.252 88.7514 153.24 89.7639 151.992 89.7639C150.743 89.7639 149.73 88.7514 149.73 87.5023C149.73 86.254 150.743 85.2415 151.992 85.2415C153.24 85.2415 154.252 86.254 154.252 87.5023Z" fill="#3D4159"/>
<path d="M167.267 87.5023C167.267 88.7514 166.254 89.7639 165.005 89.7639C163.756 89.7639 162.744 88.7514 162.744 87.5023C162.744 86.254 163.756 85.2415 165.005 85.2415C166.254 85.2415 167.267 86.254 167.267 87.5023Z" fill="#3D4159"/>
<path d="M153.792 87.1039C153.792 87.6387 153.358 88.0725 152.823 88.0725C152.288 88.0725 151.854 87.6387 151.854 87.1039C151.854 86.5684 152.288 86.1345 152.823 86.1345C153.358 86.1345 153.792 86.5684 153.792 87.1039Z" fill="white"/>
<path d="M166.916 87.1039C166.916 87.6387 166.482 88.0725 165.947 88.0725C165.412 88.0725 164.978 87.6387 164.978 87.1039C164.978 86.5684 165.412 86.1345 165.947 86.1345C166.482 86.1345 166.916 86.5684 166.916 87.1039Z" fill="white"/>
<path d="M160.76 92.31H156.237C155.698 92.31 155.261 91.8731 155.261 91.3344C155.261 90.795 155.698 90.3589 156.237 90.3589H160.76C161.299 90.3589 161.736 90.795 161.736 91.3344C161.735 91.8731 161.298 92.31 160.76 92.31Z" fill="#EAB599"/>
<path d="M158.499 98.4814C156.83 98.4814 155.16 98.063 153.639 97.2262C153.209 96.9904 153.052 96.451 153.289 96.0225C153.525 95.5933 154.064 95.4369 154.493 95.6719C157.001 97.0512 159.996 97.0512 162.504 95.6719C162.933 95.4361 163.473 95.5925 163.708 96.0225C163.945 96.451 163.788 96.9904 163.359 97.2262C161.837 98.063 160.168 98.4814 158.499 98.4814Z" fill="#EAB599"/>
<path d="M178.433 74.1838V81.9597H174.723V75.8699L147.941 70.8935L142.274 69.8401V81.9597H138.564V74.1831C138.564 65.3185 145.749 58.1337 154.612 58.1337H162.385C162.596 58.1337 162.808 58.1375 163.019 58.1483C171.587 58.4781 178.433 65.5304 178.433 74.1838Z" fill="#2A2F4F"/>
<path d="M178.433 74.1839V81.9597H174.723V75.8699L147.941 70.8935C149.417 63.8058 155.566 58.4357 163.019 58.1483C171.587 58.4781 178.433 65.5304 178.433 74.1839Z" fill="#3D4159"/>
</g>
<defs>
<linearGradient id="paint0_linear" x1="0" y1="0" x2="318" y2="168" gradientUnits="userSpaceOnUse">
<stop offset="0.0147897" stop-color="#F8D90F" stop-opacity="0.9"/>
<stop offset="1" stop-color="#FE7A15" stop-opacity="0.9"/>
</linearGradient>
<clipPath id="clip0">
<rect width="101" height="101" fill="white" transform="translate(108 33)"/>
</clipPath>
</defs>
</svg>
