<svg width="213" height="219" viewBox="0 0 213 219" fill="none" xmlns="http://www.w3.org/2000/svg">
<path d="M4.70973 167.356L84.1297 213.51C85.813 214.491 88.5247 214.491 90.208 213.525L210.884 143.844C212.567 142.878 212.567 141.303 210.884 140.322L131.464 94.1678C129.796 93.2015 127.085 93.2015 125.401 94.1678L4.72533 163.834C3.04209 164.815 3.0265 166.389 4.70973 167.356Z" fill="#AABAFD"/>
<path d="M98.5603 172.046C97.6113 172.594 97.6169 173.487 98.5598 174.035L118.137 185.412C119.08 185.96 120.621 185.966 121.57 185.418L160.149 163.144C161.098 162.596 161.093 161.704 160.15 161.156L140.573 149.779C139.63 149.231 138.089 149.224 137.14 149.772L98.5603 172.046Z" fill="#2E4277"/>
<path d="M3.46289 165.61L3.47849 170.256C3.47849 170.879 3.89924 171.518 4.72528 172.001L84.1452 218.155C85.8285 219.121 88.5403 219.121 90.2235 218.155L210.899 148.489C211.741 148.006 212.162 147.367 212.162 146.713L212.146 142.083C212.146 142.722 211.726 143.361 210.884 143.844L90.2079 213.525C88.5247 214.491 85.8129 214.491 84.1297 213.509L4.70969 167.356C3.86814 166.872 3.46289 166.249 3.46289 165.61Z" fill="#798FFE"/>
<path d="M125.166 2.26922C126.848 1.29835 128.215 2.0777 128.221 4.01005L128.436 88.911C128.442 90.8319 127.083 93.1968 125.401 94.1677L6.46428 162.83C4.78265 163.8 3.41496 163.01 3.40949 161.089L3.19435 76.1878C3.18888 74.2554 4.54767 71.9019 6.22931 70.931L125.166 2.26922Z" fill="#1B2A4F"/>
<path d="M0 74.3373L0.218196 159.235C0.218196 160.186 0.561108 160.871 1.10658 161.183L4.29648 163.038C3.75092 162.727 3.4081 162.041 3.4081 161.09L3.1899 76.1924C3.1899 74.2598 4.54582 71.9065 6.22905 70.9246L125.167 2.27058C126.008 1.78745 126.772 1.74076 127.333 2.05239L124.143 0.197334C123.598 -0.114388 122.818 -0.0676937 121.977 0.415438L3.03915 69.0851C1.35592 70.0514 0 72.4047 0 74.3373Z" fill="#384E85"/>
<path d="M7.48633 75.1526L7.69331 157.172L124.143 89.9466L123.936 7.927L7.48633 75.1526Z" fill="#384E85"/>
<path d="M7.48633 75.1526L7.52108 88.9096L123.97 21.6841L123.936 7.927L7.48633 75.1526Z" fill="#AABAFD"/>
<path d="M104.736 24.2025C105.859 23.5543 106.771 24.0522 106.775 25.3421C106.779 26.6321 105.872 28.2028 104.749 28.851C103.646 29.488 102.733 28.9678 102.73 27.6778C102.726 26.3878 103.633 24.8394 104.736 24.2025Z" fill="white"/>
<path d="M111.22 20.4586C112.323 19.8216 113.236 20.3195 113.24 21.6095C113.243 22.8994 112.337 24.4701 111.233 25.1071C110.111 25.7553 109.198 25.235 109.194 23.9451C109.191 22.6551 110.097 21.1068 111.22 20.4586Z" fill="white"/>
<path d="M117.685 16.7261C118.808 16.078 119.72 16.5758 119.724 17.8658C119.728 19.1558 118.821 20.7264 117.698 21.3746C116.576 22.0228 115.663 21.5026 115.659 20.2126C115.656 18.9226 116.562 17.3743 117.685 16.7261Z" fill="white"/>
<path d="M29.064 161.658L21.4411 166.088L18.1572 164.192L25.7801 159.762L29.064 161.658Z" fill="#384E85"/>
<path d="M111.086 113.992L103.453 118.428L100.169 116.532L107.802 112.096L111.086 113.992Z" fill="#384E85"/>
<path d="M131.592 102.076L123.959 106.512L120.675 104.616L128.308 100.18L131.592 102.076Z" fill="#384E85"/>
<path d="M117.91 129.816L110.287 134.246L103.509 130.333L111.132 125.903L117.91 129.816Z" fill="#384E85"/>
<path d="M155.508 127.768L147.875 132.204L141.086 128.284L148.719 123.848L155.508 127.768Z" fill="#384E85"/>
<path d="M165.766 121.807L158.133 126.243L142.798 117.389L150.431 112.953L165.766 121.807Z" fill="#384E85"/>
<path d="M140.138 107.01L126.063 115.189L119.274 111.27L133.349 103.09L140.138 107.01Z" fill="#384E85"/>
<path d="M123.449 116.708L115.816 121.144L109.027 117.225L116.661 112.789L123.449 116.708Z" fill="#384E85"/>
<path d="M148.674 111.938L130.783 122.335L124.005 118.422L141.896 108.025L148.674 111.938Z" fill="#384E85"/>
<path d="M128.167 123.854L120.534 128.29L113.756 124.377L121.389 119.941L128.167 123.854Z" fill="#384E85"/>
<path d="M136.715 128.789L129.082 133.225L122.293 129.305L129.926 124.869L136.715 128.789Z" fill="#384E85"/>
<path d="M113.192 122.67L105.558 127.106L98.7695 123.186L106.403 118.75L113.192 122.67Z" fill="#384E85"/>
<path d="M100.829 119.954L93.2057 124.384L89.9219 122.488L97.5448 118.058L100.829 119.954Z" fill="#384E85"/>
<path d="M90.5802 125.909L82.9469 130.345L79.6631 128.449L87.2964 124.013L90.5802 125.909Z" fill="#384E85"/>
<path d="M95.7033 152.622L88.0699 157.058L81.2812 153.138L88.9146 148.702L95.7033 152.622Z" fill="#384E85"/>
<path d="M80.3227 131.87L72.6998 136.3L69.416 134.404L77.0389 129.974L80.3227 131.87Z" fill="#384E85"/>
<path d="M92.686 134.586L85.0631 139.016L78.2744 135.096L85.8974 130.667L92.686 134.586Z" fill="#384E85"/>
<path d="M70.0764 170.825L62.443 175.261L59.1592 173.365L66.7926 168.929L70.0764 170.825Z" fill="#384E85"/>
<path d="M82.4386 140.541L74.8052 144.977L68.0166 141.058L75.6499 136.622L82.4386 140.541Z" fill="#384E85"/>
<path d="M97.4059 141.732L89.783 146.162L83.0049 142.249L90.6278 137.819L97.4059 141.732Z" fill="#384E85"/>
<path d="M59.8292 143.78L52.1959 148.216L48.9121 146.32L56.5454 141.884L59.8292 143.78Z" fill="#384E85"/>
<path d="M72.1925 146.497L64.5592 150.933L57.7705 147.013L65.4039 142.577L72.1925 146.497Z" fill="#384E85"/>
<path d="M105.952 146.667L98.3287 151.096L91.54 147.177L99.163 142.747L105.952 146.667Z" fill="#384E85"/>
<path d="M87.1585 147.688L79.5252 152.124L72.7471 148.21L80.3805 143.774L87.1585 147.688Z" fill="#384E85"/>
<path d="M49.5705 149.742L41.9371 154.178L38.6533 152.282L46.2867 147.846L49.5705 149.742Z" fill="#384E85"/>
<path d="M61.9328 152.458L54.2994 156.894L47.5107 152.974L55.1442 148.538L61.9328 152.458Z" fill="#384E85"/>
<path d="M76.9104 153.643L69.2771 158.079L62.499 154.165L70.1324 149.729L76.9104 153.643Z" fill="#384E85"/>
<path d="M51.6857 158.413L44.0523 162.849L37.2637 158.93L44.897 154.494L51.6857 158.413Z" fill="#384E85"/>
<path d="M85.4562 158.577L77.8229 163.013L71.0342 159.094L78.6676 154.657L85.4562 158.577Z" fill="#384E85"/>
<path d="M66.6527 159.604L59.0193 164.04L52.2412 160.127L59.8746 155.691L66.6527 159.604Z" fill="#384E85"/>
<path d="M75.1994 164.538L67.566 168.974L60.7773 165.055L68.4107 160.619L75.1994 164.538Z" fill="#384E85"/>
<path d="M114.938 151.345L76.1119 173.908L69.3232 169.989L108.149 147.426L114.938 151.345Z" fill="#384E85"/>
<path d="M64.9523 170.493L57.3189 174.929L50.5303 171.01L58.1636 166.574L64.9523 170.493Z" fill="#384E85"/>
<path d="M56.4051 165.559L38.5242 175.95L31.7461 172.037L49.627 161.646L56.4051 165.559Z" fill="#384E85"/>
<path d="M54.6928 176.455L47.0699 180.884L40.2812 176.965L47.9042 172.535L54.6928 176.455Z" fill="#384E85"/>
<path d="M73.4977 175.428L55.6168 185.819L48.8281 181.9L66.709 171.508L73.4977 175.428Z" fill="#384E85"/>
<path d="M39.3215 155.697L31.6881 160.133L28.4043 158.237L36.0377 153.801L39.3215 155.697Z" fill="#384E85"/>
<path d="M121.333 108.037L113.7 112.473L110.416 110.577L118.049 106.141L121.333 108.037Z" fill="#384E85"/>
<path d="M102.943 128.625L95.3092 133.061L88.5205 129.142L96.1539 124.706L102.943 128.625Z" fill="#384E85"/>
<path d="M124.755 145.639L117.122 150.075L110.333 146.156L117.966 141.72L124.755 145.639Z" fill="#384E85"/>
<path d="M116.209 140.705L108.576 145.141L101.787 141.222L109.421 136.786L116.209 140.705Z" fill="#384E85"/>
<path d="M107.663 135.771L100.03 140.207L93.252 136.294L100.885 131.858L107.663 135.771Z" fill="#384E85"/>
<path d="M145.262 133.723L137.628 138.159L130.84 134.239L138.473 129.803L145.262 133.723Z" fill="#384E85"/>
<path d="M135.002 139.684L127.379 144.114L120.591 140.195L128.214 135.765L135.002 139.684Z" fill="#384E85"/>
<path d="M41.4275 164.375L29.9879 171.023L23.1992 167.103L34.6388 160.455L41.4275 164.375Z" fill="#384E85"/>
<path d="M18.3122 96.8316C19.7901 95.9783 20.6628 96.165 21.2873 96.7308L20.4484 98.091C19.9119 97.5502 19.2231 97.5942 18.3817 98.08C16.6695 99.0685 15.5836 101.22 15.5895 103.288C15.5954 105.348 16.6899 106.257 18.402 105.268C19.2435 104.783 19.9302 104.007 20.4619 102.866L21.3058 103.263C20.6866 104.556 19.8178 105.748 18.3398 106.601C15.9253 107.995 14.2949 106.797 14.2871 104.04C14.2793 101.282 15.8976 98.2256 18.3122 96.8316Z" fill="#D9DDF6"/>
<path d="M23.7559 101.31C24.2534 101.023 24.6792 101.266 24.6808 101.837C24.6824 102.417 24.2594 103.142 23.7618 103.429C23.257 103.72 22.8386 103.482 22.8369 102.902C22.8353 102.33 23.251 101.602 23.7559 101.31Z" fill="#D9DDF6"/>
<path d="M24.3872 95.2312C24.7478 94.6107 24.7488 93.9383 24.3893 93.7294C24.0299 93.5205 23.4462 93.8543 23.0856 94.4748C22.725 95.0953 22.724 95.7677 23.0834 95.9766C23.4428 96.1855 24.0266 95.8517 24.3872 95.2312Z" fill="#D9DDF6"/>
<path d="M26.5552 88.3672L30.5668 99.6936L29.579 100.264L25.5674 88.9375L26.5552 88.3672Z" fill="#D9DDF6"/>
<path d="M34.3727 82.5483L41.3756 86.5475L34.4182 98.6067L33.295 97.9667L39.1513 87.8317L33.2568 84.481L34.3727 82.5483Z" fill="#D9DDF6"/>
<path d="M49.1952 86.5635L49.2037 89.5733L41.8796 93.8019L41.8711 90.792L49.1952 86.5635Z" fill="#D9DDF6"/>
</svg>
