<svg width="1417" height="1019" viewBox="0 0 1417 1019" fill="none" xmlns="http://www.w3.org/2000/svg">
<g filter="url(#filter0_f)">
<path fill-rule="evenodd" clip-rule="evenodd" d="M557.327 546.531C557.327 617.062 500.102 674.239 429.511 674.239C358.92 674.239 301.695 617.062 301.695 546.531C301.695 475.999 358.92 418.823 429.511 418.823C500.102 418.823 557.327 475.999 557.327 546.531Z" fill="#ECF6FF"/>
<path d="M429.511 509.622V770.833" stroke="#B6D4FF" stroke-width="8"/>
<path d="M429.511 630.737L457.964 602.308" stroke="#B6D4FF" stroke-width="8"/>
<path d="M430.585 545.402L445.236 530.764" stroke="#B6D4FF" stroke-width="8"/>
<path d="M429.511 588.323L402.242 561.078" stroke="#B6D4FF" stroke-width="8"/>
<path fill-rule="evenodd" clip-rule="evenodd" d="M1071.83 634.66C1071.83 695.469 1032.09 722.759 983.26 722.759C934.435 722.759 894.694 695.469 894.694 634.66C894.694 521.385 943.029 415.603 983.26 415.603C1023.49 415.603 1071.83 521.385 1071.83 634.66Z" fill="#ECF6FF"/>
<path d="M983.262 536.207V773.232" stroke="#CCE3FF" stroke-width="8" stroke-linecap="square"/>
<path d="M984.874 682.851L1017.76 649.987" stroke="#CCE3FF" stroke-width="8" stroke-linecap="square"/>
<path d="M984.336 577.12L1004.77 556.698" stroke="#CCE3FF" stroke-width="8" stroke-linecap="square"/>
<path d="M982.188 634.86L951.864 604.562" stroke="#CCE3FF" stroke-width="8" stroke-linecap="square"/>
<path fill-rule="evenodd" clip-rule="evenodd" d="M867.333 612.928C867.333 674.46 827.183 708.788 774.89 708.788C722.596 708.788 682.446 674.46 682.446 612.928C682.446 483.375 741.449 334.02 774.89 334.02C808.331 334.02 867.333 483.375 867.333 612.928Z" fill="#CCE3FF"/>
<path d="M774.89 521.404V805.41" stroke="#ECF6FF" stroke-width="8" stroke-linecap="square"/>
<path d="M775.995 671.855L808.713 639.131" stroke="#ECF6FF" stroke-width="8" stroke-linecap="square"/>
<path d="M772.151 609.505L745.377 582.727" stroke="#ECF6FF" stroke-width="8" stroke-linecap="square"/>
<path d="M776.501 567.557L796.94 547.115" stroke="#ECF6FF" stroke-width="8" stroke-linecap="square"/>
<path fill-rule="evenodd" clip-rule="evenodd" d="M744.628 836.279L769.932 954.273H786.671L761.367 836.279H744.628Z" fill="#CCE3FF"/>
<path fill-rule="evenodd" clip-rule="evenodd" d="M337.828 836.278H771.102V818.025H337.828V836.278Z" fill="#D7EBFF"/>
<path fill-rule="evenodd" clip-rule="evenodd" d="M679.231 902.38H763.706V884.127H679.231V902.38Z" fill="#D7EBFF"/>
<path fill-rule="evenodd" clip-rule="evenodd" d="M427.35 716.155L408.361 818.025H431.277L450.266 716.155H427.35Z" fill="#CCE3FF"/>
<path fill-rule="evenodd" clip-rule="evenodd" d="M757.628 716.155L738.639 818.025H761.554L780.543 716.155H757.628Z" fill="#CCE3FF"/>
<path fill-rule="evenodd" clip-rule="evenodd" d="M669.499 836.279H771.102V818.026H669.499V836.279Z" fill="#B6D4FF"/>
<path fill-rule="evenodd" clip-rule="evenodd" d="M803.396 782.56L799.999 800.817H777.08L780.484 782.56H803.396Z" fill="#CCE3FF"/>
<path fill-rule="evenodd" clip-rule="evenodd" d="M780.484 782.56L777.08 800.817H391.448L394.852 782.56H780.484Z" fill="#D7EBFF"/>
<path fill-rule="evenodd" clip-rule="evenodd" d="M809.583 749.359L806.186 767.609H783.267L786.67 749.359H809.583Z" fill="#CCE3FF"/>
<path fill-rule="evenodd" clip-rule="evenodd" d="M786.671 749.359L783.268 767.609H397.636L401.039 749.359H786.671Z" fill="#D7EBFF"/>
<path fill-rule="evenodd" clip-rule="evenodd" d="M792.857 716.157L789.461 734.408H812.373L815.77 716.157H792.857Z" fill="#CCE3FF"/>
<path fill-rule="evenodd" clip-rule="evenodd" d="M407.232 716.157L403.828 734.408H789.461L792.858 716.157H407.232Z" fill="#D7EBFF"/>
<path fill-rule="evenodd" clip-rule="evenodd" d="M679.232 836.279L653.928 954.273H670.667L695.971 836.279H679.232Z" fill="#CCE3FF"/>
<path fill-rule="evenodd" clip-rule="evenodd" d="M413.154 836.278L438.458 954.273H455.196L429.893 836.278H413.154Z" fill="#CCE3FF"/>
<path fill-rule="evenodd" clip-rule="evenodd" d="M347.757 902.379H432.232V884.127H347.757V902.379Z" fill="#D7EBFF"/>
<path fill-rule="evenodd" clip-rule="evenodd" d="M347.757 836.278L322.453 954.273H339.193L364.496 836.278H347.757Z" fill="#CCE3FF"/>
</g>
<path fill-rule="evenodd" clip-rule="evenodd" d="M1207.06 451.546C1201.1 470.593 1187.83 479.405 1182.07 497.126C1174.66 519.918 1188.56 521.028 1182.48 539.732C1179.32 549.425 1260.48 596.636 1293.42 572.333C1314.56 556.738 1299.52 550.053 1308.15 523.518C1316.7 497.25 1298.6 488.11 1303.1 474.261C1309.1 455.832 1300.76 426.9 1276.61 419.027C1247.2 409.439 1216.06 422.758 1207.06 451.546Z" fill="#19141E"/>
<path fill-rule="evenodd" clip-rule="evenodd" d="M1239.55 508.734C1239.55 508.734 1248.13 511.813 1252.48 510.998L1238.15 514.595L1239.55 508.734Z" fill="#CF3E83"/>
<path d="M1264.04 497.701C1259.9 501.163 1259.16 507.257 1259.62 511.11C1259.77 512.431 1260.03 523.188 1260.39 523.787C1261.77 526.11 1234.79 528.717 1234.79 528.717L1239.55 508.734C1232.57 506.897 1224.65 503.914 1221.19 499.536C1210.89 486.494 1219.98 455.881 1220.69 454.433L1235.74 445.677C1235.74 445.677 1254.88 443.411 1256.34 447.503C1259.03 454.996 1261.16 485.3 1269.99 484.802C1269.99 484.802 1271.71 476.156 1278.65 478.428C1283.82 480.122 1283.87 484.731 1283.09 487.128C1280.44 495.22 1269.6 493.033 1264.04 497.701Z" fill="#F395BA"/>
<path fill-rule="evenodd" clip-rule="evenodd" d="M1230.3 473.143L1221.43 483.555L1227.22 485.314L1230.3 473.143Z" fill="#EB5757"/>
<path fill-rule="evenodd" clip-rule="evenodd" d="M1235.41 475.385C1234.75 477.828 1235.55 480.161 1237.2 480.595C1238.85 481.029 1240.72 479.4 1241.38 476.957C1242.03 474.514 1241.23 472.182 1239.58 471.748C1237.93 471.314 1236.06 472.943 1235.41 475.385Z" fill="#0D0B6D"/>
<path fill-rule="evenodd" clip-rule="evenodd" d="M1220.33 470.048C1219.68 472.491 1220.48 474.824 1222.13 475.258C1223.78 475.692 1225.65 474.063 1226.3 471.62C1226.96 469.177 1226.16 466.845 1224.51 466.411C1222.86 465.977 1220.99 467.606 1220.33 470.048Z" fill="#0D0B6D"/>
<path fill-rule="evenodd" clip-rule="evenodd" d="M1239 424.943C1238.59 424.138 1238.14 423.354 1237.65 422.594C1235.87 423.451 1234.14 424.413 1232.47 425.483C1223.52 431.227 1216.45 439.918 1212.92 450.733C1212.83 451.007 1212.74 451.274 1212.66 451.55L1212.65 451.548L1209.79 460.31C1210.13 460.408 1210.47 460.491 1210.82 460.569C1217.64 462.073 1224.52 460.738 1230.06 457.252C1232.12 455.956 1233.99 454.363 1235.61 452.512C1235.86 452.241 1236.09 451.949 1236.32 451.672C1237.51 450.181 1238.53 448.54 1239.36 446.768C1253.67 485.495 1269.99 484.802 1269.99 484.802L1272.37 467.191L1293.98 453.627C1293.98 453.627 1251.67 420.097 1239 424.943Z" fill="#19141E"/>
<path fill-rule="evenodd" clip-rule="evenodd" d="M1239 424.943C1238.59 424.138 1238.14 423.354 1237.65 422.594C1235.87 423.451 1234.14 424.413 1232.47 425.483C1223.52 431.227 1216.45 439.918 1212.92 450.733C1212.83 451.007 1212.74 451.274 1212.66 451.55L1212.65 451.548L1209.79 460.31C1210.13 460.408 1210.47 460.491 1210.82 460.569C1217.64 462.073 1224.52 460.738 1230.06 457.252C1232.12 455.956 1233.99 454.363 1235.61 452.512C1235.86 452.241 1236.09 451.949 1236.32 451.672C1237.51 450.181 1238.53 448.54 1239.36 446.768C1253.67 485.495 1269.99 484.802 1269.99 484.802L1272.37 467.191L1293.98 453.627C1293.98 453.627 1251.67 420.097 1239 424.943Z" fill="#19141E"/>
<path d="M1226.75 491.535C1226.75 491.535 1230.11 493.966 1235.22 491.012" stroke="#1C295E" stroke-width="3"/>
<path opacity="0.396996" fill-rule="evenodd" clip-rule="evenodd" d="M1239.56 508.738C1239.56 508.738 1248.14 511.817 1252.49 511.003L1238.17 514.599L1239.56 508.738Z" fill="black"/>
<path fill-rule="evenodd" clip-rule="evenodd" d="M1362.35 935.63L1345.09 918.345L1351.09 900.862L1387.37 930.814L1362.77 987.176C1362.77 987.176 1360.6 971.725 1360.71 955.944C1360.79 945.042 1362.35 935.63 1362.35 935.63ZM1153.75 977.573L1157.64 962.785L1175.36 963.448L1161.42 1004.81L1106.16 970.152C1122.84 964.267 1153.75 977.573 1153.75 977.573Z" fill="#0D0B6D"/>
<path fill-rule="evenodd" clip-rule="evenodd" d="M1349.44 922.75L1351.34 900.846L1372.61 918.415L1362.35 935.63L1349.44 922.75ZM1160.6 951.323L1178.73 954.707L1168.36 983.873L1153.75 977.574L1160.6 951.323Z" fill="#F395BA"/>
<path d="M1251.8 851.78C1279.94 907.853 1328.4 955.39 1328.4 955.39L1371.78 890.997C1371.78 890.997 1313.99 840.206 1286.71 728.046C1291.3 709.619 1294.55 694.44 1295.7 684.711C1299.45 652.854 1280.52 631.404 1275.44 626.285H1273.11L1216.03 626.285C1214.81 630.828 1209.98 656.291 1211.65 693.802C1206.61 710.561 1200.71 730.791 1193.88 755.075C1154.97 893.309 1136.93 954.271 1136.93 954.271L1210.89 980.677C1210.89 980.677 1232.12 917.043 1251.8 851.78Z" fill="#0D0B6D"/>
<path opacity="0.14688" fill-rule="evenodd" clip-rule="evenodd" d="M1136.93 954.271L1210.89 980.677C1210.89 980.677 1233.11 914.088 1253.15 847.283C1265.67 805.61 1278.39 761.475 1286.71 728.046C1291.3 709.619 1294.55 694.44 1295.7 684.711C1299.45 652.854 1280.52 631.404 1275.44 626.285H1233.56C1230.08 635.702 1223.06 655.898 1211.65 693.802C1206.61 710.561 1200.71 730.791 1193.88 755.075C1154.97 893.309 1136.93 954.271 1136.93 954.271Z" fill="white"/>
<path fill-rule="evenodd" clip-rule="evenodd" d="M1225.81 534.787C1230.05 527.611 1235.72 523.598 1235.72 523.598L1261.65 522.345C1261.65 522.345 1259.44 528.042 1257.1 535.368C1252.48 549.85 1241.52 553.105 1231.97 553.088C1223.04 553.074 1220.01 544.604 1225.81 534.787ZM1161.94 576.859C1162.4 572.299 1162.58 566.843 1161.14 564.889C1158.48 561.303 1145.35 550.463 1145.35 550.463L1144.64 559.509L1141.54 548.889C1141.54 548.889 1138.09 549.91 1134.76 551.656C1132.36 552.914 1130.05 554.62 1128.61 555.691C1128.26 555.946 1127.97 556.165 1127.73 556.333C1125.97 557.59 1131.1 576.921 1134.76 580.4C1137.27 582.788 1144.68 584.639 1149.08 585.565C1157.48 599.138 1179.85 633.052 1192.22 630.254C1205.06 627.348 1216.98 582.408 1216.98 582.408L1195.31 571.845L1185.88 600.945L1161.94 576.859ZM1309.15 675.345L1303.88 688.842C1303.88 688.842 1303.08 692.317 1302.63 696.424C1302.61 696.61 1302.59 696.793 1302.57 696.973C1302.16 700.765 1301.89 703.309 1299.29 709.192C1297.4 713.486 1303.53 712.203 1305.27 709.804C1305.91 708.919 1306.43 707.052 1306.98 705.11C1307.97 701.628 1309.02 697.907 1310.91 699.196C1313.86 701.202 1314.75 711.409 1314.09 721.047C1313.99 722.561 1315.04 723.797 1315.79 724.232C1317.01 724.938 1318.78 718.974 1318.78 718.974C1318.78 718.974 1319.42 721.069 1321.36 720.194C1322.05 719.884 1324.09 715.826 1324.09 715.826C1324.09 715.826 1325.68 713.826 1326.51 711.593C1327.98 707.651 1329.18 700.334 1328.9 698.184C1328.23 693.117 1326.73 684.564 1324.75 679.827C1325.92 667.652 1330.39 618.774 1327.92 609.489C1325.1 598.864 1319.56 584.467 1319.56 584.467L1298.32 596.974L1307.42 616.436L1309.15 675.345Z" fill="#F395BA"/>
<path fill-rule="evenodd" clip-rule="evenodd" d="M1134.35 551.93C1136.31 550.807 1138.17 549.967 1139.08 550.18C1140.68 550.553 1137.76 554.744 1135.63 557.503L1135.65 557.608C1139.09 558.994 1143.6 561.048 1144.32 562.552C1144.83 563.602 1142.85 563.945 1140.4 563.992C1142.66 565.074 1144.62 566.243 1145.08 567.193C1145.67 568.409 1142.92 568.677 1139.97 568.634C1142.58 569.824 1145.02 571.177 1145.54 572.25C1146.2 573.617 1142.64 573.786 1139.32 573.661L1140.17 577.398C1140.44 578.543 1141.48 579.339 1142.65 579.287L1155.4 578.729C1156.92 578.663 1158.01 577.236 1157.67 575.754L1148.63 536.229C1148.37 535.084 1147.33 534.288 1146.16 534.34L1133.4 534.898C1131.89 534.965 1130.8 536.391 1131.14 537.873L1134.35 551.93Z" fill="#020101"/>
<path d="M1131.75 553.533C1134.46 551.767 1137.76 549.872 1139.08 550.18C1140.69 550.556 1137.71 554.818 1135.57 557.576C1139.02 558.962 1143.59 561.036 1144.32 562.552C1144.83 563.602 1142.85 563.945 1140.4 563.992C1142.66 565.074 1144.62 566.243 1145.08 567.193C1145.67 568.409 1142.92 568.677 1139.97 568.634C1142.58 569.824 1145.02 571.177 1145.54 572.25C1146.41 574.061 1139.9 573.769 1136.31 573.479L1137.24 577.526C1137.5 578.671 1138.54 579.467 1139.72 579.415L1152.47 578.858C1153.98 578.791 1155.07 577.364 1154.73 575.882L1145.7 536.357C1145.43 535.212 1144.39 534.417 1143.22 534.468L1130.47 535.026C1128.95 535.093 1127.86 536.52 1128.2 538.001L1131.75 553.533Z" fill="#5E93D1"/>
<path fill-rule="evenodd" clip-rule="evenodd" d="M1142.41 539.705C1142.71 541 1143.47 541.92 1144.11 541.758C1144.76 541.597 1145.04 540.416 1144.74 539.121C1144.44 537.825 1143.68 536.906 1143.04 537.067C1142.39 537.228 1142.11 538.409 1142.41 539.705Z" fill="#020101"/>
<path fill-rule="evenodd" clip-rule="evenodd" d="M1143.9 546.408C1144.2 547.703 1144.96 548.623 1145.6 548.461C1146.25 548.3 1146.53 547.119 1146.23 545.824C1145.94 544.528 1145.17 543.609 1144.53 543.77C1143.88 543.931 1143.6 545.112 1143.9 546.408Z" fill="#020101"/>
<path d="M1253.1 522.758L1261.65 522.345C1261.65 522.345 1259.44 528.042 1257.1 535.368C1252.48 549.85 1241.52 553.105 1231.97 553.088C1223.04 553.074 1220.01 544.604 1225.81 534.787C1229.54 528.466 1234.39 524.599 1235.49 523.767C1224.22 524.53 1217.21 525.946 1210.71 532.045C1198.34 543.658 1188.32 565.067 1184.21 586.217L1206.81 596.315L1214.86 627.455L1274.02 626.553C1274.02 626.553 1273.51 620.849 1274.78 612.607C1276.44 601.826 1282.44 593.781 1282.44 593.781L1288.39 602.834L1325.4 580.999C1313.28 558.885 1296.38 536.085 1285.12 528.83C1277.16 523.702 1269.87 522.415 1262.75 522.345C1259.51 522.314 1256.26 522.534 1253.1 522.758Z" fill="#FE7A15"/>
<path opacity="0.202962" d="M1214.6 627.997C1212.34 599.27 1197.4 592.491 1208.67 560.274" stroke="black" stroke-width="3"/>
<path opacity="0.202055" d="M1235.72 523.598C1235.72 523.598 1230.05 527.611 1225.81 534.787C1220.01 544.604 1223.04 553.074 1231.97 553.088C1241.52 553.105 1252.48 549.85 1257.1 535.368C1259.44 528.042 1261.65 522.345 1261.65 522.345" stroke="black" stroke-width="3"/>
<path opacity="0.202962" d="M1267.25 573.671L1280.97 594.488" stroke="black" stroke-width="3"/>
<path fill-rule="evenodd" clip-rule="evenodd" d="M226.186 422.944C226.186 433.641 219.315 442.311 210.84 442.311C202.366 442.311 195.495 433.641 195.495 422.944C195.495 412.248 202.366 403.577 210.84 403.577C219.315 403.577 226.186 412.248 226.186 422.944Z" fill="#19141E"/>
<path d="M189.872 499.668L189.23 477.424C189.23 477.424 216.172 479.576 221.936 476.572C221.936 476.572 228.98 440.16 220.579 419.996L220.408 419.211L163.553 412.538L160.365 445.271C158.45 439.604 142.644 433.177 138.512 441.293C129.558 458.879 161.573 470.721 161.573 470.721L158.322 499.935" fill="#F395BA"/>
<path opacity="0.398926" fill-rule="evenodd" clip-rule="evenodd" d="M189.23 477.423L171.062 473.515L189.143 485.769L189.23 477.423Z" fill="black"/>
<path fill-rule="evenodd" clip-rule="evenodd" d="M203.753 444.855L210.031 460.254L202.507 460.35L203.753 444.855Z" fill="#EB5757"/>
<path fill-rule="evenodd" clip-rule="evenodd" d="M197.058 445.448C197.432 447.522 196.059 449.507 193.993 449.881C191.926 450.257 189.947 448.88 189.574 446.806C189.2 444.733 190.572 442.748 192.639 442.373C194.706 441.998 196.684 443.374 197.058 445.448Z" fill="#0D0B6D"/>
<path fill-rule="evenodd" clip-rule="evenodd" d="M218.154 445.448C218.529 447.522 217.156 449.507 215.089 449.881C213.022 450.257 211.043 448.88 210.67 446.806C210.296 444.733 211.668 442.748 213.735 442.373C215.802 441.998 217.78 443.374 218.154 445.448Z" fill="#0D0B6D"/>
<path d="M164.587 450.858C159.196 441.602 151.397 438.779 147.896 437.951C146.5 433.902 145.435 429.206 144.688 424.212C142.682 410.846 152.368 398.651 160.193 395.149C168.113 391.605 181.769 386.694 201.758 393.36C215.197 397.845 223.787 387.108 231.694 391.694C245.207 399.532 232.638 433.848 198.374 425.131C173.864 418.895 173.234 420.459 173.024 424.992C172.345 439.644 170.067 448.263 164.587 450.858Z" fill="#2F2F3D"/>
<path fill-rule="evenodd" clip-rule="evenodd" d="M193.302 460.923C193.302 460.923 195.717 465.326 200.938 465.222L193.302 460.923Z" fill="white"/>
<path d="M193.302 460.923C193.302 460.923 195.717 465.326 200.938 465.222" stroke="#252535" stroke-width="4"/>
<path fill-rule="evenodd" clip-rule="evenodd" d="M201.93 445.632C201.93 450.453 198.034 454.361 193.229 454.361C188.424 454.361 184.528 450.453 184.528 445.632C184.528 440.812 188.424 436.903 193.229 436.903C198.034 436.903 201.93 440.812 201.93 445.632Z" stroke="#252535" stroke-width="4"/>
<path fill-rule="evenodd" clip-rule="evenodd" d="M223.839 445.632C223.839 450.453 219.943 454.361 215.138 454.361C210.332 454.361 206.436 450.453 206.436 445.632C206.436 440.812 210.332 436.903 215.138 436.903C219.943 436.903 223.839 440.812 223.839 445.632Z" stroke="#252535" stroke-width="4"/>
<path d="M205.728 446.037H201.966" stroke="#252535" stroke-width="4"/>
<path d="M184.528 445.633H163.034" stroke="#252535" stroke-width="4"/>
<path fill-rule="evenodd" clip-rule="evenodd" d="M212.247 999.617L212.458 981.373L188.977 969.526L185.57 1021.68H266.921C253.079 1006.06 212.247 999.617 212.247 999.617ZM108.04 1000.33L108.252 979.837L92.9435 992.323L80.6251 999.194L76.5596 1021.68H132.239C125.238 1002.58 108.04 1000.33 108.04 1000.33Z" fill="#0D0B6D"/>
<path fill-rule="evenodd" clip-rule="evenodd" d="M108.252 979.838L84.771 972.769L80.6243 999.194L108.04 1000.33L108.252 979.838ZM212.458 981.374L188.977 974.306L187.084 998.484L212.247 999.616L212.458 981.374Z" fill="#F395BA"/>
<path d="M215.823 975.392L215.282 992.323H184.309L184.852 975.341C181.382 973.947 178.903 970.594 178.819 966.632L173.833 713.03L119.964 969.062C119.205 972.664 116.538 975.461 113.152 976.492L111.127 992.323H78.6519L81.4468 974.844C78.7425 972.745 77.1753 969.291 77.7144 965.602L127.309 626.264L172.128 626.264L172.125 626.134H226.408L223.154 966.157C223.109 970.629 220.004 974.369 215.823 975.392Z" fill="#2F2F3D"/>
<path opacity="0.197824" fill-rule="evenodd" clip-rule="evenodd" d="M173.558 717.049L183.062 674.841L175.911 802.806L173.558 717.049Z" fill="black"/>
<path d="M138.905 626.584L144.107 627.434L87.3783 973.243L82.161 972.371L138.905 626.584Z" fill="#EFEFEF"/>
<path fill-rule="evenodd" clip-rule="evenodd" d="M300.968 509.947L300.596 503.508C300.596 503.508 300.603 499.028 301.184 494.192C301.33 492.979 301.651 491.71 301.993 490.355C303.014 486.309 304.23 481.495 301.572 475.099C298.024 466.569 306.506 472.459 308.384 476.516C309.11 478.084 309.322 480.455 309.531 482.806C309.774 485.525 310.014 488.219 311.045 489.615C312.67 488.733 313.751 487.583 313.751 487.583L332.034 463.98C332.623 463.187 333.711 462.949 334.583 463.417L335.567 463.951C336.603 464.515 336.931 465.835 336.268 466.799C334.999 468.652 332.785 471.777 330.471 475.043L330.471 475.044C326.271 480.971 321.743 487.364 321.935 487.464L322.419 488.05L343.893 465.516C344.563 464.767 345.689 464.633 346.516 465.204L347.806 466.094C348.745 466.74 348.946 468.03 348.245 468.92C345.956 471.863 340.287 478.237 335.568 483.543C331.485 488.133 328.114 491.925 328.255 492.004L328.896 492.619L348.886 475.047C349.594 474.261 350.802 474.172 351.622 474.832L352.598 475.626C353.455 476.316 353.582 477.569 352.881 478.415L334.002 496.083L334.546 496.936L350.936 485.476C351.689 484.809 352.822 484.809 353.582 485.469L354.037 485.877C354.842 486.589 354.931 487.813 354.23 488.636C353.115 489.95 350.907 491.676 348.274 493.733L348.274 493.734C345.245 496.102 341.653 498.909 338.519 502.032C336.792 503.753 335.4 505.44 333.99 507.149L333.989 507.149C331.685 509.94 329.332 512.791 325.393 515.947C323.042 517.838 320.915 518.938 318.89 519.985C318.603 520.133 318.319 520.28 318.037 520.427L300.968 509.947ZM153.607 495.175C153.607 495.175 166.238 495.15 175.355 495.12C184.47 495.089 195.934 498.924 195.934 498.924C195.934 498.924 201.898 512.332 181.178 511.118C160.458 509.902 153.607 495.175 153.607 495.175ZM84.5192 549.432C84.5192 549.432 64.2989 579.8 64.7573 596.689C65.2984 616.602 128.91 665.531 128.91 665.531L145.395 652.095L105.349 596.233L119.913 565.194L84.5192 549.432Z" fill="#F395BA"/>
<path d="M140.605 627.745L150.452 640.966L120.791 666.832C120.791 666.832 66.3614 626.919 64.6807 595.624C63.6104 575.692 81.0402 547.239 81.0402 547.239C81.0402 547.239 102.917 512.258 128.207 500.452C133.397 498.029 145.98 496.008 153.607 495.175C155.945 494.919 154.547 495.831 155.35 497.373C156.189 498.985 158.741 501.373 160.507 503.158C164.182 506.873 171.426 509.686 175.317 510.262C178.282 510.7 184.012 511.381 186.769 511.011C189.525 510.64 192.522 509.395 193.323 508.656C194.124 507.916 195.316 506.991 195.934 505.565C196.552 504.139 196.52 504.548 196.52 503.233C196.52 501.918 196.453 502.112 196.324 501.486C196.195 500.86 196.195 500.484 196.119 500.161C195.784 498.73 195.934 498.924 195.934 498.924C210.863 503.435 218.425 505.105 223.863 511.667L265.426 540.849L293.864 503.724L330.557 528.372C330.557 528.372 298.069 588.929 274.523 595.624C255.557 601.017 236.342 584.245 229.587 577.518L237.613 618.284C238.9 625.322 232.74 627.986 227.251 627.737L140.605 627.745Z" fill="#0191B4"/>
<path opacity="0.201242" fill-rule="evenodd" clip-rule="evenodd" d="M229.461 577.542L224.493 557.902L237.906 584.743L229.461 577.542Z" fill="black"/>
<path opacity="0.200591" d="M136.922 623.012L113.759 590.146L141.738 547.695" stroke="black" stroke-width="5"/>
<path fill-rule="evenodd" clip-rule="evenodd" d="M1113.21 667.612H1125.13V136.474H1113.21V667.612Z" fill="#D7EBFF"/>
<path fill-rule="evenodd" clip-rule="evenodd" d="M990.675 149.992L896.3 118.674C892.358 117.366 890.201 113.066 891.508 109.12L896.216 94.9033C897.523 90.957 901.818 88.7985 905.76 90.1064L1000.14 121.424C1004.08 122.732 1006.23 127.032 1004.93 130.978L1000.22 145.195C998.913 149.141 994.618 151.3 990.675 149.992Z" fill="#ECF6FF"/>
<path fill-rule="evenodd" clip-rule="evenodd" d="M1096.31 864.534H1142.03V688.503H1096.31V864.534Z" fill="#CCE3FF"/>
<path fill-rule="evenodd" clip-rule="evenodd" d="M1106 721.332H1132.34V661.101H1106V721.332Z" fill="#CCE3FF"/>
<path fill-rule="evenodd" clip-rule="evenodd" d="M1108.21 149.171H1130.13V123.633H1108.21V149.171Z" fill="#CCE3FF"/>
<path d="M958.68 107.922C958.68 107.922 1119.17 143.444 1119.17 229.784" stroke="#DCEEFF" stroke-width="15" stroke-linejoin="bevel"/>
<path fill-rule="evenodd" clip-rule="evenodd" d="M1001.21 140.387L897.753 106.054C888.495 102.983 883.431 92.8846 886.5 83.6162L887.429 80.8093C890.498 71.5409 900.585 66.471 909.844 69.5436L1013.3 103.876C1022.56 106.948 1027.63 117.046 1024.56 126.315L1023.63 129.122C1020.56 138.39 1010.47 143.46 1001.21 140.387Z" fill="#CCE3FF"/>
<defs>
<filter id="filter0_f" x="166" y="228.562" width="1075.84" height="984.438" filterUnits="userSpaceOnUse" color-interpolation-filters="sRGB">
<feFlood flood-opacity="0" result="BackgroundImageFix"/>
<feBlend mode="normal" in="SourceGraphic" in2="BackgroundImageFix" result="shape"/>
<feGaussianBlur stdDeviation="2.5" result="effect1_foregroundBlur"/>
</filter>
</defs>
</svg>
