<svg width="15" height="15" viewBox="0 0 15 15" fill="none" xmlns="http://www.w3.org/2000/svg">
<path d="M14.5919 11.0085L12.4986 8.91519C11.751 8.16759 10.48 8.46666 10.181 9.43852C9.95671 10.1114 9.2091 10.4852 8.53626 10.3356C7.04105 9.96184 5.02251 8.01807 4.64871 6.4481C4.42443 5.77522 4.87299 5.02762 5.54584 4.80336C6.51772 4.50432 6.81676 3.23339 6.06916 2.48579L3.97586 0.392493C3.37778 -0.130831 2.48065 -0.130831 1.95733 0.392493L0.536881 1.81294C-0.883569 3.30815 0.686402 7.27046 4.20015 10.7842C7.71389 14.298 11.6762 15.9427 13.1714 14.4475L14.5919 13.027C15.1152 12.4289 15.1152 11.5318 14.5919 11.0085Z" fill="#0191B4"/>
</svg>
