<svg width="15" height="15" viewBox="0 0 15 15" fill="none" xmlns="http://www.w3.org/2000/svg">
<path d="M8.46729 15H4.16064C2.22213 15 0.64502 13.4229 0.64502 11.4844V3.51562C0.64502 1.57711 2.22213 0 4.16064 0H9.55127C11.4898 0 13.0669 1.57711 13.0669 3.51562V7.82227C13.0669 8.14588 12.8046 8.4082 12.481 8.4082C12.1573 8.4082 11.895 8.14588 11.895 7.82227V3.51562C11.895 2.22328 10.8436 1.17188 9.55127 1.17188H4.16064C2.8683 1.17188 1.81689 2.22328 1.81689 3.51562V11.4844C1.81689 12.7767 2.8683 13.8281 4.16064 13.8281H8.46729C8.7909 13.8281 9.05322 14.0904 9.05322 14.4141C9.05322 14.7377 8.7909 15 8.46729 15ZM13.7296 14.3736C14.5634 13.5398 14.5634 12.1829 13.7296 11.3491L11.6756 9.29511C11.082 8.70149 10.3331 8.30074 9.50979 8.13615L7.84971 7.80434C7.65767 7.76599 7.45909 7.82607 7.32055 7.96459C7.18203 8.10311 7.12191 8.30165 7.16029 8.49375L7.49211 10.1539C7.65667 10.9771 8.05742 11.726 8.65104 12.3196L10.705 14.3736C11.1219 14.7905 11.6696 14.999 12.2173 14.999C12.765 14.999 13.3126 14.7905 13.7296 14.3736ZM9.28007 9.28529C9.87567 9.40433 10.4175 9.69425 10.8469 10.1237L12.9009 12.1777C13.0835 12.3603 13.1841 12.6031 13.1841 12.8613C13.1841 13.1195 13.0835 13.3623 12.9009 13.5449C12.7183 13.7275 12.4755 13.8281 12.2173 13.8281C11.959 13.8281 11.7163 13.7275 11.5337 13.5449L9.4797 11.491C9.05023 11.0615 8.76031 10.5197 8.64128 9.92414L8.48167 9.12571L9.28007 9.28529ZM10.6938 5.39062C10.6938 5.06701 10.4315 4.80469 10.1079 4.80469H9.11182C8.62719 4.80469 8.23291 4.41041 8.23291 3.92578V2.92969C8.23291 2.60607 7.97059 2.34375 7.64697 2.34375C7.32336 2.34375 7.06104 2.60607 7.06104 2.92969V3.92578C7.06104 5.05658 7.98102 5.97656 9.11182 5.97656H10.1079C10.4315 5.97656 10.6938 5.71424 10.6938 5.39062ZM5.91846 7.67578H4.39502C4.07141 7.67578 3.80908 7.41346 3.80908 7.08984C3.80908 6.76623 4.07141 6.50391 4.39502 6.50391H5.91846C6.24207 6.50391 6.50439 6.76623 6.50439 7.08984C6.50439 7.41346 6.24207 7.67578 5.91846 7.67578ZM6.21143 9.43359C6.21143 9.10998 5.9491 8.84766 5.62549 8.84766H4.39502C4.07141 8.84766 3.80908 9.10998 3.80908 9.43359C3.80908 9.75721 4.07141 10.0195 4.39502 10.0195H5.62549C5.9491 10.0195 6.21143 9.75721 6.21143 9.43359ZM6.91455 11.7773C6.91455 11.4537 6.65223 11.1914 6.32861 11.1914H4.39502C4.07141 11.1914 3.80908 11.4537 3.80908 11.7773C3.80908 12.101 4.07141 12.3633 4.39502 12.3633H6.32861C6.65223 12.3633 6.91455 12.101 6.91455 11.7773Z" fill="#0191B4"/>
</svg>
