<svg width="25" height="25" viewBox="0 0 25 25" fill="none" xmlns="http://www.w3.org/2000/svg">
<path fill-rule="evenodd" clip-rule="evenodd" d="M5.63989 11.3696C5.63989 8.06063 8.33089 5.36963 11.6399 5.36963C14.9489 5.36963 17.6399 8.06063 17.6399 11.3696C17.6399 14.6786 14.9489 17.3696 11.6399 17.3696C8.33089 17.3696 5.63989 14.6786 5.63989 11.3696ZM21.3469 19.6626L17.9519 16.2666C19.0049 14.9126 19.6399 13.2156 19.6399 11.3696C19.6399 6.95863 16.0509 3.36963 11.6399 3.36963C7.22889 3.36963 3.63989 6.95863 3.63989 11.3696C3.63989 15.7806 7.22889 19.3696 11.6399 19.3696C13.4859 19.3696 15.1829 18.7346 16.5369 17.6816L19.9329 21.0766C20.1279 21.2716 20.3839 21.3696 20.6399 21.3696C20.8959 21.3696 21.1519 21.2716 21.3469 21.0766C21.7379 20.6856 21.7379 20.0536 21.3469 19.6626Z" fill="#231F20"/>
<mask id="mask0" mask-type="alpha" maskUnits="userSpaceOnUse" x="3" y="3" width="19" height="19">
<path fill-rule="evenodd" clip-rule="evenodd" d="M5.63989 11.3696C5.63989 8.06063 8.33089 5.36963 11.6399 5.36963C14.9489 5.36963 17.6399 8.06063 17.6399 11.3696C17.6399 14.6786 14.9489 17.3696 11.6399 17.3696C8.33089 17.3696 5.63989 14.6786 5.63989 11.3696ZM21.3469 19.6626L17.9519 16.2666C19.0049 14.9126 19.6399 13.2156 19.6399 11.3696C19.6399 6.95863 16.0509 3.36963 11.6399 3.36963C7.22889 3.36963 3.63989 6.95863 3.63989 11.3696C3.63989 15.7806 7.22889 19.3696 11.6399 19.3696C13.4859 19.3696 15.1829 18.7346 16.5369 17.6816L19.9329 21.0766C20.1279 21.2716 20.3839 21.3696 20.6399 21.3696C20.8959 21.3696 21.1519 21.2716 21.3469 21.0766C21.7379 20.6856 21.7379 20.0536 21.3469 19.6626Z" fill="white"/>
</mask>
<g mask="url(#mask0)">
<rect x="0.639893" y="0.369629" width="24" height="24" fill="#707C97"/>
</g>
</svg>
