<svg width="85" height="84" viewBox="0 0 85 84" fill="none" xmlns="http://www.w3.org/2000/svg">
<g filter="url(#filter0_ddd)">
<circle cx="39.1105" cy="38.9684" r="15.925" fill="url(#paint0_linear)"/>
</g>
<g filter="url(#filter1_dd)">
<path fill-rule="evenodd" clip-rule="evenodd" d="M40.2167 45.6038C40.2028 45.6038 40.1895 45.6031 40.1763 45.6025C39.8763 45.5846 39.6262 45.3669 39.5665 45.0723L38.5459 40.0513C38.4929 39.7899 38.2891 39.5862 38.0277 39.5331L33.0067 38.5119C32.7121 38.4528 32.4945 38.2027 32.4765 37.9028C32.4586 37.6022 32.6437 37.3275 32.9291 37.2333L43.5457 33.6946C43.7839 33.6136 44.0467 33.676 44.2245 33.8545C44.4023 34.0323 44.464 34.2951 44.3851 34.5333L40.8458 45.1499C40.7555 45.4227 40.5007 45.6038 40.2167 45.6038Z" fill="#231F20"/>
<mask id="mask0" mask-type="alpha" maskUnits="userSpaceOnUse" x="32" y="33" width="13" height="13">
<path fill-rule="evenodd" clip-rule="evenodd" d="M40.2167 45.6038C40.2028 45.6038 40.1895 45.6031 40.1763 45.6025C39.8763 45.5846 39.6262 45.3669 39.5665 45.0723L38.5459 40.0513C38.4929 39.7899 38.2891 39.5862 38.0277 39.5331L33.0067 38.5119C32.7121 38.4528 32.4945 38.2027 32.4765 37.9028C32.4586 37.6022 32.6437 37.3275 32.9291 37.2333L43.5457 33.6946C43.7839 33.6136 44.0467 33.676 44.2245 33.8545C44.4023 34.0323 44.464 34.2951 44.3851 34.5333L40.8458 45.1499C40.7555 45.4227 40.5007 45.6038 40.2167 45.6038Z" fill="white"/>
</mask>
<g mask="url(#mask0)">
<rect x="31.1482" y="31.0059" width="15.925" height="15.925" fill="white"/>
</g>
</g>
<defs>
<filter id="filter0_ddd" x="0.185547" y="0.043457" width="83.8499" height="83.8499" filterUnits="userSpaceOnUse" color-interpolation-filters="sRGB">
<feFlood flood-opacity="0" result="BackgroundImageFix"/>
<feColorMatrix in="SourceAlpha" type="matrix" values="0 0 0 0 0 0 0 0 0 0 0 0 0 0 0 0 0 0 127 0"/>
<feOffset dx="4" dy="6"/>
<feGaussianBlur stdDeviation="5"/>
<feColorMatrix type="matrix" values="0 0 0 0 0.00392157 0 0 0 0 0.568627 0 0 0 0 0.705882 0 0 0 0.15 0"/>
<feBlend mode="normal" in2="BackgroundImageFix" result="effect1_dropShadow"/>
<feColorMatrix in="SourceAlpha" type="matrix" values="0 0 0 0 0 0 0 0 0 0 0 0 0 0 0 0 0 0 127 0"/>
<feOffset dx="2" dy="2"/>
<feGaussianBlur stdDeviation="12.5"/>
<feColorMatrix type="matrix" values="0 0 0 0 0.00392157 0 0 0 0 0.568627 0 0 0 0 0.705882 0 0 0 0.05 0"/>
<feBlend mode="normal" in2="effect1_dropShadow" result="effect2_dropShadow"/>
<feColorMatrix in="SourceAlpha" type="matrix" values="0 0 0 0 0 0 0 0 0 0 0 0 0 0 0 0 0 0 127 0"/>
<feOffset dx="4" dy="4"/>
<feGaussianBlur stdDeviation="12.5"/>
<feColorMatrix type="matrix" values="0 0 0 0 0.00392157 0 0 0 0 0.568627 0 0 0 0 0.705882 0 0 0 0.15 0"/>
<feBlend mode="normal" in2="effect2_dropShadow" result="effect3_dropShadow"/>
<feBlend mode="normal" in="SourceGraphic" in2="effect3_dropShadow" result="shape"/>
</filter>
<filter id="filter1_dd" x="29.1482" y="30.0059" width="19.925" height="19.925" filterUnits="userSpaceOnUse" color-interpolation-filters="sRGB">
<feFlood flood-opacity="0" result="BackgroundImageFix"/>
<feColorMatrix in="SourceAlpha" type="matrix" values="0 0 0 0 0 0 0 0 0 0 0 0 0 0 0 0 0 0 127 0"/>
<feOffset dy="1"/>
<feGaussianBlur stdDeviation="0.5"/>
<feColorMatrix type="matrix" values="0 0 0 0 0 0 0 0 0 0 0 0 0 0 0 0 0 0 0.03 0"/>
<feBlend mode="normal" in2="BackgroundImageFix" result="effect1_dropShadow"/>
<feColorMatrix in="SourceAlpha" type="matrix" values="0 0 0 0 0 0 0 0 0 0 0 0 0 0 0 0 0 0 127 0"/>
<feOffset dy="1"/>
<feGaussianBlur stdDeviation="1"/>
<feColorMatrix type="matrix" values="0 0 0 0 0 0 0 0 0 0 0 0 0 0 0 0 0 0 0.03 0"/>
<feBlend mode="normal" in2="effect1_dropShadow" result="effect2_dropShadow"/>
<feBlend mode="normal" in="SourceGraphic" in2="effect2_dropShadow" result="shape"/>
</filter>
<linearGradient id="paint0_linear" x1="31.148" y1="28.3518" x2="47.073" y2="48.9215" gradientUnits="userSpaceOnUse">
<stop stop-color="#35BBCA"/>
<stop offset="0.934101" stop-color="#0191B4"/>
</linearGradient>
</defs>
</svg>
