<svg width="15" height="16" viewBox="0 0 15 16" fill="none" xmlns="http://www.w3.org/2000/svg">
<g clip-path="url(#clip0)">
<path d="M7.49989 7.65217C8.76054 7.65217 9.7825 6.56208 9.7825 5.21738C9.7825 3.87268 8.76054 2.78259 7.49989 2.78259C6.23924 2.78259 5.21729 3.87268 5.21729 5.21738C5.21729 6.56208 6.23924 7.65217 7.49989 7.65217Z" fill="#0191B4"/>
<path d="M12.0652 9.04346C12.9657 9.04346 13.6957 8.26483 13.6957 7.30434C13.6957 6.34385 12.9657 5.56522 12.0652 5.56522C11.1648 5.56522 10.4348 6.34385 10.4348 7.30434C10.4348 8.26483 11.1648 9.04346 12.0652 9.04346Z" fill="#0191B4"/>
<path d="M2.98126 9.04346C3.88172 9.04346 4.61168 8.26483 4.61168 7.30434C4.61168 6.34385 3.88172 5.56522 2.98126 5.56522C2.0808 5.56522 1.35083 6.34385 1.35083 7.30434C1.35083 8.26483 2.0808 9.04346 2.98126 9.04346Z" fill="#0191B4"/>
<path d="M7.49988 8.34784C5.16248 8.34784 3.26074 10.3763 3.26074 12.8696C3.26074 13.0616 3.40684 13.2174 3.58684 13.2174H11.4129C11.5929 13.2174 11.739 13.0616 11.739 12.8696C11.739 10.3763 9.83728 8.34784 7.49988 8.34784Z" fill="#0191B4"/>
<path d="M3.54326 9.81427C3.34369 9.76904 3.14086 9.73914 2.93478 9.73914C1.31674 9.73914 0 11.1437 0 12.8696C0 13.0616 0.146097 13.2174 0.326097 13.2174H2.66869C2.63216 13.1082 2.60868 12.992 2.60868 12.8696C2.60868 11.728 2.95826 10.6741 3.54326 9.81427Z" fill="#0191B4"/>
<path d="M12.0653 9.73914C11.8592 9.73914 11.6564 9.76904 11.4568 9.81427C12.0418 10.6741 12.3914 11.728 12.3914 12.8696C12.3914 12.992 12.3679 13.1082 12.3314 13.2174H14.6739C14.8539 13.2174 15 13.0616 15 12.8696C15 11.1437 13.6833 9.73914 12.0653 9.73914Z" fill="#0191B4"/>
</g>
<defs>
<clipPath id="clip0">
<rect width="15" height="16" fill="white"/>
</clipPath>
</defs>
</svg>
