<svg width="15" height="15" viewBox="0 0 15 15" fill="none" xmlns="http://www.w3.org/2000/svg">
<path d="M13.9014 3.51562H1.09863C0.977285 3.51562 0.878906 3.614 0.878906 3.73535V9.27243C0.878906 9.39378 0.977285 9.49216 1.09863 9.49216C1.21998 9.49216 1.31836 9.39378 1.31836 9.27243V3.95508H13.6816V13.6816H1.31836V10.1513C1.31836 10.03 1.21998 9.93161 1.09863 9.93161C0.977285 9.93161 0.878906 10.03 0.878906 10.1513V13.9014C0.878906 14.0227 0.977285 14.1211 1.09863 14.1211H13.9014C14.0227 14.1211 14.1211 14.0227 14.1211 13.9014V3.73535C14.1211 3.614 14.0227 3.51562 13.9014 3.51562Z" fill="#0191B4"/>
<path d="M14.7803 0.878906H13.2422V0.65918C13.2422 0.295693 12.9465 0 12.583 0C12.2195 0 11.9238 0.295693 11.9238 0.65918V0.878906H10.7007V0.65918C10.7007 0.295693 10.405 0 10.0415 0C9.67802 0 9.38232 0.295693 9.38232 0.65918V0.878906H8.15918V0.65918C8.15918 0.295693 7.86349 0 7.5 0C7.13651 0 6.84082 0.295693 6.84082 0.65918V0.878906H5.61768V0.65918C5.61768 0.295693 5.32198 0 4.9585 0C4.59501 0 4.29932 0.295693 4.29932 0.65918V0.878906H3.07617V0.65918C3.07617 0.295693 2.78048 0 2.41699 0C2.05351 0 1.75781 0.295693 1.75781 0.65918V0.878906H0.219727C0.0983789 0.878906 0 0.977285 0 1.09863V14.7803C0 14.9016 0.0983789 15 0.219727 15H14.7803C14.9016 15 15 14.9016 15 14.7803V1.09863C15 0.977285 14.9016 0.878906 14.7803 0.878906ZM12.3633 0.65918C12.3633 0.538008 12.4618 0.439453 12.583 0.439453C12.7042 0.439453 12.8027 0.538008 12.8027 0.65918V1.53809C12.8027 1.65926 12.7042 1.75781 12.583 1.75781C12.4618 1.75781 12.3633 1.65926 12.3633 1.53809V0.65918ZM9.82178 0.65918C9.82178 0.538008 9.92033 0.439453 10.0415 0.439453C10.1627 0.439453 10.2612 0.538008 10.2612 0.65918V1.53809C10.2612 1.65926 10.1627 1.75781 10.0415 1.75781C9.92033 1.75781 9.82178 1.65926 9.82178 1.53809V0.65918ZM7.28027 0.65918C7.28027 0.538008 7.37883 0.439453 7.5 0.439453C7.62117 0.439453 7.71973 0.538008 7.71973 0.65918V1.53809C7.71973 1.65926 7.62117 1.75781 7.5 1.75781C7.37883 1.75781 7.28027 1.65926 7.28027 1.53809V0.65918ZM4.73877 0.65918C4.73877 0.538008 4.83732 0.439453 4.9585 0.439453C5.07967 0.439453 5.17822 0.538008 5.17822 0.65918V1.53809C5.17822 1.65926 5.07967 1.75781 4.9585 1.75781C4.83732 1.75781 4.73877 1.65926 4.73877 1.53809V0.65918ZM2.19727 0.65918C2.19727 0.538008 2.29582 0.439453 2.41699 0.439453C2.53816 0.439453 2.63672 0.538008 2.63672 0.65918V1.53809C2.63672 1.65926 2.53816 1.75781 2.41699 1.75781C2.29582 1.75781 2.19727 1.65926 2.19727 1.53809V0.65918ZM1.75781 1.31836V1.53809C1.75781 1.90157 2.05351 2.19727 2.41699 2.19727C2.78048 2.19727 3.07617 1.90157 3.07617 1.53809V1.31836H4.29932V1.53809C4.29932 1.90157 4.59501 2.19727 4.9585 2.19727C5.32198 2.19727 5.61768 1.90157 5.61768 1.53809V1.31836H6.84082V1.53809C6.84082 1.90157 7.13651 2.19727 7.5 2.19727C7.86349 2.19727 8.15918 1.90157 8.15918 1.53809V1.31836H9.38232V1.53809C9.38232 1.90157 9.67802 2.19727 10.0415 2.19727C10.405 2.19727 10.7007 1.90157 10.7007 1.53809V1.31836H11.9238V1.53809C11.9238 1.90157 12.2195 2.19727 12.583 2.19727C12.9465 2.19727 13.2422 1.90157 13.2422 1.53809V1.31836H14.5605V2.63672H0.439453V1.31836H1.75781ZM0.439453 14.5605V3.07617H14.5605V14.5605H0.439453Z" fill="#0191B4"/>
<path d="M6.87012 7.73435C6.74877 7.73435 6.65039 7.83272 6.65039 7.95407V8.61325H5.1123C4.5065 8.61325 4.01367 9.10608 4.01367 9.71188V13.0225C4.01367 13.1438 4.11205 13.2422 4.2334 13.2422H10.8252C10.9465 13.2422 11.0449 13.1438 11.0449 13.0225V9.71188C11.0449 9.10608 10.5521 8.61325 9.94629 8.61325H8.4082V7.95407C8.4082 7.83272 8.30982 7.73435 8.18848 7.73435H7.74902V7.27277C8.24988 7.1707 8.62793 6.72683 8.62793 6.19626C8.62793 5.97495 8.5623 5.76149 8.43917 5.5805L7.71199 4.49218C7.67121 4.43115 7.60269 4.39453 7.5293 4.39453C7.45591 4.39453 7.38738 4.43115 7.3466 4.49218L6.62042 5.57897C6.49626 5.76146 6.43063 5.97492 6.43063 6.19623C6.43063 6.7268 6.80868 7.17067 7.30954 7.27274V7.73432H6.87012V7.73435ZM6.87012 6.19626C6.87012 6.06346 6.90943 5.93549 6.98481 5.82466L7.5293 5.00977L8.0748 5.82618C8.14916 5.93549 8.18848 6.06346 8.18848 6.19626C8.18848 6.55975 7.89278 6.85544 7.5293 6.85544C7.16581 6.85544 6.87012 6.55972 6.87012 6.19626ZM10.6055 12.8027H4.45312V10.8252C4.45312 10.704 4.55168 10.6055 4.67285 10.6055H5.1123C5.23348 10.6055 5.33203 10.704 5.33203 10.8252V11.7041C5.33203 12.0676 5.62772 12.3633 5.99121 12.3633C6.3547 12.3633 6.65039 12.0676 6.65039 11.7041V10.8252C6.65039 10.704 6.74895 10.6055 6.87012 10.6055H10.3857C10.5069 10.6055 10.6055 10.704 10.6055 10.8252V12.8027ZM10.6055 9.71188V10.2038C10.5367 10.1794 10.4628 10.166 10.3857 10.166H6.87012C6.50663 10.166 6.21094 10.4617 6.21094 10.8252V11.7041C6.21094 11.8253 6.11238 11.9239 5.99121 11.9239C5.87004 11.9239 5.77148 11.8253 5.77148 11.7041V10.8252C5.77148 10.4617 5.47579 10.166 5.1123 10.166H4.67285C4.59583 10.166 4.52188 10.1795 4.45312 10.2038V9.71188C4.45312 9.3484 4.74882 9.0527 5.1123 9.0527H9.94629C10.3098 9.0527 10.6055 9.3484 10.6055 9.71188ZM7.96875 8.61325H7.08984V8.1738H7.96875V8.61325Z" fill="#0191B4"/>
</svg>
